InterAlia.glyphspackage
{
glyphname = exclam;
layers = (
{
layerId = "C698F293-3EC0-4A5A-A3A0-0FDB1F5CF265";
shapes = (
{
closed = 1;
nodes = (
(186,1489,l),
(201,419,l),
(369,419,l),
(384,1489,l)
);
},
{
pos = (3,0);
ref = period;
}
);
width = 570;
},
{
guides = (
{
pos = (72,1240);
},
{
pos = (72,764);
},
{
angle = 90;
pos = (228,0);
},
{
orientation = center;
angle = 90;
pos = (512,516);
}
);
layerId = "5C20EF92-B63D-42A8-8878-93C2863E0093";
shapes = (
{
closed = 1;
nodes = (
(160,1489,l),
(198,465,l),
(529,465,l),
(567,1489,l)
);
},
{
pos = (44,0);
ref = period;
}
);
width = 727;
},
{
layerId = "11F4534A-B963-4AB5-820F-DAF9A20CD933";
shapes = (
{
closed = 1;
nodes = (
(340,1489,l),
(177,419,l),
(346,419,l),
(538,1489,l)
);
},
{
pos = (3,0);
ref = period;
}
);
width = 570;
},
{
guides = (
{
pos = (232,1240);
},
{
pos = (76,764);
},
{
angle = 90;
pos = (-24,0);
}
);
layerId = "D0EC06BF-13F9-4C88-A6F5-B8203AF6C77E";
shapes = (
{
closed = 1;
nodes = (
(314,1489,l),
(183,465,l),
(512,465,l),
(719,1489,l)
);
},
{
pos = (47,0);
ref = period;
}
);
width = 727;
},
{
guides = (
{
pos = (476,608);
}
);
layerId = "B1F27B51-9973-4381-9301-4FE46FE1CA59";
shapes = (
{
closed = 1;
nodes = (
(244,1489,l),
(244,442,l),
(291,442,l),
(291,1489,l)
);
},
{
pos = (9,0);
ref = period;
}
);
width = 535;
},
{
guides = (
{
pos = (476,608);
}
);
layerId = "200BE2C5-40F6-4CF4-AF4F-A33C0CC0964F";
shapes = (
{
closed = 1;
nodes = (
(399,1489,l),
(224,442,l),
(271,442,l),
(445,1489,l)
);
},
{
pos = (9,0);
ref = period;
}
);
width = 535;
}
);
unicode = 33;
userData = {
"interface.width-adjustments" = (
-16
);
};
}
{
glyphname = numbersign;
layers = (
{
layerId = "C698F293-3EC0-4A5A-A3A0-0FDB1F5CF265";
shapes = (
{
closed = 1;
nodes = (
(858,0,l),
(1103,1489,l),
(957,1489,l),
(713,0,l)
);
},
{
closed = 1;
nodes = (
(1146,413,l),
(1169,559,l),
(58,559,l),
(35,413,l)
);
},
{
closed = 1;
nodes = (
(335,0,l),
(579,1489,l),
(433,1489,l),
(189,0,l)
);
},
{
closed = 1;
nodes = (
(1233,931,l),
(1257,1076,l),
(145,1076,l),
(122,931,l)
);
}
);
width = 1292;
},
{
layerId = "5C20EF92-B63D-42A8-8878-93C2863E0093";
shapes = (
{
closed = 1;
nodes = (
(963,0,l),
(1207,1489,l),
(916,1489,l),
(672,0,l)
);
},
{
closed = 1;
nodes = (
(1210,340,l),
(1260,631,l),
(61,631,l),
(12,340,l)
);
},
{
closed = 1;
nodes = (
(439,0,l),
(684,1489,l),
(393,1489,l),
(148,0,l)
);
},
{
closed = 1;
nodes = (
(1295,858,l),
(1344,1149,l),
(145,1149,l),
(96,858,l)
);
}
);
width = 1356;
},
{
layerId = "11F4534A-B963-4AB5-820F-DAF9A20CD933";
shapes = (
{
closed = 1;
nodes = (
(876,0,l),
(1146,1489,l),
(1001,1489,l),
(730,0,l)
);
},
{
closed = 1;
nodes = (
(1171,413,l),
(1197,559,l),
(86,559,l),
(60,413,l)
);
},
{
closed = 1;
nodes = (
(352,0,l),
(623,1489,l),
(477,1489,l),
(207,0,l)
);
},
{
closed = 1;
nodes = (
(1267,931,l),
(1293,1076,l),
(182,1076,l),
(156,931,l)
);
}
);
width = 1292;
},
{
layerId = "D0EC06BF-13F9-4C88-A6F5-B8203AF6C77E";
shapes = (
{
closed = 1;
nodes = (
(980,0,l),
(1251,1489,l),
(960,1489,l),
(689,0,l)
);
},
{
closed = 1;
nodes = (
(1233,340,l),
(1289,631,l),
(90,631,l),
(35,340,l)
);
},
{
closed = 1;
nodes = (
(457,0,l),
(727,1489,l),
(436,1489,l),
(166,0,l)
);
},
{
closed = 1;
nodes = (
(1328,858,l),
(1382,1149,l),
(183,1149,l),
(129,858,l)
);
}
);
width = 1356;
},
{
layerId = "B1F27B51-9973-4381-9301-4FE46FE1CA59";
shapes = (
{
closed = 1;
nodes = (
(812,0,l),
(1056,1489,l),
(1009,1489,l),
(765,0,l)
);
},
{
closed = 1;
nodes = (
(1158,463,l),
(1167,509,l),
(55,509,l),
(47,463,l)
);
},
{
closed = 1;
nodes = (
(288,0,l),
(532,1489,l),
(486,1489,l),
(241,0,l)
);
},
{
closed = 1;
nodes = (
(1242,980,l),
(1251,1027,l),
(140,1027,l),
(131,980,l)
);
}
);
width = 1297;
},
{
layerId = "200BE2C5-40F6-4CF4-AF4F-A33C0CC0964F";
shapes = (
{
closed = 1;
nodes = (
(829,0,l),
(1100,1489,l),
(1053,1489,l),
(783,0,l)
);
},
{
closed = 1;
nodes = (
(1184,463,l),
(1193,509,l),
(81,509,l),
(73,463,l)
);
},
{
closed = 1;
nodes = (
(305,0,l),
(576,1489,l),
(529,1489,l),
(259,0,l)
);
},
{
closed = 1;
nodes = (
(1277,980,l),
(1287,1027,l),
(176,1027,l),
(166,980,l)
);
}
);
width = 1297;
},
{
associatedMasterId = "C698F293-3EC0-4A5A-A3A0-0FDB1F5CF265";
layerId = "8B226100-FDA1-4179-99A9-A0AFC43B9D41";
name = "Dec 27 18, 16:44";
shapes = (
{
closed = 1;
nodes = (
(410,0,l),
(608,1489,l),
(460,1489,l),
(262,0,l)
);
},
{
closed = 1;
nodes = (
(861,0,l),
(1062,1489,l),
(913,1489,l),
(716,0,l)
);
},
{
closed = 1;
nodes = (
(1222,1082,l),
(166,1082,l),
(145,931,l),
(1201,931,l)
);
},
{
closed = 1;
nodes = (
(1155,559,l),
(99,559,l),
(79,413,l),
(1135,413,l)
);
}
);
width = 1315;
},
{
associatedMasterId = "C698F293-3EC0-4A5A-A3A0-0FDB1F5CF265";
layerId = "B5EAF93B-AA24-4C05-A772-FDBA6714CABE";
name = "Dec 27 18, 16:46";
shapes = (
{
closed = 1;
nodes = (
(919,0,l),
(919,1489,l)
);
},
{
closed = 1;
nodes = (
(1213,1004,l),
(102,1004,l)
);
},
{
closed = 1;
nodes = (
(396,0,l),
(396,1489,l)
);
},
{
closed = 1;
nodes = (
(1213,486,l),
(102,486,l)
);
}
);
width = 1315;
},
{
associatedMasterId = "5C20EF92-B63D-42A8-8878-93C2863E0093";
layerId = "8150BABC-50DE-457F-AD29-9E6DAA541700";
name = "Dec 27 18, 16:50";
shapes = (
{
closed = 1;
nodes = (
(503,0,l),
(774,1446,l),
(559,1446,l),
(288,0,l)
);
},
{
closed = 1;
nodes = (
(861,0,l),
(1132,1446,l),
(913,1446,l),
(643,0,l)
);
},
{
closed = 1;
nodes = (
(1295,1024,l),
(201,1024,l),
(207,829,l),
(1303,829,l)
);
},
{
closed = 1;
nodes = (
(1213,608,l),
(119,608,l),
(125,410,l),
(1219,410,l)
);
}
);
width = 1423;
},
{
associatedMasterId = "5C20EF92-B63D-42A8-8878-93C2863E0093";
background = {
shapes = (
{
closed = 1;
nodes = (
(416,0,l),
(687,1446,l),
(471,1446,l),
(201,0,l)
);
},
{
closed = 1;
nodes = (
(774,0,l),
(1044,1446,l),
(826,1446,l),
(556,0,l)
);
},
{
closed = 1;
nodes = (
(1207,1024,l),
(113,1024,l),
(119,829,l),
(1216,829,l)
);
},
{
closed = 1;
nodes = (
(1126,608,l),
(32,608,l),
(38,410,l),
(1132,410,l)
);
}
);
};
layerId = "5A59D344-CADF-46E4-B2F0-D61FEE264785";
name = "Dec 27 18, 16:53";
shapes = (
{
closed = 1;
nodes = (
(884,0,l),
(884,1489,l)
);
},
{
closed = 1;
nodes = (
(1222,1004,l),
(23,1004,l)
);
},
{
closed = 1;
nodes = (
(361,0,l),
(361,1489,l)
);
},
{
closed = 1;
nodes = (
(1222,486,l),
(23,486,l)
);
}
);
width = 1245;
},
{
associatedMasterId = "B1F27B51-9973-4381-9301-4FE46FE1CA59";
background = {
shapes = (
{
closed = 1;
nodes = (
(410,0,l),
(608,1489,l),
(460,1489,l),
(262,0,l)
);
},
{
closed = 1;
nodes = (
(861,0,l),
(1062,1489,l),
(913,1489,l),
(716,0,l)
);
},
{
closed = 1;
nodes = (
(1222,1082,l),
(183,1082,l),
(163,931,l),
(1201,931,l)
);
},
{
closed = 1;
nodes = (
(1155,559,l),
(116,559,l),
(96,413,l),
(1135,413,l)
);
}
);
};
layerId = "234210DF-ABFB-4FAA-87B6-7476935D9366";
name = "Dec 27 18, 16:59";
shapes = (
{
closed = 1;
nodes = (
(919,0,l),
(919,1489,l)
);
},
{
closed = 1;
nodes = (
(1213,1004,l),
(102,1004,l)
);
},
{
closed = 1;
nodes = (
(396,0,l),
(396,1489,l)
);
},
{
closed = 1;
nodes = (
(1213,486,l),
(102,486,l)
);
}
);
width = 1315;
}
);
note = "one. outline\0122. slant 9.4 deg\0123. remove extra shapes created by outlining";
unicode = 35;
userData = {
"interface.width-adjustments" = (
-16
);
};
}
{
color = (204,240,242,1);
glyphname = dollar;
kernLeft = S;
kernRight = S;
layers = (
{
layerId = "C698F293-3EC0-4A5A-A3A0-0FDB1F5CF265";
shapes = (
{
closed = 1;
nodes = (
(713,-186,l),
(713,1676,l),
(593,1676,l),
(593,-186,l)
);
},
{
ref = S;
}
);
width = 1306;
},
{
guides = (
{
pos = (0,2280);
},
{
pos = (0,764);
}
);
layerId = "5C20EF92-B63D-42A8-8878-93C2863E0093";
shapes = (
{
closed = 1;
nodes = (
(759,-186,l),
(759,1676,l),
(640,1676,l),
(640,-186,l)
);
},
{
ref = S;
}
);
width = 1364;
},
{
layerId = "11F4534A-B963-4AB5-820F-DAF9A20CD933";
shapes = (
{
closed = 1;
nodes = (
(591,-186,l),
(899,1676,l),
(780,1676,l),
(471,-186,l)
);
},
{
ref = S;
}
);
width = 1306;
},
{
guides = (
{
pos = (1500,2280);
},
{
pos = (-2,764);
}
);
layerId = "D0EC06BF-13F9-4C88-A6F5-B8203AF6C77E";
shapes = (
{
closed = 1;
nodes = (
(636,-186,l),
(944,1676,l),
(825,1676,l),
(516,-186,l)
);
},
{
ref = S;
}
);
width = 1364;
},
{
layerId = "B1F27B51-9973-4381-9301-4FE46FE1CA59";
shapes = (
{
closed = 1;
nodes = (
(652,-186,l),
(652,1676,l),
(605,1676,l),
(605,-186,l)
);
},
{
alignment = -1;
ref = S;
}
);
width = 1254;
},
{
layerId = "200BE2C5-40F6-4CF4-AF4F-A33C0CC0964F";
shapes = (
{
closed = 1;
nodes = (
(529,-186,l),
(838,1676,l),
(791,1676,l),
(483,-186,l)
);
},
{
alignment = -1;
ref = S;
}
);
width = 1254;
}
);
metricLeft = S;
metricRight = S;
unicode = 36;
userData = {
"interface.width-adjustments" = (
-16
);
};
}
{
glyphname = percent;
layers = (
{
layerId = "C698F293-3EC0-4A5A-A3A0-0FDB1F5CF265";
shapes = (
{
closed = 1;
nodes = (
(913,116,o),
(1015,-20,o),
(1204,-20,cs),
(1391,-20,o),
(1492,116,o),
(1492,279,cs),
(1492,358,ls),
(1492,521,o),
(1393,657,o),
(1204,657,cs),
(1018,657,o),
(913,521,o),
(913,358,cs),
(913,279,ls)
);
},
{
closed = 1;
nodes = (
(1062,448,o),
(1103,532,o),
(1204,532,cs),
(1309,532,o),
(1344,448,o),
(1344,358,cs),
(1344,279,ls),
(1344,189,o),
(1306,105,o),
(1204,105,cs),
(1100,105,o),
(1062,189,o),
(1062,279,cs),
(1062,358,ls)
);
},
{
closed = 1;
nodes = (
(172,969,o),
(273,832,o),
(463,832,cs),
(649,832,o),
(751,969,o),
(751,1132,cs),
(751,1210,ls),
(751,1373,o),
(652,1510,o),
(463,1510,cs),
(276,1510,o),
(172,1373,o),
(172,1210,cs),
(172,1132,ls)
);
},
{
closed = 1;
nodes = (
(320,1300,o),
(361,1385,o),
(463,1385,cs),
(567,1385,o),
(602,1300,o),
(602,1210,cs),
(602,1132,ls),
(602,1041,o),
(564,957,o),
(463,957,cs),
(358,957,o),
(320,1041,o),
(320,1132,cs),
(320,1210,ls)
);
},
{
pos = (541,0);
ref = fraction;
}
);
width = 1664;
},
{
layerId = "5C20EF92-B63D-42A8-8878-93C2863E0093";
shapes = (
{
closed = 1;
nodes = (
(951,90,o),
(1075,-73,o),
(1303,-73,cs),
(1532,-73,o),
(1658,90,o),
(1658,279,cs),
(1658,358,ls),
(1658,550,o),
(1535,710,o),
(1303,710,cs),
(1078,710,o),
(951,547,o),
(951,358,cs),
(951,279,ls)
);
},
{
closed = 1;
nodes = (
(1204,416,o),
(1226,483,o),
(1303,483,cs),
(1386,483,o),
(1402,416,o),
(1402,358,cs),
(1402,279,ls),
(1402,221,o),
(1383,157,o),
(1303,157,cs),
(1226,157,o),
(1204,224,o),
(1204,279,cs),
(1204,358,ls)
);
},
{
closed = 1;
nodes = (
(172,943,o),
(295,783,o),
(524,783,cs),
(752,783,o),
(879,940,o),
(879,1132,cs),
(879,1210,ls),
(879,1402,o),
(755,1562,o),
(524,1562,cs),
(301,1562,o),
(172,1402,o),
(172,1210,cs),
(172,1132,ls)
);
},
{
closed = 1;
nodes = (
(428,1265,o),
(447,1335,o),
(524,1335,cs),
(607,1335,o),
(623,1268,o),
(623,1210,cs),
(623,1132,ls),
(623,1073,o),
(604,1009,o),
(524,1009,cs),
(449,1009,o),
(428,1073,o),
(428,1132,cs),
(428,1210,ls)
);
},
{
pos = (633,0);
ref = fraction;
}
);
width = 1824;
},
{
layerId = "11F4534A-B963-4AB5-820F-DAF9A20CD933";
shapes = (
{
closed = 1;
nodes = (
(837,117,o),
(919,-20,o),
(1108,-20,cs),
(1295,-20,o),
(1416,117,o),
(1446,279,cs),
(1460,358,ls),
(1490,520,o),
(1411,657,o),
(1222,657,cs),
(1036,657,o),
(911,520,o),
(881,358,cs),
(867,279,ls)
);
},
{
closed = 1;
nodes = (
(1047,448,o),
(1100,532,o),
(1201,532,cs),
(1306,532,o),
(1329,448,o),
(1312,358,cs),
(1297,279,ls),
(1281,189,o),
(1231,105,o),
(1129,105,cs),
(1024,105,o),
(999,189,o),
(1015,279,cs),
(1030,358,ls)
);
},
{
closed = 1;
nodes = (
(244,968,o),
(320,832,o),
(509,832,cs),
(695,832,o),
(823,968,o),
(847,1132,cs),
(858,1210,ls),
(882,1373,o),
(809,1510,o),
(620,1510,cs),
(433,1510,o),
(303,1373,o),
(279,1210,cs),
(268,1132,ls)
);
},
{
closed = 1;
nodes = (
(441,1300,o),
(497,1385,o),
(599,1385,cs),
(704,1385,o),
(723,1300,o),
(710,1210,cs),
(698,1132,ls),
(684,1041,o),
(631,957,o),
(529,957,cs),
(425,957,o),
(402,1041,o),
(416,1132,cs),
(428,1210,ls)
);
},
{
pos = (541,0);
ref = fraction;
}
);
width = 1664;
},
{
layerId = "D0EC06BF-13F9-4C88-A6F5-B8203AF6C77E";
shapes = (
{
closed = 1;
nodes = (
(870,91,o),
(970,-73,o),
(1199,-73,cs),
(1427,-73,o),
(1577,91,o),
(1612,279,cs),
(1626,358,ls),
(1662,549,o),
(1561,710,o),
(1329,710,cs),
(1104,710,o),
(954,546,o),
(919,358,cs),
(905,279,ls)
);
},
{
closed = 1;
nodes = (
(1183,416,o),
(1215,483,o),
(1292,483,cs),
(1375,483,o),
(1381,416,o),
(1370,358,cs),
(1356,279,ls),
(1345,222,o),
(1316,157,o),
(1236,157,cs),
(1159,157,o),
(1148,225,o),
(1158,279,cs),
(1172,358,ls)
);
},
{
closed = 1;
nodes = (
(239,942,o),
(333,783,o),
(561,783,cs),
(790,783,o),
(946,940,o),
(975,1132,cs),
(986,1210,ls),
(1015,1403,o),
(921,1562,o),
(689,1562,cs),
(467,1562,o),
(308,1403,o),
(279,1210,cs),
(268,1132,ls)
);
},
{
closed = 1;
nodes = (
(543,1265,o),
(575,1335,o),
(652,1335,cs),
(735,1335,o),
(739,1268,o),
(730,1210,cs),
(719,1132,ls),
(710,1073,o),
(679,1009,o),
(599,1009,cs),
(525,1009,o),
(515,1073,o),
(524,1132,cs),
(535,1210,ls)
);
},
{
pos = (636,0);
ref = fraction;
}
);
width = 1824;
},
{
layerId = "B1F27B51-9973-4381-9301-4FE46FE1CA59";
shapes = (
{
closed = 1;
nodes = (
(931,97,o),
(1037,-20,o),
(1175,-20,cs),
(1313,-20,o),
(1420,97,o),
(1420,271,cs),
(1420,317,ls),
(1420,491,o),
(1313,608,o),
(1175,608,cs),
(1037,608,o),
(931,491,o),
(931,317,cs),
(931,271,ls)
);
},
{
closed = 1;
nodes = (
(977,465,o),
(1064,561,o),
(1175,561,cs),
(1287,561,o),
(1373,465,o),
(1373,317,cs),
(1373,271,ls),
(1373,122,o),
(1287,26,o),
(1175,26,cs),
(1064,26,o),
(977,122,o),
(977,271,cs),
(977,317,ls)
);
},
{
closed = 1;
nodes = (
(163,999,o),
(269,881,o),
(407,881,cs),
(545,881,o),
(652,999,o),
(652,1172,cs),
(652,1219,ls),
(652,1393,o),
(545,1510,o),
(407,1510,cs),
(269,1510,o),
(163,1393,o),
(163,1219,cs),
(163,1172,ls)
);
},
{
closed = 1;
nodes = (
(209,1367,o),
(296,1463,o),
(407,1463,cs),
(519,1463,o),
(605,1367,o),
(605,1219,cs),
(605,1172,ls),
(605,1024,o),
(519,928,o),
(407,928,cs),
(296,928,o),
(209,1024,o),
(209,1172,cs),
(209,1219,ls)
);
},
{
alignment = -1;
pos = (512,0);
ref = fraction;
}
);
width = 1583;
},
{
layerId = "200BE2C5-40F6-4CF4-AF4F-A33C0CC0964F";
shapes = (
{
closed = 1;
nodes = (
(855,96,o),
(943,-20,o),
(1079,-20,cs),
(1219,-20,o),
(1344,96,o),
(1373,271,cs),
(1379,317,ls),
(1408,492,o),
(1321,608,o),
(1184,608,cs),
(1044,608,o),
(919,492,o),
(890,317,cs),
(884,271,ls)
);
},
{
closed = 1;
nodes = (
(963,465,o),
(1065,561,o),
(1175,561,cs),
(1286,561,o),
(1359,465,o),
(1332,317,cs),
(1327,271,ls),
(1300,122,o),
(1199,26,o),
(1088,26,cs),
(975,26,o),
(905,122,o),
(931,271,cs),
(937,317,ls)
);
},
{
closed = 1;
nodes = (
(236,998,o),
(323,881,o),
(460,881,cs),
(599,881,o),
(724,998,o),
(753,1172,cs),
(762,1219,ls),
(788,1393,o),
(704,1510,o),
(564,1510,cs),
(428,1510,o),
(300,1393,o),
(273,1219,cs),
(265,1172,ls)
);
},
{
closed = 1;
nodes = (
(343,1367,o),
(445,1463,o),
(556,1463,cs),
(669,1463,o),
(739,1367,o),
(716,1219,cs),
(707,1172,ls),
(681,1024,o),
(579,928,o),
(468,928,cs),
(358,928,o),
(285,1024,o),
(311,1172,cs),
(320,1219,ls)
);
},
{
alignment = -1;
pos = (512,0);
ref = fraction;
}
);
width = 1583;
}
);
unicode = 37;
userData = {
"interface.width-adjustments" = (
-16
);
};
}
{
glyphname = ampersand;
layers = (
{
layerId = "C698F293-3EC0-4A5A-A3A0-0FDB1F5CF265";
shapes = (
{
closed = 1;
nodes = (
(721,-20,o),
(881,32,o),
(977,140,c),
(989,154,o),
(998,169,o),
(1009,183,c),
(1062,235,o),
(1190,355,o),
(1190,652,c),
(1024,652,l),
(1024,332,o),
(797,131,o),
(573,131,cs),
(396,131,o),
(279,256,o),
(279,396,c),
(279,436,o),
(317,541,o),
(451,640,cs),
(748,861,ls),
(870,951,o),
(945,1050,o),
(945,1193,c),
(945,1359,o),
(809,1504,o),
(585,1504,cs),
(367,1504,o),
(224,1367,o),
(224,1167,cs),
(224,992,o),
(349,870,o),
(506,681,cs),
(1071,0,l),
(1277,0,l),
(593,835,ls),
(497,951,o),
(399,1059,o),
(399,1164,cs),
(399,1257,o),
(477,1356,o),
(591,1356,cs),
(698,1356,o),
(771,1268,o),
(771,1193,c),
(771,1091,o),
(716,1036,o),
(631,980,c),
(416,820,l),
(233,695,o),
(105,582,o),
(105,396,c),
(105,154,o),
(285,-20,o),
(579,-20,c)
);
}
);
width = 1309;
},
{
layerId = "5C20EF92-B63D-42A8-8878-93C2863E0093";
shapes = (
{
closed = 1;
nodes = (
(707,-23,o),
(841,5,o),
(960,81,c),
(1001,102,o),
(1039,119,o),
(1079,140,c),
(1274,276,o),
(1350,518,o),
(1350,777,c),
(1033,777,l),
(1033,495,o),
(809,291,o),
(611,291,cs),
(513,291,o),
(451,340,o),
(451,425,c),
(451,492,o),
(491,531,o),
(538,564,cs),
(847,783,ls),
(974,873,o),
(1044,996,o),
(1044,1135,c),
(1044,1341,o),
(890,1513,o),
(640,1513,cs),
(378,1513,o),
(204,1327,o),
(204,1100,cs),
(204,896,o),
(344,735,o),
(433,640,cs),
(1039,0,l),
(1440,0,l),
(719,794,l),
(611,922,o),
(529,1007,o),
(529,1094,cs),
(529,1156,o),
(572,1195,o),
(640,1196,cs),
(713,1196,o),
(748,1153,o),
(748,1105,cs),
(748,1069,o),
(728,1020,o),
(660,977,cs),
(323,768,l),
(169,663,o),
(67,563,o),
(67,396,c),
(67,165,o),
(261,-23,o),
(582,-23,c)
);
}
);
width = 1428;
},
{
layerId = "11F4534A-B963-4AB5-820F-DAF9A20CD933";
shapes = (
{
closed = 1;
nodes = (
(624,-20,o),
(793,32,o),
(907,140,c),
(921,154,o),
(939,169,o),
(953,183,c),
(1014,241,o),
(1154,355,o),
(1203,652,c),
(1038,652,l),
(985,332,o),
(726,131,o),
(502,131,cs),
(325,131,o),
(229,256,o),
(252,396,c),
(258,436,o),
(314,540,o),
(464,640,cs),
(796,861,ls),
(932,952,o),
(1026,1050,o),
(1049,1193,c),
(1078,1359,o),
(965,1504,o),
(741,1504,cs),
(523,1504,o),
(357,1367,o),
(325,1167,cs),
(297,992,o),
(400,870,o),
(526,681,cs),
(976,0,l),
(1183,0,l),
(639,835,ls),
(563,953,o),
(479,1059,o),
(496,1164,cs),
(512,1257,o),
(607,1356,o),
(720,1356,cs),
(828,1356,o),
(886,1268,o),
(875,1193,c),
(857,1091,o),
(793,1036,o),
(700,980,c),
(459,820,l),
(255,695,o),
(107,582,o),
(78,396,c),
(37,154,o),
(188,-20,o),
(482,-20,c)
);
}
);
width = 1308;
},
{
layerId = "D0EC06BF-13F9-4C88-A6F5-B8203AF6C77E";
shapes = (
{
closed = 1;
nodes = (
(611,-23,o),
(751,6,o),
(881,81,c),
(924,102,o),
(965,119,o),
(1009,140,c),
(1228,276,o),
(1344,518,o),
(1384,777,c),
(1067,777,l),
(1021,495,o),
(765,291,o),
(567,291,cs),
(468,291,o),
(416,340,o),
(427,425,c),
(439,492,o),
(486,532,o),
(537,564,cs),
(884,783,ls),
(1027,873,o),
(1117,995,o),
(1140,1135,c),
(1175,1341,o),
(1047,1513,o),
(796,1513,cs),
(535,1513,o),
(332,1327,o),
(293,1100,cs),
(258,896,o),
(373,735,o),
(447,640,cs),
(945,0,l),
(1346,0,l),
(756,794,l),
(672,922,o),
(605,1007,o),
(616,1094,cs),
(624,1159,o),
(678,1196,o),
(744,1196,cs),
(820,1196,o),
(847,1152,o),
(837,1105,cs),
(830,1071,o),
(804,1020,o),
(729,977,cs),
(357,768,l),
(186,663,o),
(67,564,o),
(40,396,c),
(3,166,o),
(166,-23,o),
(485,-23,c)
);
}
);
width = 1474;
},
{
associatedMasterId = "D0EC06BF-13F9-4C88-A6F5-B8203AF6C77E";
layerId = "A024DAEF-5CF1-4DB6-A2CD-0618C3F5EE1E";
name = "Sep 16 18, 17:30";
shapes = (
{
closed = 1;
nodes = (
(207,663,o),
(88,567,o),
(61,404,c),
(21,154,o),
(181,-20,o),
(489,-20,c),
(737,-20,o),
(850,49,o),
(980,119,cs),
(990,125,o),
(1025,137,o),
(1030,140,cs),
(1249,276,o),
(1365,518,o),
(1405,777,c),
(1088,777,l),
(1042,495,o),
(786,291,o),
(588,291,cs),
(492,291,o),
(437,340,o),
(451,433,c),
(463,509,o),
(478,529,o),
(509,561,c),
(905,809,ls),
(1033,887,o),
(1138,1007,o),
(1161,1135,c),
(1196,1341,o),
(1068,1513,o),
(817,1513,cs),
(556,1513,o),
(353,1327,o),
(314,1100,cs),
(280,896,o),
(396,736,o),
(468,640,cs),
(937,0,l),
(1367,0,l),
(777,794,l),
(693,922,o),
(623,1001,o),
(637,1094,cs),
(649,1158,o),
(693,1196,o),
(765,1196,cs),
(836,1196,o),
(865,1143,o),
(858,1100,c),
(853,1076,o),
(847,1033,o),
(751,977,cs),
(378,768,l)
);
}
);
width = 1507;
},
{
layerId = "B1F27B51-9973-4381-9301-4FE46FE1CA59";
shapes = (
{
closed = 1;
nodes = (
(695,-20,o),
(844,44,o),
(943,148,cs),
(955,161,o),
(967,176,o),
(977,192,cs),
(1041,282,o),
(1094,410,o),
(1114,535,c),
(1068,541,l),
(1017,241,o),
(841,33,o),
(550,26,cs),
(340,29,o),
(177,180,o),
(177,372,cs),
(177,492,o),
(239,576,o),
(416,713,cs),
(634,876,ls),
(785,995,o),
(847,1088,o),
(847,1207,cs),
(847,1382,o),
(721,1510,o),
(553,1510,cs),
(381,1510,o),
(236,1364,o),
(236,1196,cs),
(236,1082,o),
(308,995,o),
(445,823,cs),
(1097,0,l),
(1155,0,l),
(480,852,ls),
(343,1024,o),
(282,1100,o),
(282,1196,cs),
(282,1338,o),
(407,1463,o),
(553,1463,cs),
(695,1463,o),
(800,1356,o),
(800,1207,cs),
(800,1102,o),
(745,1023,o),
(605,913,cs),
(387,751,ls),
(198,605,o),
(131,506,o),
(131,372,cs),
(131,154,o),
(314,-20,o),
(550,-20,cs)
);
}
);
width = 1196;
},
{
layerId = "200BE2C5-40F6-4CF4-AF4F-A33C0CC0964F";
shapes = (
{
closed = 1;
nodes = (
(600,-20,o),
(756,47,o),
(876,148,cs),
(891,161,o),
(904,176,o),
(917,192,cs),
(993,285,o),
(1070,410,o),
(1112,535,c),
(1065,541,l),
(965,241,o),
(743,33,o),
(452,26,cs),
(241,21,o),
(116,180,o),
(146,372,cs),
(165,492,o),
(241,578,o),
(443,713,cs),
(687,876,ls),
(860,991,o),
(935,1088,o),
(955,1207,cs),
(983,1382,o),
(880,1510,o),
(711,1510,cs),
(540,1510,o),
(369,1364,o),
(341,1196,cs),
(322,1082,o),
(382,996,o),
(489,823,cs),
(1004,0,l),
(1063,0,l),
(530,852,ls),
(423,1025,o),
(372,1100,o),
(388,1196,cs),
(410,1338,o),
(569,1463,o),
(713,1463,cs),
(857,1463,o),
(932,1356,o),
(908,1207,cs),
(892,1102,o),
(825,1020,o),
(664,913,cs),
(420,751,ls),
(205,607,o),
(123,506,o),
(100,372,cs),
(62,155,o),
(219,-20,o),
(455,-20,cs)
);
}
);
width = 1241;
},
{
associatedMasterId = "C698F293-3EC0-4A5A-A3A0-0FDB1F5CF265";
background = {
shapes = (
{
closed = 1;
nodes = (
(233,695,o),
(105,582,o),
(105,396,c),
(105,154,o),
(285,-20,o),
(579,-20,c),
(721,-20,o),
(881,32,o),
(977,140,c),
(1009,183,l),
(1062,235,o),
(1190,355,o),
(1190,652,c),
(1024,652,l),
(1024,332,o),
(797,131,o),
(573,131,cs),
(396,131,o),
(279,256,o),
(279,396,c),
(279,436,o),
(317,541,o),
(451,640,cs),
(748,861,ls),
(870,951,o),
(945,1050,o),
(945,1193,c),
(945,1359,o),
(809,1504,o),
(585,1504,cs),
(367,1504,o),
(224,1367,o),
(224,1167,cs),
(224,992,o),
(349,870,o),
(506,681,cs),
(1071,0,l),
(1277,0,l),
(593,835,ls),
(497,951,o),
(399,1059,o),
(399,1164,cs),
(399,1257,o),
(477,1356,o),
(591,1356,cs),
(698,1356,o),
(771,1268,o),
(771,1193,c),
(771,1091,o),
(716,1036,o),
(631,980,c),
(416,820,l)
);
}
);
};
layerId = "BA8B7BCA-29C4-43D2-BA91-3D8856FB35CE";
name = "Dec 27 18, 14:15";
shapes = (
{
closed = 0;
nodes = (
(1111,655,l),
(1111,395,o),
(983,250,o),
(940,207,c),
(849,108,o),
(706,58,o),
(579,58,c),
(345,58,o),
(196,208,o),
(195,399,c),
(196,512,o),
(279,621,o),
(436,733,c),
(646,887,l),
(765,976,o),
(860,1057,o),
(861,1196,c),
(860,1337,o),
(753,1437,o),
(588,1437,c),
(421,1437,o),
(316,1283,o),
(314,1167,c),
(316,1052,o),
(398,949,o),
(495,832,c),
(512,810,o),
(592,713,o),
(614,687,c),
(1178,3,l)
);
}
);
width = 1309;
},
{
associatedMasterId = "B1F27B51-9973-4381-9301-4FE46FE1CA59";
background = {
shapes = (
{
closed = 1;
nodes = (
(233,695,o),
(105,582,o),
(105,396,c),
(105,154,o),
(285,-20,o),
(579,-20,c),
(721,-20,o),
(881,32,o),
(977,140,c),
(1009,183,l),
(1062,235,o),
(1190,355,o),
(1190,652,c),
(1024,652,l),
(1024,332,o),
(797,131,o),
(573,131,cs),
(396,131,o),
(279,256,o),
(279,396,c),
(279,436,o),
(317,541,o),
(451,640,cs),
(748,861,ls),
(870,951,o),
(945,1050,o),
(945,1193,c),
(945,1359,o),
(809,1504,o),
(585,1504,cs),
(367,1504,o),
(224,1367,o),
(224,1167,cs),
(224,992,o),
(349,870,o),
(506,681,cs),
(1071,0,l),
(1277,0,l),
(593,835,ls),
(497,951,o),
(399,1059,o),
(399,1164,cs),
(399,1257,o),
(477,1356,o),
(591,1356,cs),
(698,1356,o),
(771,1268,o),
(771,1193,c),
(771,1091,o),
(716,1036,o),
(631,980,c),
(416,820,l)
);
}
);
};
layerId = "BC7DB698-6657-4284-AE4C-FB553159B532";
name = "Dec 27 18, 14:19";
shapes = (
{
closed = 0;
nodes = (
(1111,649,l),
(1111,479,o),
(1038,289,o),
(940,183,cs),
(850,86,o),
(712,29,o),
(579,29,cs),
(351,29,o),
(195,196,o),
(195,384,cs),
(195,519,o),
(276,611,o),
(436,730,cs),
(646,890,ls),
(805,1015,o),
(844,1100,o),
(844,1193,cs),
(844,1357,o),
(724,1463,o),
(582,1463,cs),
(415,1463,o),
(297,1319,o),
(297,1181,cs),
(297,1079,o),
(361,1002,o),
(495,835,cs),
(1178,-29,l)
);
}
);
width = 1238;
},
{
associatedMasterId = "B1F27B51-9973-4381-9301-4FE46FE1CA59";
background = {
shapes = (
{
closed = 1;
nodes = (
(233,695,o),
(105,582,o),
(105,396,c),
(105,154,o),
(285,-20,o),
(579,-20,c),
(721,-20,o),
(881,32,o),
(977,140,c),
(1009,183,l),
(1062,235,o),
(1190,355,o),
(1190,652,c),
(1024,652,l),
(1024,332,o),
(797,131,o),
(573,131,cs),
(396,131,o),
(279,256,o),
(279,396,c),
(279,436,o),
(317,541,o),
(451,640,cs),
(748,861,ls),
(870,951,o),
(945,1050,o),
(945,1193,c),
(945,1359,o),
(809,1504,o),
(585,1504,cs),
(367,1504,o),
(224,1367,o),
(224,1167,cs),
(224,992,o),
(349,870,o),
(506,681,cs),
(1071,0,l),
(1277,0,l),
(593,835,ls),
(497,951,o),
(399,1059,o),
(399,1164,cs),
(399,1257,o),
(477,1356,o),
(591,1356,cs),
(698,1356,o),
(771,1268,o),
(771,1193,c),
(771,1091,o),
(716,1036,o),
(631,980,c),
(416,820,l)
);
}
);
};
layerId = "297194E9-A452-4483-B058-5B7B44144A90";
name = "Dec 27 18, 14:20";
shapes = (
{
closed = 0;
nodes = (
(1117,538,l),
(1094,396,o),
(1030,250,o),
(951,163,cs),
(856,64,o),
(714,4,o),
(576,3,cs),
(340,4,o),
(180,177,o),
(180,372,cs),
(180,511,o),
(263,606,o),
(428,730,cs),
(646,893,ls),
(810,1023,o),
(849,1111,o),
(849,1207,cs),
(849,1377,o),
(727,1487,o),
(579,1487,cs),
(407,1487,o),
(284,1337,o),
(285,1196,cs),
(284,1090,o),
(351,1010,o),
(489,838,cs),
(1196,-55,l)
);
}
);
width = 1239;
}
);
metricLeft = d;
unicode = 38;
userData = {
"interface.width-adjustments" = (
-16
);
};
}
{
glyphname = quotesingle;
kernLeft = quotedbl;
kernRight = quotedbl;
layers = (
{
layerId = "C698F293-3EC0-4A5A-A3A0-0FDB1F5CF265";
shapes = (
{
closed = 1;
nodes = (
(99,1489,l),
(134,977,l),
(259,977,l),
(294,1489,l)
);
}
);
width = 393;
},
{
guides = (
{
pos = (128,1240);
},
{
pos = (128,764);
}
);
layerId = "5C20EF92-B63D-42A8-8878-93C2863E0093";
shapes = (
{
closed = 1;
nodes = (
(122,1489,l),
(157,887,l),
(425,887,l),
(460,1489,l)
);
}
);
width = 582;
},
{
layerId = "11F4534A-B963-4AB5-820F-DAF9A20CD933";
shapes = (
{
closed = 1;
nodes = (
(253,1489,l),
(204,977,l),
(329,977,l),
(448,1489,l)
);
}
);
width = 393;
},
{
guides = (
{
pos = (284,1240);
},
{
pos = (128,764);
}
);
layerId = "D0EC06BF-13F9-4C88-A6F5-B8203AF6C77E";
shapes = (
{
closed = 1;
nodes = (
(276,1489,l),
(212,887,l),
(480,887,l),
(614,1489,l)
);
}
);
width = 582;
},
{
layerId = "B1F27B51-9973-4381-9301-4FE46FE1CA59";
shapes = (
{
closed = 1;
nodes = (
(102,1489,l),
(111,1024,l),
(145,1024,l),
(154,1489,l)
);
}
);
width = 256;
},
{
layerId = "200BE2C5-40F6-4CF4-AF4F-A33C0CC0964F";
shapes = (
{
closed = 1;
nodes = (
(256,1489,l),
(186,1024,l),
(221,1024,l),
(308,1489,l)
);
}
);
width = 256;
}
);
unicode = 39;
userData = {
"interface.width-adjustments" = (
-16
);
};
}
{
glyphname = asterisk;
kernLeft = asciicircum;
kernRight = asciicircum;
layers = (
{
background = {
shapes = (
{
closed = 1;
nodes = (
(573,960,o),
(623,1009,o),
(623,1071,cs),
(623,1132,o),
(573,1181,o),
(512,1181,cs),
(451,1181,o),
(401,1132,o),
(401,1071,cs),
(401,1009,o),
(451,960,o),
(512,960,cs)
);
}
);
};
guides = (
{
pos = (784,1472);
},
{
angle = -30;
pos = (704,1472);
},
{
angle = 30;
pos = (704,1472);
},
{
orientation = center;
angle = 90;
pos = (980,1408);
}
);
layerId = "C698F293-3EC0-4A5A-A3A0-0FDB1F5CF265";
shapes = (
{
closed = 1;
nodes = (
(582,652,l),
(570,972,l),
(841,800,l),
(911,922,l),
(625,1071,l),
(911,1219,l),
(841,1341,l),
(570,1169,l),
(582,1489,l),
(442,1489,l),
(454,1169,l),
(183,1341,l),
(113,1219,l),
(399,1071,l),
(113,922,l),
(183,800,l),
(454,972,l),
(442,652,l)
);
}
);
width = 1024;
},
{
guides = (
{
pos = (844,1344);
},
{
angle = -32;
pos = (812,1472);
},
{
angle = 28;
pos = (812,1472);
},
{
angle = -99.4;
pos = (820,1520);
}
);
layerId = "11F4534A-B963-4AB5-820F-DAF9A20CD933";
shapes = (
{
closed = 1;
nodes = (
(596,652,l),
(640,972,l),
(884,800,l),
(975,922,l),
(713,1071,l),
(1018,1219,l),
(966,1341,l),
(672,1169,l),
(736,1489,l),
(596,1489,l),
(556,1169,l),
(311,1341,l),
(221,1219,l),
(483,1071,l),
(177,922,l),
(227,800,l),
(524,972,l),
(457,652,l)
);
}
);
width = 1024;
},
{
associatedMasterId = "5C20EF92-B63D-42A8-8878-93C2863E0093";
guides = (
{
pos = (0,1238.875);
},
{
pos = (0,763.125);
},
{
orientation = center;
pos = (832,1472);
showMeasurement = 1;
},
{
orientation = center;
angle = 90;
pos = (876,1472);
},
{
angle = -30;
pos = (832,1472);
},
{
angle = 30;
pos = (832,1472);
}
);
layerId = "97A0723D-7FBB-4E7F-A62E-E3A1A7C6FCDB";
name = _base;
shapes = (
{
closed = 1;
nodes = (
(-52,748,l),
(47,919,l),
(-180,1041,l),
(47,1167,l),
(-52,1341,l),
(-262,1213,l),
(-244,1443,l),
(-480,1443,l),
(-463,1213,l),
(-675,1341,l),
(-771,1167,l),
(-544,1041,l),
(-771,919,l),
(-675,748,l),
(-463,873,l),
(-480,643,l),
(-244,643,l),
(-262,873,l)
);
},
{
closed = 1;
nodes = (
(489,652,l),
(721,652,l),
(721,1489,l),
(489,1489,l)
);
},
{
closed = 1;
nodes = (
(183,963,l),
(300,759,l),
(1027,1178,l),
(911,1382,l)
);
},
{
closed = 1;
nodes = (
(300,1382,l),
(183,1178,l),
(911,759,l),
(1027,963,l)
);
}
);
width = 1210;
},
{
associatedMasterId = "C698F293-3EC0-4A5A-A3A0-0FDB1F5CF265";
guides = (
{
pos = (784,1344);
},
{
angle = -30;
pos = (704,1472);
},
{
angle = 30;
pos = (704,1472);
},
{
orientation = center;
angle = 90;
pos = (980,1408);
}
);
layerId = "243F3215-096B-472B-B93F-12968743793A";
name = _base;
shapes = (
{
closed = 1;
nodes = (
(442,652,l),
(582,652,l),
(582,1489,l),
(442,1489,l)
);
},
{
closed = 1;
nodes = (
(113,922,l),
(183,800,l),
(911,1219,l),
(841,1341,l)
);
},
{
closed = 1;
nodes = (
(183,1341,l),
(113,1219,l),
(841,800,l),
(911,922,l)
);
}
);
width = 1024;
},
{
associatedMasterId = "11F4534A-B963-4AB5-820F-DAF9A20CD933";
guides = (
{
pos = (1080,1344);
},
{
angle = -30;
pos = (832,1472);
},
{
angle = 30;
pos = (832,1472);
},
{
angle = -99.4;
pos = (840,1520);
}
);
layerId = "CC0E1785-E413-44A4-BA29-F4CA3A7668BA";
name = _base;
shapes = (
{
closed = 1;
nodes = (
(460,652,l),
(602,652,l),
(745,1489,l),
(602,1489,l)
);
},
{
closed = 1;
nodes = (
(189,969,l),
(244,841,l),
(1015,1175,l),
(960,1303,l)
);
},
{
closed = 1;
nodes = (
(305,1376,l),
(224,1263,l),
(899,765,l),
(980,879,l)
);
}
);
width = 1036;
},
{
associatedMasterId = "5C20EF92-B63D-42A8-8878-93C2863E0093";
background = {
shapes = (
{
closed = 1;
nodes = (
(695,908,o),
(768,981,o),
(768,1071,cs),
(768,1160,o),
(695,1233,o),
(605,1233,cs),
(516,1233,o),
(442,1160,o),
(442,1071,cs),
(442,981,o),
(516,908,o),
(605,908,cs)
);
}
);
};
guides = (
{
pos = (0,1238.875);
},
{
pos = (0,763.125);
},
{
orientation = center;
angle = 90;
pos = (876,1752);
},
{
angle = -30;
pos = (832,1472);
},
{
angle = 30;
pos = (832,1472);
},
{
angle = 60;
pos = (832,1472);
},
{
angle = -60;
pos = (832,1472);
}
);
layerId = "6C5AA80E-891B-45F3-A4F8-A8296CFF1D53";
name = "Sep 11 18, 18:19";
shapes = (
{
closed = 1;
nodes = (
(300,759,l),
(524,928,l),
(489,652,l),
(721,652,l),
(687,928,l),
(911,759,l),
(1027,963,l),
(768,1071,l),
(1027,1178,l),
(911,1382,l),
(687,1213,l),
(721,1489,l),
(489,1489,l),
(524,1213,l),
(300,1382,l),
(183,1178,l),
(442,1071,l),
(183,963,l)
);
}
);
width = 1210;
},
{
background = {
shapes = (
{
closed = 1;
nodes = (
(726,884,o),
(809,968,o),
(809,1071,cs),
(809,1173,o),
(726,1257,o),
(623,1257,cs),
(521,1257,o),
(437,1173,o),
(436,1071,cs),
(437,968,o),
(521,884,o),
(623,884,cs)
);
}
);
};
guides = (
{
pos = (24,1240);
},
{
pos = (24,764);
},
{
orientation = center;
angle = 90;
pos = (900,1752);
},
{
angle = -30;
pos = (856,1472);
},
{
angle = 30;
pos = (856,1472);
},
{
angle = 60;
pos = (856,1472);
},
{
angle = -60;
pos = (856,1472);
}
);
layerId = "5C20EF92-B63D-42A8-8878-93C2863E0093";
shapes = (
{
closed = 1;
nodes = (
(739,652,l),
(716,908,l),
(928,759,l),
(1044,963,l),
(812,1071,l),
(1044,1178,l),
(928,1382,l),
(716,1233,l),
(739,1489,l),
(506,1489,l),
(529,1233,l),
(317,1382,l),
(201,1178,l),
(433,1071,l),
(201,963,l),
(317,759,l),
(529,908,l),
(506,652,l)
);
}
);
width = 1245;
},
{
background = {
shapes = (
{
closed = 1;
nodes = (
(726,884,o),
(809,968,o),
(809,1071,cs),
(809,1173,o),
(726,1257,o),
(623,1257,cs),
(521,1257,o),
(437,1173,o),
(436,1071,cs),
(437,968,o),
(521,884,o),
(623,884,cs)
);
}
);
};
guides = (
{
pos = (180,1240);
},
{
pos = (24,764);
},
{
orientation = center;
angle = 90;
pos = (1224,1752);
},
{
angle = -30;
pos = (1088,1472);
},
{
angle = 30;
pos = (1088,1472);
},
{
angle = 60;
pos = (1088,1472);
},
{
angle = -60;
pos = (1088,1472);
}
);
layerId = "D0EC06BF-13F9-4C88-A6F5-B8203AF6C77E";
shapes = (
{
closed = 1;
nodes = (
(753,652,l),
(774,908,l),
(960,759,l),
(1111,963,l),
(896,1071,l),
(1146,1178,l),
(1065,1382,l),
(826,1233,l),
(893,1489,l),
(660,1489,l),
(640,1233,l),
(454,1382,l),
(303,1178,l),
(518,1071,l),
(268,963,l),
(349,759,l),
(588,908,l),
(521,652,l)
);
}
);
width = 1245;
},
{
guides = (
{
angle = 30;
pos = (704,1472);
},
{
orientation = center;
pos = (784,1472);
},
{
angle = -30;
pos = (704,1472);
}
);
layerId = "B1F27B51-9973-4381-9301-4FE46FE1CA59";
shapes = (
{
closed = 1;
nodes = (
(535,652,l),
(535,1030,l),
(864,841,l),
(887,881,l),
(559,1071,l),
(887,1260,l),
(864,1300,l),
(535,1111,l),
(535,1489,l),
(489,1489,l),
(489,1111,l),
(160,1300,l),
(137,1260,l),
(465,1071,l),
(137,881,l),
(160,841,l),
(489,1030,l),
(489,652,l)
);
}
);
width = 1024;
},
{
layerId = "200BE2C5-40F6-4CF4-AF4F-A33C0CC0964F";
shapes = (
{
closed = 1;
nodes = (
(550,652,l),
(614,1033,l),
(913,841,l),
(937,881,l),
(643,1068,l),
(1007,1260,l),
(983,1300,l),
(625,1111,l),
(689,1489,l),
(643,1489,l),
(579,1108,l),
(279,1300,l),
(256,1260,l),
(550,1073,l),
(186,881,l),
(209,841,l),
(567,1030,l),
(503,652,l)
);
}
);
width = 1024;
},
{
associatedMasterId = "B1F27B51-9973-4381-9301-4FE46FE1CA59";
background = {
shapes = (
{
closed = 1;
nodes = (
(582,652,l),
(570,972,l),
(841,800,l),
(911,922,l),
(625,1071,l),
(911,1219,l),
(841,1341,l),
(570,1169,l),
(582,1489,l),
(442,1489,l),
(454,1169,l),
(183,1341,l),
(113,1219,l),
(399,1071,l),
(113,922,l),
(183,800,l),
(454,972,l),
(442,652,l)
);
}
);
};
guides = (
{
angle = 30;
pos = (704,1472);
},
{
orientation = center;
pos = (784,1472);
},
{
angle = -30;
pos = (704,1472);
}
);
layerId = "F49FED06-13CF-4C84-978D-8F5A7D370851";
name = "Dec 27 18, 16:33";
shapes = (
{
closed = 0;
nodes = (
(512,1489,l),
(512,652,l)
);
},
{
closed = 0;
nodes = (
(876,1280,l),
(148,861,l)
);
},
{
closed = 0;
nodes = (
(876,861,l),
(148,1280,l)
);
}
);
width = 1024;
}
);
note = "hexagonal angle: 30 deg";
unicode = 42;
userData = {
com.typemytype.robofont.guideline.magnetic.x5LXEmmtln = 5;
"interface.width-adjustments" = (
-16
);
};
}
{
color = (204,240,242,1);
glyphname = plus;
kernLeft = hyphen;
kernRight = hyphen;
layers = (
{
background = {
shapes = (
{
pos = (108,0);
ref = e;
}
);
};
guides = (
{
pos = (268,800);
}
);
layerId = "C698F293-3EC0-4A5A-A3A0-0FDB1F5CF265";
shapes = (
{
closed = 1;
nodes = (
(756,102,l),
(756,1062,l),
(593,1062,l),
(593,102,l)
);
},
{
closed = 1;
nodes = (
(1155,500,l),
(1155,663,l),
(195,663,l),
(195,500,l)
);
}
);
width = 1350;
},
{
guides = (
{
orientation = center;
pos = (408,832);
}
);
layerId = "5C20EF92-B63D-42A8-8878-93C2863E0093";
shapes = (
{
closed = 1;
nodes = (
(873,67,l),
(873,1143,l),
(547,1143,l),
(547,67,l)
);
},
{
closed = 1;
nodes = (
(1248,442,l),
(1248,768,l),
(172,768,l),
(172,442,l)
);
}
);
width = 1420;
},
{
guides = (
{
pos = (268,800);
}
);
layerId = "11F4534A-B963-4AB5-820F-DAF9A20CD933";
shapes = (
{
closed = 1;
nodes = (
(682,102,l),
(841,1062,l),
(676,1062,l),
(518,102,l)
);
},
{
closed = 1;
nodes = (
(1145,500,l),
(1172,663,l),
(212,663,l),
(185,500,l)
);
}
);
width = 1350;
},
{
guides = (
{
pos = (744,896);
}
);
layerId = "D0EC06BF-13F9-4C88-A6F5-B8203AF6C77E";
shapes = (
{
closed = 1;
nodes = (
(791,67,l),
(969,1143,l),
(643,1143,l),
(465,67,l)
);
},
{
closed = 1;
nodes = (
(1228,442,l),
(1283,768,l),
(207,768,l),
(151,442,l)
);
}
);
width = 1420;
},
{
guides = (
{
pos = (268,800);
}
);
layerId = "B1F27B51-9973-4381-9301-4FE46FE1CA59";
shapes = (
{
closed = 1;
nodes = (
(675,160,l),
(675,1004,l),
(628,1004,l),
(628,160,l)
);
},
{
closed = 1;
nodes = (
(1073,559,l),
(1073,605,l),
(230,605,l),
(230,559,l)
);
}
);
width = 1303;
},
{
layerId = "200BE2C5-40F6-4CF4-AF4F-A33C0CC0964F";
shapes = (
{
closed = 1;
nodes = (
(608,160,l),
(748,1004,l),
(701,1004,l),
(561,160,l)
);
},
{
closed = 1;
nodes = (
(1073,559,l),
(1082,605,l),
(239,605,l),
(230,559,l)
);
}
);
width = 1303;
}
);
unicode = 43;
userData = {
com.typemytype.robofont.guideline.magnetic.vWa5hxe2x0 = 5;
"interface.width-adjustments" = (
-16
);
};
}
{
glyphname = comma;
kernLeft = comma;
kernRight = comma;
layers = (
{
layerId = "C698F293-3EC0-4A5A-A3A0-0FDB1F5CF265";
shapes = (
{
closed = 1;
nodes = (
(227,204,l),
(218,122,ls),
(197,-75,o),
(156,-271,o),
(137,-364,c),
(268,-364,l),
(303,-265,o),
(377,-41,o),
(401,125,cs),
(413,204,l)
);
}
);
width = 573;
},
{
background = {
shapes = (
{
closed = 1;
nodes = (
(189,279,l),
(189,9,l),
(189,-166,o),
(116,-244,o),
(73,-323,c),
(250,-425,l),
(384,-332,o),
(489,-143,o),
(486,38,c),
(486,279,l)
);
}
);
};
guides = (
{
pos = (12,1240);
},
{
pos = (12,764);
}
);
layerId = "5C20EF92-B63D-42A8-8878-93C2863E0093";
shapes = (
{
closed = 1;
nodes = (
(189,204,l),
(189,122,ls),
(189,-76,o),
(122,-283,o),
(99,-364,c),
(346,-364,l),
(381,-283,o),
(471,-88,o),
(486,122,cs),
(492,204,l)
);
}
);
width = 652;
},
{
layerId = "11F4534A-B963-4AB5-820F-DAF9A20CD933";
shapes = (
{
closed = 1;
nodes = (
(169,204,l),
(145,122,ls),
(93,-76,o),
(17,-271,o),
(-15,-364,c),
(116,-364,l),
(166,-265,o),
(276,-41,o),
(329,125,cs),
(355,204,l)
);
}
);
width = 573;
},
{
guides = (
{
pos = (324,1240);
},
{
pos = (12,764);
}
);
layerId = "D0EC06BF-13F9-4C88-A6F5-B8203AF6C77E";
shapes = (
{
closed = 1;
nodes = (
(131,204,l),
(116,122,ls),
(85,-76,o),
(-20,-288,o),
(-52,-364,c),
(195,-364,l),
(242,-282,o),
(364,-87,o),
(413,122,cs),
(433,204,l)
);
}
);
width = 652;
},
{
layerId = "B1F27B51-9973-4381-9301-4FE46FE1CA59";
shapes = (
{
closed = 1;
nodes = (
(282,204,l),
(268,122,ls),
(233,-74,o),
(198,-253,o),
(177,-364,c),
(215,-364,l),
(249,-254,o),
(290,-13,o),
(317,128,cs),
(332,204,l)
);
}
);
width = 526;
},
{
layerId = "200BE2C5-40F6-4CF4-AF4F-A33C0CC0964F";
shapes = (
{
closed = 1;
nodes = (
(215,204,l),
(186,122,ls),
(116,-74,o),
(55,-253,o),
(17,-364,c),
(55,-364,l),
(108,-253,o),
(181,-13,o),
(236,128,cs),
(265,204,l)
);
}
);
width = 527;
}
);
unicode = 44;
userData = {
"interface.width-adjustments" = (
-16
);
};
}
{
glyphname = hyphen;
kernLeft = hyphen;
kernRight = hyphen;
layers = (
{
background = {
shapes = (
{
ref = x;
}
);
};
guides = (
{
orientation = center;
pos = (1102,878);
}
);
layerId = "C698F293-3EC0-4A5A-A3A0-0FDB1F5CF265";
shapes = (
{
closed = 1;
nodes = (
(145,719,l),
(145,559,l),
(797,559,l),
(797,719,l)
);
}
);
width = 943;
},
{
background = {
shapes = (
{
ref = x;
}
);
};
guides = (
{
orientation = center;
pos = (1104,816);
}
);
layerId = "5C20EF92-B63D-42A8-8878-93C2863E0093";
shapes = (
{
closed = 1;
nodes = (
(137,745,l),
(137,442,l),
(835,442,l),
(835,745,l)
);
}
);
width = 972;
},
{
guides = (
{
orientation = center;
pos = (1102,878);
}
);
layerId = "11F4534A-B963-4AB5-820F-DAF9A20CD933";
shapes = (
{
closed = 1;
nodes = (
(172,719,l),
(145,559,l),
(797,559,l),
(823,719,l)
);
}
);
width = 943;
},
{
layerId = "D0EC06BF-13F9-4C88-A6F5-B8203AF6C77E";
shapes = (
{
closed = 1;
nodes = (
(167,745,l),
(118,442,l),
(816,442,l),
(865,745,l)
);
}
);
width = 972;
},
{
guides = (
{
orientation = center;
pos = (1102,878);
}
);
layerId = "B1F27B51-9973-4381-9301-4FE46FE1CA59";
shapes = (
{
closed = 1;
nodes = (
(172,662,l),
(172,615,l),
(727,615,l),
(727,662,l)
);
}
);
width = 899;
},
{
guides = (
{
orientation = center;
pos = (1102,878);
}
);
layerId = "200BE2C5-40F6-4CF4-AF4F-A33C0CC0964F";
shapes = (
{
closed = 1;
nodes = (
(189,662,l),
(180,615,l),
(736,615,l),
(745,662,l)
);
}
);
width = 899;
},
{
associatedMasterId = "C698F293-3EC0-4A5A-A3A0-0FDB1F5CF265";
background = {
shapes = (
{
ref = x;
}
);
};
guides = (
{
orientation = center;
pos = (1104,816);
}
);
layerId = "63B5BFA6-C9AA-4ED3-8B09-961D912F95E3";
name = low;
shapes = (
{
closed = 1;
nodes = (
(145,673,l),
(145,513,l),
(797,513,l),
(797,673,l)
);
}
);
width = 943;
},
{
associatedMasterId = "11F4534A-B963-4AB5-820F-DAF9A20CD933";
guides = (
{
orientation = center;
pos = (1104,816);
}
);
layerId = "FA942A48-6198-45E0-B3DC-94AD50B28E82";
name = low;
shapes = (
{
closed = 1;
nodes = (
(164,673,l),
(138,513,l),
(790,513,l),
(816,673,l)
);
}
);
width = 943;
},
{
associatedMasterId = "B1F27B51-9973-4381-9301-4FE46FE1CA59";
background = {
shapes = (
{
ref = x;
}
);
};
guides = (
{
orientation = center;
pos = (1104,816);
}
);
layerId = "2A4AC893-944D-4CBF-BBBB-D9B421CC4A22";
name = low;
shapes = (
{
closed = 1;
nodes = (
(172,617,l),
(172,570,l),
(727,570,l),
(727,617,l)
);
}
);
width = 899;
},
{
associatedMasterId = "200BE2C5-40F6-4CF4-AF4F-A33C0CC0964F";
guides = (
{
orientation = center;
pos = (1104,816);
}
);
layerId = "628641A3-A77A-48BD-AD1C-A1A5E33F57F0";
name = low;
shapes = (
{
closed = 1;
nodes = (
(182,617,l),
(173,570,l),
(729,570,l),
(737,617,l)
);
}
);
width = 899;
}
);
unicode = 45;
userData = {
"interface.width-adjustments" = (
-16
);
};
}
{
glyphname = period;
kernLeft = comma;
kernRight = comma;
layers = (
{
layerId = "C698F293-3EC0-4A5A-A3A0-0FDB1F5CF265";
shapes = (
{
closed = 1;
nodes = (
(354,-12,o),
(413,47,o),
(413,119,cs),
(413,191,o),
(354,250,o),
(282,250,cs),
(210,250,o),
(151,191,o),
(151,119,cs),
(151,47,o),
(210,-12,o),
(282,-12,cs)
);
}
);
width = 564;
},
{
guides = (
{
pos = (16,1240);
},
{
pos = (16,764);
}
);
layerId = "5C20EF92-B63D-42A8-8878-93C2863E0093";
shapes = (
{
closed = 1;
nodes = (
(427,-23,o),
(522,67,o),
(524,180,cs),
(522,291,o),
(427,381,o),
(320,381,cs),
(207,381,o),
(115,291,o),
(116,180,cs),
(115,67,o),
(207,-23,o),
(320,-23,cs)
);
}
);
width = 640;
},
{
layerId = "11F4534A-B963-4AB5-820F-DAF9A20CD933";
shapes = (
{
closed = 1;
nodes = (
(281,-12,o),
(339,47,o),
(340,119,cs),
(342,189,o),
(281,247,o),
(209,247,cs),
(138,247,o),
(77,192,o),
(79,119,cs),
(80,47,o),
(135,-12,o),
(209,-12,cs)
);
}
);
width = 564;
},
{
guides = (
{
pos = (564,1240);
},
{
pos = (12,764);
}
);
layerId = "D0EC06BF-13F9-4C88-A6F5-B8203AF6C77E";
shapes = (
{
closed = 1;
nodes = (
(340,-23,o),
(448,67,o),
(460,180,cs),
(471,291,o),
(387,381,o),
(279,381,cs),
(166,381,o),
(64,291,o),
(52,180,cs),
(41,67,o),
(122,-23,o),
(236,-23,cs)
);
}
);
width = 640;
},
{
layerId = "B1F27B51-9973-4381-9301-4FE46FE1CA59";
shapes = (
{
closed = 1;
nodes = (
(288,-9,o),
(311,15,o),
(311,44,cs),
(311,73,o),
(288,96,o),
(259,96,cs),
(230,96,o),
(207,73,o),
(207,44,cs),
(207,15,o),
(230,-9,o),
(259,-9,cs)
);
}
);
width = 518;
},
{
layerId = "200BE2C5-40F6-4CF4-AF4F-A33C0CC0964F";
shapes = (
{
closed = 1;
nodes = (
(198,-9,o),
(224,15,o),
(227,44,cs),
(230,73,o),
(209,96,o),
(180,96,cs),
(151,96,o),
(125,73,o),
(122,44,cs),
(119,15,o),
(140,-9,o),
(169,-9,cs)
);
}
);
width = 518;
}
);
unicode = 46;
userData = {
"interface.width-adjustments" = (
-16
);
};
}
{
color = 10;
glyphname = one;
kernLeft = one;
kernRight = one;
layers = (
{
layerId = "C698F293-3EC0-4A5A-A3A0-0FDB1F5CF265";
shapes = (
{
closed = 1;
nodes = (
(497,1489,l),
(125,1242,l),
(125,1059,l),
(489,1300,l),
(497,1300,l),
(497,0,l),
(678,0,l),
(678,1489,l)
);
}
);
width = 951;
},
{
guides = (
{
pos = (56,1240);
},
{
pos = (56,764);
}
);
layerId = "5C20EF92-B63D-42A8-8878-93C2863E0093";
shapes = (
{
closed = 1;
nodes = (
(457,1489,l),
(90,1265,l),
(90,922,l),
(416,1117,l),
(425,1117,l),
(425,0,l),
(829,0,l),
(829,1489,l)
);
}
);
width = 1036;
},
{
layerId = "11F4534A-B963-4AB5-820F-DAF9A20CD933";
shapes = (
{
closed = 1;
nodes = (
(652,1489,l),
(239,1242,l),
(207,1059,l),
(611,1300,l),
(620,1300,l),
(404,0,l),
(585,0,l),
(832,1489,l)
);
}
);
width = 951;
},
{
guides = (
{
pos = (484,1240);
},
{
pos = (16,764);
}
);
layerId = "D0EC06BF-13F9-4C88-A6F5-B8203AF6C77E";
shapes = (
{
closed = 1;
nodes = (
(611,1489,l),
(207,1265,l),
(151,922,l),
(509,1117,l),
(518,1117,l),
(332,0,l),
(736,0,l),
(983,1489,l)
);
}
);
width = 1036;
},
{
layerId = "B1F27B51-9973-4381-9301-4FE46FE1CA59";
shapes = (
{
closed = 1;
nodes = (
(457,1489,l),
(145,1283,l),
(145,1228,l),
(465,1440,l),
(474,1440,l),
(474,0,l),
(521,0,l),
(521,1489,l)
);
}
);
width = 835;
},
{
layerId = "200BE2C5-40F6-4CF4-AF4F-A33C0CC0964F";
shapes = (
{
closed = 1;
nodes = (
(611,1489,l),
(265,1283,l),
(256,1228,l),
(611,1440,l),
(620,1440,l),
(381,0,l),
(428,0,l),
(675,1489,l)
);
}
);
width = 835;
}
);
unicode = 49;
}
{
color = (227,245,235,1);
glyphname = two;
kernLeft = two;
kernRight = two;
layers = (
{
anchors = (
{
name = cross;
pos = (839,768);
}
);
background = {
shapes = (
{
pos = (12,0);
ref = three;
}
);
};
layerId = "C698F293-3EC0-4A5A-A3A0-0FDB1F5CF265";
shapes = (
{
closed = 1;
nodes = (
(1094,0,l),
(1094,160,l),
(401,160,l),
(401,172,l),
(736,529,ls),
(992,804,o),
(1068,932,o),
(1068,1097,cs),
(1068,1327,o),
(881,1510,o),
(620,1510,cs),
(359,1510,o),
(160,1332,o),
(160,1071,c),
(332,1071,l),
(332,1240,o),
(441,1353,o),
(614,1353,cs),
(775,1353,o),
(899,1254,o),
(899,1097,cs),
(899,959,o),
(818,857,o),
(646,669,cs),
(154,131,l),
(154,0,l)
);
}
);
width = 1239;
},
{
anchors = (
{
name = cross;
pos = (896,817);
}
);
guides = (
{
pos = (-16,2280);
},
{
pos = (-16,764);
}
);
layerId = "5C20EF92-B63D-42A8-8878-93C2863E0093";
shapes = (
{
closed = 1;
nodes = (
(1242,0,l),
(1242,323,l),
(660,323,l),
(660,332,l),
(800,448,ls),
(1140,731,o),
(1226,878,o),
(1226,1050,cs),
(1226,1328,o),
(999,1510,o),
(641,1510,cs),
(295,1510,o),
(69,1317,o),
(70,1004,c),
(454,1004,l),
(453,1129,o),
(529,1199,o),
(641,1199,cs),
(753,1199,o),
(832,1129,o),
(832,1015,cs),
(832,910,o),
(764,841,o),
(655,751,cs),
(99,291,l),
(99,0,l)
);
}
);
width = 1324;
},
{
anchors = (
{
name = cross;
pos = (863,768);
}
);
layerId = "11F4534A-B963-4AB5-820F-DAF9A20CD933";
shapes = (
{
closed = 1;
nodes = (
(1001,0,l),
(1027,160,l),
(335,160,l),
(337,172,l),
(730,529,ls),
(1031,804,o),
(1129,931,o),
(1158,1097,cs),
(1196,1327,o),
(1044,1510,o),
(783,1510,cs),
(521,1510,o),
(288,1332,o),
(244,1071,c),
(416,1071,l),
(445,1239,o),
(579,1353,o),
(751,1353,cs),
(913,1353,o),
(1015,1254,o),
(989,1097,cs),
(966,960,o),
(867,858,o),
(663,669,cs),
(84,131,l),
(61,0,l)
);
}
);
width = 1239;
},
{
anchors = (
{
name = cross;
pos = (940,817);
}
);
guides = (
{
pos = (2680,2280);
},
{
pos = (-78,764);
}
);
layerId = "D0EC06BF-13F9-4C88-A6F5-B8203AF6C77E";
shapes = (
{
closed = 1;
nodes = (
(1149,0,l),
(1203,323,l),
(621,323,l),
(623,332,l),
(781,448,ls),
(1168,732,o),
(1279,879,o),
(1308,1050,cs),
(1355,1328,o),
(1156,1510,o),
(799,1510,cs),
(452,1510,o),
(195,1318,o),
(143,1004,c),
(527,1004,l),
(547,1129,o),
(636,1199,o),
(748,1199,cs),
(858,1199,o),
(927,1130,o),
(908,1015,cs),
(890,911,o),
(812,841,o),
(687,751,cs),
(54,291,l),
(6,0,l)
);
}
);
width = 1324;
},
{
anchors = (
{
name = cross;
pos = (815,745);
}
);
layerId = "B1F27B51-9973-4381-9301-4FE46FE1CA59";
shapes = (
{
closed = 1;
nodes = (
(1088,0,l),
(1088,47,l),
(262,47,l),
(262,52,l),
(701,573,ls),
(930,844,o),
(1001,961,o),
(1001,1126,cs),
(1001,1347,o),
(835,1510,o),
(611,1510,cs),
(378,1510,o),
(215,1333,o),
(215,1117,c),
(262,1117,l),
(262,1307,o),
(404,1463,o),
(611,1463,cs),
(809,1463,o),
(954,1321,o),
(954,1126,cs),
(954,977,o),
(890,867,o),
(666,602,cs),
(189,38,l),
(189,0,l)
);
}
);
width = 1271;
},
{
anchors = (
{
name = cross;
pos = (847,745);
}
);
layerId = "200BE2C5-40F6-4CF4-AF4F-A33C0CC0964F";
shapes = (
{
closed = 1;
nodes = (
(995,0,l),
(1004,47,l),
(177,47,l),
(177,52,l),
(704,573,ls),
(977,844,o),
(1068,960,o),
(1094,1126,cs),
(1132,1347,o),
(992,1510,o),
(768,1510,cs),
(535,1510,o),
(343,1332,o),
(308,1117,c),
(355,1117,l),
(387,1306,o),
(561,1463,o),
(768,1463,cs),
(966,1463,o),
(1079,1321,o),
(1047,1126,cs),
(1024,977,o),
(943,867,o),
(672,602,cs),
(102,38,l),
(96,0,l)
);
}
);
width = 1271;
},
{
anchors = (
{
name = cross;
pos = (806,739);
}
);
associatedMasterId = "B1F27B51-9973-4381-9301-4FE46FE1CA59";
background = {
shapes = (
{
closed = 1;
nodes = (
(1094,0,l),
(1094,160,l),
(401,160,l),
(401,172,l),
(736,529,ls),
(992,804,o),
(1068,932,o),
(1068,1097,cs),
(1068,1327,o),
(881,1510,o),
(620,1510,cs),
(359,1510,o),
(160,1332,o),
(160,1071,c),
(332,1071,l),
(332,1240,o),
(441,1353,o),
(614,1353,cs),
(775,1353,o),
(899,1254,o),
(899,1097,cs),
(899,959,o),
(818,857,o),
(646,669,cs),
(154,131,l),
(154,0,l)
);
}
);
};
layerId = "B7995463-B533-426C-8A81-27353796E349";
name = "Dec 25 18, 17:25";
shapes = (
{
closed = 0;
nodes = (
(244,1097,l),
(245,1329,o),
(399,1486,o),
(617,1487,c),
(828,1486,o),
(983,1333,o),
(983,1126,c),
(983,960,o),
(904,836,o),
(689,588,c),
(212,23,l),
(1094,23,l)
);
}
);
width = 1171;
}
);
unicode = 50;
}
{
color = (227,245,235,1);
glyphname = three;
kernLeft = three;
kernRight = eight;
layers = (
{
background = {
shapes = (
{
pos = (32,0);
ref = eight;
}
);
};
layerId = "C698F293-3EC0-4A5A-A3A0-0FDB1F5CF265";
shapes = (
{
closed = 1;
nodes = (
(946,-20,o),
(1161,161,o),
(1161,404,cs),
(1161,593,o),
(1049,731,o),
(861,762,c),
(861,774,l),
(1012,820,o),
(1105,943,o),
(1105,1111,cs),
(1105,1322,o),
(939,1510,o),
(663,1510,cs),
(406,1510,o),
(192,1351,o),
(183,1117,c),
(358,1117,l),
(364,1265,o),
(505,1353,o),
(660,1353,cs),
(825,1353,o),
(931,1253,o),
(931,1103,cs),
(931,945,o),
(808,844,o),
(631,844,cs),
(512,844,l),
(512,684,l),
(631,684,ls),
(857,684,o),
(983,569,o),
(983,404,cs),
(983,247,o),
(846,140,o),
(655,140,cs),
(482,140,o),
(345,228,o),
(335,372,c),
(151,372,l),
(162,138,o),
(369,-20,o),
(657,-20,cs)
);
}
);
width = 1303;
},
{
guides = (
{
pos = (332,1436);
},
{
pos = (720,1056);
},
{
pos = (332,624);
}
);
layerId = "5C20EF92-B63D-42A8-8878-93C2863E0093";
shapes = (
{
closed = 1;
nodes = (
(1045,-20,o),
(1302,165,o),
(1300,428,cs),
(1302,610,o),
(1180,739,o),
(940,765,c),
(940,777,l),
(1117,796,o),
(1247,910,o),
(1245,1076,cs),
(1247,1327,o),
(1014,1510,o),
(684,1510,cs),
(346,1510,o),
(106,1317,o),
(105,1044,c),
(492,1044,l),
(493,1135,o),
(572,1199,o),
(684,1199,cs),
(785,1199,o),
(857,1137,o),
(855,1050,cs),
(857,960,o),
(772,896,o),
(652,896,cs),
(500,896,l),
(500,617,l),
(652,617,ls),
(783,617,o),
(874,553,o),
(873,463,cs),
(874,370,o),
(796,305,o),
(684,305,cs),
(567,305,o),
(484,367,o),
(483,454,c),
(76,454,l),
(77,176,o),
(328,-20,o),
(681,-20,cs)
);
}
);
width = 1382;
},
{
layerId = "11F4534A-B963-4AB5-820F-DAF9A20CD933";
shapes = (
{
closed = 1;
nodes = (
(863,-20,o),
(1090,139,o),
(1132,393,cs),
(1163,581,o),
(1076,730,o),
(893,762,c),
(893,771,l),
(1049,818,o),
(1167,936,o),
(1193,1100,cs),
(1228,1315,o),
(1089,1510,o),
(809,1510,cs),
(556,1510,o),
(321,1350,o),
(276,1117,c),
(451,1117,l),
(479,1265,o),
(642,1353,o),
(800,1353,cs),
(964,1353,o),
(1045,1257,o),
(1021,1114,cs),
(994,950,o),
(849,844,o),
(672,844,cs),
(559,844,l),
(532,684,l),
(655,684,ls),
(882,684,o),
(980,571,o),
(957,416,cs),
(931,242,o),
(761,140,o),
(573,140,cs),
(397,140,o),
(289,230,o),
(303,372,c),
(122,372,l),
(92,137,o),
(279,-20,o),
(570,-20,cs)
);
}
);
width = 1303;
},
{
guides = (
{
pos = (984,2280);
},
{
pos = (-16,764);
}
);
layerId = "D0EC06BF-13F9-4C88-A6F5-B8203AF6C77E";
shapes = (
{
closed = 1;
nodes = (
(957,-20,o),
(1237,163,o),
(1277,407,cs),
(1308,598,o),
(1180,740,o),
(969,765,c),
(969,777,l),
(1162,793,o),
(1300,881,o),
(1329,1056,cs),
(1369,1300,o),
(1169,1510,o),
(829,1510,cs),
(503,1510,o),
(234,1317,o),
(189,1044,c),
(573,1044,l),
(586,1135,o),
(697,1199,o),
(809,1199,cs),
(911,1199,o),
(956,1148,o),
(943,1071,cs),
(926,970,o),
(825,896,o),
(701,896,cs),
(559,896,l),
(512,617,l),
(672,617,ls),
(795,617,o),
(879,575,o),
(864,483,cs),
(849,393,o),
(753,305,o),
(628,305,cs),
(523,305,o),
(449,367,o),
(465,454,c),
(64,454,l),
(16,176,o),
(241,-20,o),
(605,-20,cs)
);
}
);
width = 1382;
},
{
associatedMasterId = "C698F293-3EC0-4A5A-A3A0-0FDB1F5CF265";
layerId = "AF98C4F5-295E-4E97-8B96-A27C316CE04C";
name = "Sep 23 18, 16:20";
shapes = (
{
closed = 1;
nodes = (
(884,-20,o),
(1085,152,o),
(1085,396,cs),
(1085,567,o),
(966,698,o),
(800,753,c),
(800,765,l),
(951,811,o),
(1053,942,o),
(1053,1105,cs),
(1053,1343,o),
(870,1510,o),
(605,1510,cs),
(348,1510,o),
(166,1351,o),
(166,1117,c),
(340,1117,l),
(340,1265,o),
(447,1353,o),
(602,1353,cs),
(764,1353,o),
(879,1257,o),
(879,1103,cs),
(879,945,o),
(761,838,o),
(585,838,cs),
(500,838,l),
(500,672,l),
(585,672,ls),
(767,672,o),
(908,560,o),
(908,396,cs),
(908,238,o),
(775,140,o),
(605,140,cs),
(446,140,o),
(337,226,o),
(337,372,c),
(151,372,l),
(151,134,o),
(330,-20,o),
(599,-20,cs)
);
}
);
width = 1228;
},
{
associatedMasterId = "11F4534A-B963-4AB5-820F-DAF9A20CD933";
layerId = "13E57C55-4418-4EA5-AB4C-FFA60C92562E";
name = "Sep 23 18, 16:27";
shapes = (
{
closed = 1;
nodes = (
(791,-20,o),
(1012,132,o),
(1056,384,cs),
(1084,558,o),
(996,695,o),
(826,751,c),
(829,762,l),
(993,809,o),
(1112,937,o),
(1140,1094,cs),
(1180,1333,o),
(1020,1510,o),
(751,1510,cs),
(498,1510,o),
(295,1354,o),
(259,1117,c),
(431,1117,l),
(455,1268,o),
(586,1361,o),
(748,1359,cs),
(903,1356,o),
(993,1264,o),
(969,1114,cs),
(945,951,o),
(801,838,o),
(625,838,cs),
(544,838,l),
(518,672,l),
(608,672,ls),
(816,672,o),
(910,573,o),
(884,410,cs),
(855,243,o),
(724,143,o),
(541,143,cs),
(361,143,o),
(280,238,o),
(300,372,c),
(122,372,l),
(81,143,o),
(248,-20,o),
(524,-20,cs)
);
}
);
width = 1225;
},
{
layerId = "B1F27B51-9973-4381-9301-4FE46FE1CA59";
shapes = (
{
closed = 1;
nodes = (
(895,-20,o),
(1076,158,o),
(1076,387,cs),
(1076,576,o),
(951,719,o),
(756,768,c),
(756,774,l),
(925,822,o),
(1033,954,o),
(1033,1129,cs),
(1033,1347,o),
(865,1510,o),
(631,1510,cs),
(397,1510,o),
(227,1347,o),
(227,1117,c),
(273,1117,l),
(273,1321,o),
(423,1463,o),
(631,1463,cs),
(841,1463,o),
(986,1320,o),
(986,1129,cs),
(986,922,o),
(814,791,o),
(591,791,cs),
(567,791,l),
(567,745,l),
(591,745,ls),
(845,745,o),
(1030,601,o),
(1030,387,cs),
(1030,188,o),
(871,26,o),
(634,26,cs),
(411,26,o),
(239,172,o),
(239,372,c),
(192,372,l),
(192,145,o),
(383,-20,o),
(634,-20,cs)
);
}
);
width = 1257;
},
{
layerId = "200BE2C5-40F6-4CF4-AF4F-A33C0CC0964F";
shapes = (
{
closed = 1;
nodes = (
(800,-20,o),
(1009,157,o),
(1047,387,cs),
(1079,576,o),
(977,719,o),
(791,768,c),
(791,774,l),
(969,823,o),
(1100,954,o),
(1126,1129,cs),
(1164,1347,o),
(1024,1510,o),
(788,1510,cs),
(556,1510,o),
(358,1347,o),
(320,1117,c),
(367,1117,l),
(399,1321,o),
(585,1463,o),
(791,1463,cs),
(1004,1463,o),
(1111,1321,o),
(1079,1129,cs),
(1047,922,o),
(852,791,o),
(628,791,cs),
(605,791,l),
(599,745,l),
(623,745,ls),
(876,745,o),
(1036,602,o),
(1001,387,cs),
(969,189,o),
(774,26,o),
(538,26,cs),
(314,26,o),
(175,172,o),
(207,372,c),
(160,372,l),
(122,145,o),
(288,-20,o),
(538,-20,cs)
);
}
);
width = 1257;
},
{
associatedMasterId = "B1F27B51-9973-4381-9301-4FE46FE1CA59";
background = {
shapes = (
{
closed = 1;
nodes = (
(946,-20,o),
(1161,161,o),
(1161,404,cs),
(1161,593,o),
(1049,731,o),
(861,762,c),
(861,774,l),
(1012,820,o),
(1105,943,o),
(1105,1111,cs),
(1105,1322,o),
(939,1510,o),
(663,1510,cs),
(406,1510,o),
(192,1351,o),
(183,1117,c),
(358,1117,l),
(364,1265,o),
(505,1353,o),
(660,1353,cs),
(825,1353,o),
(931,1253,o),
(931,1103,cs),
(931,945,o),
(808,844,o),
(631,844,cs),
(512,844,l),
(512,684,l),
(631,684,ls),
(857,684,o),
(983,569,o),
(983,404,cs),
(983,247,o),
(846,140,o),
(655,140,cs),
(482,140,o),
(345,228,o),
(335,372,c),
(151,372,l),
(162,138,o),
(369,-20,o),
(657,-20,cs)
);
}
);
};
layerId = "28ACB353-9A8E-4DD7-BCA4-EE6AE891814C";
name = "Dec 25 18, 17:44";
shapes = (
{
closed = 0;
nodes = (
(207,372,l),
(207,156,o),
(383,3,o),
(625,3,cs),
(873,3,o),
(1044,172,o),
(1044,387,cs),
(1044,620,o),
(841,768,o),
(559,768,c),
(817,768,o),
(1001,910,o),
(1001,1129,cs),
(1001,1331,o),
(846,1487,o),
(623,1487,cs),
(401,1487,o),
(241,1334,o),
(241,1117,cs)
);
}
);
width = 1256;
}
);
unicode = 51;
}
{
color = (227,245,235,1);
glyphname = four;
kernLeft = four;
kernRight = four;
layers = (
{
layerId = "C698F293-3EC0-4A5A-A3A0-0FDB1F5CF265";
shapes = (
{
closed = 1;
nodes = (
(1196,305,l),
(1196,465,l),
(314,465,l),
(314,477,l),
(809,1260,l),
(881,1260,l),
(881,1489,l),
(774,1489,l),
(119,454,l),
(119,305,l)
);
},
{
closed = 1;
nodes = (
(992,0,l),
(992,1489,l),
(820,1489,l),
(820,420,l),
(820,351,l),
(820,0,l)
);
}
);
width = 1315;
},
{
background = {
shapes = (
{
pos = (-28,0);
ref = A;
}
);
};
guides = (
{
pos = (104,320);
},
{
pos = (104,752);
}
);
layerId = "5C20EF92-B63D-42A8-8878-93C2863E0093";
shapes = (
{
closed = 1;
nodes = (
(1367,233,l),
(1367,547,l),
(483,547,l),
(483,559,l),
(806,1071,l),
(969,1071,l),
(969,1489,l),
(684,1489,l),
(84,547,l),
(84,233,l)
);
},
{
closed = 1;
nodes = (
(1196,0,l),
(1196,1489,l),
(817,1489,l),
(817,465,l),
(809,329,l),
(809,0,l)
);
}
);
width = 1437;
},
{
layerId = "11F4534A-B963-4AB5-820F-DAF9A20CD933";
shapes = (
{
closed = 1;
nodes = (
(1155,305,l),
(1181,465,l),
(300,465,l),
(300,477,l),
(925,1260,l),
(998,1260,l),
(1036,1489,l),
(928,1489,l),
(102,454,l),
(79,305,l)
);
},
{
closed = 1;
nodes = (
(899,0,l),
(1146,1489,l),
(975,1489,l),
(797,419,l),
(785,352,l),
(727,0,l)
);
}
);
width = 1315;
},
{
guides = (
{
pos = (560,1240);
},
{
pos = (164,896);
}
);
layerId = "D0EC06BF-13F9-4C88-A6F5-B8203AF6C77E";
shapes = (
{
closed = 1;
nodes = (
(1312,233,l),
(1364,547,l),
(480,547,l),
(483,559,l),
(890,1071,l),
(1053,1071,l),
(1123,1489,l),
(838,1489,l),
(81,547,l),
(29,233,l)
);
},
{
closed = 1;
nodes = (
(1103,0,l),
(1350,1489,l),
(972,1489,l),
(803,465,l),
(771,329,l),
(716,0,l)
);
}
);
width = 1437;
},
{
layerId = "B1F27B51-9973-4381-9301-4FE46FE1CA59";
shapes = (
{
closed = 1;
nodes = (
(1068,349,l),
(1068,396,l),
(218,396,l),
(218,401,l),
(829,1393,l),
(864,1393,l),
(864,1489,l),
(835,1489,l),
(151,384,l),
(151,349,l)
);
},
{
closed = 1;
nodes = (
(881,0,l),
(881,1489,l),
(835,1489,l),
(835,378,l),
(835,364,l),
(835,0,l)
);
}
);
width = 1219;
},
{
layerId = "200BE2C5-40F6-4CF4-AF4F-A33C0CC0964F";
shapes = (
{
closed = 1;
nodes = (
(1033,349,l),
(1041,396,l),
(192,396,l),
(192,401,l),
(969,1393,l),
(1004,1393,l),
(1018,1489,l),
(989,1489,l),
(122,384,l),
(116,349,l)
);
},
{
closed = 1;
nodes = (
(788,0,l),
(1036,1489,l),
(989,1489,l),
(806,378,l),
(803,364,l),
(742,0,l)
);
}
);
width = 1219;
}
);
unicode = 52;
}
{
color = (227,245,235,1);
glyphname = five;
layers = (
{
background = {
shapes = (
{
ref = three;
}
);
};
guides = (
{
angle = 90;
pos = (1436,1656);
}
);
layerId = "C698F293-3EC0-4A5A-A3A0-0FDB1F5CF265";
shapes = (
{
closed = 1;
nodes = (
(903,-20,o),
(1111,189,o),
(1111,474,cs),
(1111,763,o),
(911,975,o),
(637,975,cs),
(537,975,o),
(439,939,o),
(378,890,c),
(369,890,l),
(422,1329,l),
(1044,1329,l),
(1044,1489,l),
(271,1489,l),
(180,756,l),
(349,736,l),
(411,780,o),
(516,812,o),
(608,812,cs),
(798,810,o),
(937,666,o),
(937,471,cs),
(937,280,o),
(803,140,o),
(620,140,cs),
(467,140,o),
(345,238,o),
(332,372,c),
(157,372,l),
(168,145,o),
(364,-20,o),
(620,-20,cs)
);
}
);
width = 1245;
},
{
background = {
shapes = (
{
pos = (28,0);
ref = three;
}
);
};
guides = (
{
pos = (-52,2280);
},
{
pos = (-52,2396);
},
{
angle = 90;
pos = (264,0);
}
);
layerId = "5C20EF92-B63D-42A8-8878-93C2863E0093";
shapes = (
{
closed = 1;
nodes = (
(1058,-20,o),
(1295,200,o),
(1295,512,cs),
(1295,795,o),
(1097,995,o),
(832,995,cs),
(681,995,o),
(559,928,o),
(512,838,c),
(503,838,l),
(532,1167,l),
(1201,1167,l),
(1201,1489,l),
(201,1489,l),
(143,669,l),
(497,599,l),
(532,672,o),
(609,716,o),
(695,716,cs),
(819,716,o),
(905,631,o),
(905,500,cs),
(905,370,o),
(819,285,o),
(695,285,cs),
(588,285,o),
(500,351,o),
(497,454,c),
(105,454,l),
(107,176,o),
(352,-20,o),
(695,-20,cs)
);
}
);
width = 1370;
},
{
layerId = "11F4534A-B963-4AB5-820F-DAF9A20CD933";
shapes = (
{
closed = 1;
nodes = (
(809,-20,o),
(1050,189,o),
(1097,474,cs),
(1146,762,o),
(980,975,o),
(707,975,cs),
(605,975,o),
(503,940,o),
(433,890,c),
(425,890,l),
(550,1329,l),
(1172,1329,l),
(1199,1489,l),
(425,1489,l),
(212,756,l),
(378,736,l),
(448,780,o),
(559,812,o),
(649,812,cs),
(841,812,o),
(954,666,o),
(922,471,cs),
(890,279,o),
(733,140,o),
(550,140,cs),
(399,140,o),
(291,239,o),
(300,372,c),
(125,372,l),
(99,145,o),
(268,-20,o),
(524,-20,cs)
);
}
);
width = 1245;
},
{
guides = (
{
pos = (2764,2280);
},
{
pos = (2976,2396);
},
{
angle = 90;
pos = (-1068,0);
}
);
layerId = "D0EC06BF-13F9-4C88-A6F5-B8203AF6C77E";
shapes = (
{
closed = 1;
nodes = (
(964,-20,o),
(1237,201,o),
(1286,512,cs),
(1333,794,o),
(1170,995,o),
(905,995,cs),
(754,995,o),
(620,928,o),
(559,838,c),
(550,838,l),
(634,1167,l),
(1303,1167,l),
(1356,1489,l),
(355,1489,l),
(160,669,l),
(503,599,l),
(551,672,o),
(635,716,o),
(721,716,cs),
(844,716,o),
(917,631,o),
(896,500,cs),
(873,369,o),
(775,285,o),
(649,285,cs),
(542,285,o),
(466,352,o),
(480,454,c),
(87,454,l),
(44,177,o),
(257,-20,o),
(599,-20,cs)
);
}
);
width = 1370;
},
{
guides = (
{
angle = 90;
pos = (1344,1656);
}
);
layerId = "B1F27B51-9973-4381-9301-4FE46FE1CA59";
shapes = (
{
closed = 1;
nodes = (
(822,-20,o),
(1005,186,o),
(1007,463,cs),
(1008,751,o),
(801,940,o),
(561,940,cs),
(442,940,o),
(342,895,o),
(268,826,c),
(262,826,l),
(337,1443,l),
(957,1443,l),
(957,1489,l),
(297,1489,l),
(209,785,l),
(279,774,l),
(348,844,o),
(444,893,o),
(561,893,cs),
(775,893,o),
(959,727,o),
(960,463,cs),
(961,215,o),
(799,26,o),
(564,26,cs),
(356,26,o),
(217,169,o),
(218,372,c),
(172,372,l),
(170,143,o),
(333,-20,o),
(564,-20,cs)
);
}
);
width = 1169;
},
{
layerId = "200BE2C5-40F6-4CF4-AF4F-A33C0CC0964F";
shapes = (
{
closed = 1;
nodes = (
(726,-20,o),
(943,186,o),
(992,463,cs),
(1043,750,o),
(865,940,o),
(625,940,cs),
(505,940,o),
(397,896,o),
(311,826,c),
(305,826,l),
(483,1443,l),
(1103,1443,l),
(1111,1489,l),
(451,1489,l),
(247,785,l),
(314,774,l),
(394,844,o),
(508,893,o),
(625,893,cs),
(839,893,o),
(988,727,o),
(945,463,cs),
(906,217,o),
(700,26,o),
(468,26,cs),
(260,26,o),
(153,169,o),
(186,372,c),
(140,372,l),
(100,143,o),
(237,-20,o),
(468,-20,cs)
);
}
);
width = 1169;
},
{
associatedMasterId = "B1F27B51-9973-4381-9301-4FE46FE1CA59";
background = {
shapes = (
{
ref = three;
}
);
};
layerId = "09E68E1A-3F35-4777-BBE6-FD6C89765C56";
name = "Dec 27 18, 11:55";
shapes = (
{
closed = 0;
nodes = (
(207,317,l),
(220,136,o),
(378,4,o),
(582,3,c),
(816,4,o),
(987,179,o),
(986,416,c),
(987,659,o),
(817,837,o),
(585,838,c),
(489,838,o),
(388,804,o),
(326,756,c),
(239,768,l),
(308,1466,l),
(1007,1466,l)
);
}
);
width = 1170;
},
{
associatedMasterId = "B1F27B51-9973-4381-9301-4FE46FE1CA59";
background = {
shapes = (
{
ref = three;
}
);
};
layerId = "838CDDB9-573F-41EC-B215-16E0F2F00A69";
name = "Dec 27 18, 11:59";
shapes = (
{
closed = 1;
nodes = (
(297,1489,l),
(210,748,l),
(323,733,l),
(329,780,l),
(261,788,l),
(337,1443,l),
(1007,1443,l),
(1007,1489,l)
);
},
{
closed = 0;
nodes = (
(215,372,l),
(215,186,o),
(367,3,o),
(585,3,cs),
(812,3,o),
(1004,200,o),
(1004,445,cs),
(1004,689,o),
(816,887,o),
(582,887,cs),
(465,887,o),
(360,839,o),
(282,759,c)
);
}
);
width = 1169;
},
{
associatedMasterId = "B1F27B51-9973-4381-9301-4FE46FE1CA59";
background = {
shapes = (
{
ref = three;
}
);
};
guides = (
{
angle = 90;
pos = (1344,1656);
}
);
layerId = "5BB78558-3F9F-4EEB-9ED3-3B587D72683E";
name = "Dec 27 18, 12:06";
shapes = (
{
closed = 1;
nodes = (
(314,1489,l),
(227,785,l),
(300,774,l),
(291,820,l),
(279,826,l),
(355,1443,l),
(977,1443,l),
(977,1489,l)
);
},
{
closed = 1;
nodes = (
(369,844,o),
(466,893,o),
(582,893,cs),
(796,893,o),
(980,727,o),
(980,463,cs),
(980,214,o),
(820,26,o),
(585,26,cs),
(379,26,o),
(239,169,o),
(239,372,c),
(192,372,l),
(192,143,o),
(353,-20,o),
(585,-20,cs),
(842,-20,o),
(1027,187,o),
(1027,463,cs),
(1027,749,o),
(822,940,o),
(582,940,cs),
(452,940,o),
(341,884,o),
(265,806,c),
(300,774,l)
);
}
);
width = 1169;
}
);
unicode = 53;
}
{
color = (227,245,235,1);
glyphname = six;
kernLeft = six;
layers = (
{
background = {
shapes = (
{
pos = (48,0);
ref = five;
}
);
};
layerId = "C698F293-3EC0-4A5A-A3A0-0FDB1F5CF265";
shapes = (
{
closed = 1;
nodes = (
(950,-24,o),
(1146,203,o),
(1146,480,cs),
(1146,768,o),
(933,975,o),
(678,975,cs),
(524,975,o),
(393,900,o),
(311,777,c),
(300,777,l),
(300,1140,o),
(441,1350,o),
(672,1350,cs),
(829,1350,o),
(924,1251,o),
(957,1117,c),
(1135,1117,l),
(1098,1348,o),
(922,1510,o),
(672,1510,cs),
(337,1510,o),
(131,1213,o),
(131,687,cs),
(131,136,o),
(404,-17,o),
(649,-20,cs)
);
},
{
closed = 1;
nodes = (
(462,140,o),
(325,299,o),
(326,477,cs),
(327,655,o),
(470,815,o),
(655,815,cs),
(837,815,o),
(972,665,o),
(972,480,cs),
(972,291,o),
(831,140,o),
(649,140,cs)
);
}
);
width = 1277;
},
{
background = {
shapes = (
{
pos = (44,0);
ref = five;
}
);
};
guides = (
{
orientation = center;
pos = (1496,1368);
},
{
angle = 90;
pos = (1640,1316);
},
{
angle = 90;
pos = (116,1316);
},
{
pos = (316,1436);
},
{
angle = 90;
pos = (996,576);
}
);
layerId = "5C20EF92-B63D-42A8-8878-93C2863E0093";
shapes = (
{
closed = 1;
nodes = (
(1073,-20,o),
(1319,191,o),
(1318,512,cs),
(1319,785,o),
(1137,983,o),
(867,983,cs),
(697,983,o),
(543,902,o),
(486,765,c),
(477,765,l),
(479,1006,o),
(554,1167,o),
(724,1167,cs),
(809,1167,o),
(884,1129,o),
(902,1044,c),
(1300,1044,l),
(1275,1299,o),
(1053,1510,o),
(724,1510,cs),
(334,1510,o),
(77,1210,o),
(76,727,cs),
(74,186,o),
(374,-20,o),
(721,-20,cs)
);
},
{
closed = 1;
nodes = (
(601,285,o),
(513,375,o),
(512,497,cs),
(513,620,o),
(601,710,o),
(719,710,cs),
(839,710,o),
(927,620,o),
(925,497,cs),
(927,375,o),
(839,285,o),
(719,285,cs)
);
}
);
width = 1402;
},
{
layerId = "11F4534A-B963-4AB5-820F-DAF9A20CD933";
shapes = (
{
closed = 1;
nodes = (
(860,-23,o),
(1085,198,o),
(1132,468,cs),
(1181,762,o),
(998,975,o),
(736,975,cs),
(585,975,o),
(448,905,o),
(346,783,c),
(335,771,l),
(399,1149,o),
(584,1350,o),
(815,1350,cs),
(973,1350,o),
(1048,1253,o),
(1053,1117,c),
(1225,1117,l),
(1228,1350,o),
(1067,1510,o),
(820,1510,cs),
(489,1510,o),
(241,1219,o),
(154,698,cs),
(61,143,o),
(314,-18,o),
(564,-20,cs)
);
},
{
closed = 1;
nodes = (
(387,140,o),
(282,294,o),
(311,465,cs),
(340,649,o),
(518,815,o),
(707,815,cs),
(884,815,o),
(989,669,o),
(960,492,cs),
(928,297,o),
(756,140,o),
(570,140,cs)
);
}
);
width = 1277;
},
{
guides = (
{
pos = (320,1240);
},
{
pos = (-124,568);
}
);
layerId = "D0EC06BF-13F9-4C88-A6F5-B8203AF6C77E";
shapes = (
{
closed = 1;
nodes = (
(985,-20,o),
(1255,180,o),
(1306,492,cs),
(1354,774,o),
(1200,983,o),
(922,983,cs),
(758,983,o),
(598,911,o),
(518,774,c),
(506,753,l),
(551,995,o),
(665,1167,o),
(841,1167,cs),
(920,1167,o),
(986,1134,o),
(986,1047,c),
(1379,1047,l),
(1395,1303,o),
(1199,1510,o),
(867,1510,cs),
(484,1510,o),
(188,1222,o),
(108,748,cs),
(15,198,o),
(287,-20,o),
(643,-20,cs)
);
},
{
closed = 1;
nodes = (
(546,285,o),
(481,359,o),
(497,477,cs),
(519,612,o),
(633,710,o),
(759,710,cs),
(873,710,o),
(937,631,o),
(919,518,cs),
(902,384,o),
(787,285,o),
(657,285,cs)
);
}
);
width = 1402;
},
{
layerId = "B1F27B51-9973-4381-9301-4FE46FE1CA59";
shapes = (
{
closed = 1;
nodes = (
(858,-20,o),
(1027,198,o),
(1027,445,cs),
(1027,710,o),
(833,911,o),
(599,911,cs),
(427,911,o),
(265,803,o),
(218,655,c),
(212,655,l),
(212,1177,o),
(351,1463,o),
(623,1463,cs),
(818,1463,o),
(940,1321,o),
(954,1117,c),
(1001,1117,l),
(986,1350,o),
(844,1510,o),
(623,1510,cs),
(264,1510,o),
(166,1076,o),
(166,675,cs),
(166,207,o),
(355,-20,o),
(608,-20,cs)
);
},
{
closed = 1;
nodes = (
(424,26,o),
(285,163,o),
(236,425,cs),
(192,658,o),
(369,864,o),
(596,864,cs),
(812,864,o),
(980,681,o),
(980,445,cs),
(980,215,o),
(823,26,o),
(608,26,cs)
);
}
);
width = 1193;
},
{
layerId = "200BE2C5-40F6-4CF4-AF4F-A33C0CC0964F";
shapes = (
{
closed = 1;
nodes = (
(762,-20,o),
(966,198,o),
(1009,445,cs),
(1053,710,o),
(893,911,o),
(657,911,cs),
(486,911,o),
(305,803,o),
(233,655,c),
(227,655,l),
(314,1178,o),
(509,1463,o),
(783,1463,cs),
(977,1463,o),
(1065,1321,o),
(1047,1117,c),
(1094,1117,l),
(1117,1350,o),
(1001,1510,o),
(780,1510,cs),
(419,1510,o),
(250,1076,o),
(186,675,cs),
(108,207,o),
(259,-20,o),
(512,-20,cs)
);
},
{
closed = 1;
nodes = (
(326,26,o),
(218,163,o),
(212,425,cs),
(209,657,o),
(428,864,o),
(655,864,cs),
(870,864,o),
(1001,681,o),
(963,445,cs),
(922,215,o),
(727,26,o),
(512,26,cs)
);
}
);
width = 1193;
},
{
associatedMasterId = "B1F27B51-9973-4381-9301-4FE46FE1CA59";
background = {
shapes = (
{
closed = 1;
nodes = (
(823,745,o),
(1007,911,o),
(1007,1117,cs),
(1007,1323,o),
(823,1489,o),
(596,1489,cs),
(370,1489,o),
(186,1323,o),
(186,1117,cs),
(186,911,o),
(370,745,o),
(596,745,cs)
);
},
{
closed = 1;
nodes = (
(821,3,o),
(1004,201,o),
(1004,445,cs),
(1004,689,o),
(821,887,o),
(596,887,cs),
(372,887,o),
(189,689,o),
(189,445,cs),
(189,201,o),
(372,3,o),
(596,3,cs)
);
}
);
};
layerId = "9E406D40-9CB5-4845-B6DF-1B5201BAD6B0";
name = "Dec 27 18, 12:24";
shapes = (
{
closed = 0;
nodes = (
(189,445,l),
(189,690,o),
(372,887,o),
(596,887,cs),
(820,887,o),
(1004,689,o),
(1004,445,cs),
(1004,201,o),
(822,3,o),
(608,3,cs),
(391,3,o),
(189,182,o),
(189,675,cs),
(189,1326,o),
(402,1489,o),
(628,1489,cs),
(855,1489,o),
(1007,1324,o),
(1007,1117,c)
);
}
);
width = 1201;
},
{
associatedMasterId = "B1F27B51-9973-4381-9301-4FE46FE1CA59";
layerId = "0A5B7C9A-23F7-43E2-98D1-18F90204FF01";
name = "Dec 27 18, 12:33";
shapes = (
{
closed = 1;
nodes = (
(987,1349,o),
(844,1513,o),
(623,1513,cs),
(260,1513,o),
(166,1076,o),
(166,675,cs),
(166,206,o),
(354,-20,o),
(608,-20,cs),
(857,-20,o),
(1027,197,o),
(1027,445,cs),
(1027,708,o),
(836,911,o),
(596,911,cs),
(343,911,o),
(155,684,o),
(189,416,c),
(236,416,l),
(201,658,o),
(369,864,o),
(596,864,cs),
(812,864,o),
(980,681,o),
(980,445,cs),
(980,215,o),
(823,26,o),
(608,26,cs),
(368,26,o),
(212,255,o),
(212,675,cs),
(212,1025,o),
(284,1466,o),
(623,1466,cs),
(817,1466,o),
(940,1321,o),
(954,1117,c),
(1001,1117,l)
);
},
{
closed = 1;
nodes = (
(201,620,l),
(230,620,l),
(230,652,l),
(201,652,l)
);
}
);
width = 1201;
}
);
unicode = 54;
}
{
color = (227,245,235,1);
glyphname = seven;
kernRight = seven;
layers = (
{
layerId = "C698F293-3EC0-4A5A-A3A0-0FDB1F5CF265";
shapes = (
{
closed = 1;
nodes = (
(390,0,l),
(1053,1321,l),
(1053,1489,l),
(99,1489,l),
(99,1329,l),
(867,1329,l),
(867,1318,l),
(201,0,l)
);
}
);
width = 1169;
},
{
background = {
shapes = (
{
closed = 1;
nodes = (
(358,0,l),
(1021,1321,l),
(1021,1489,l),
(67,1489,l),
(67,1329,l),
(835,1329,l),
(835,1318,l),
(169,0,l)
);
}
);
};
layerId = "5C20EF92-B63D-42A8-8878-93C2863E0093";
shapes = (
{
closed = 1;
nodes = (
(582,0,l),
(1169,1167,l),
(1169,1489,l),
(64,1489,l),
(64,1167,l),
(751,1167,l),
(751,1158,l),
(166,0,l)
);
}
);
width = 1251;
},
{
layerId = "11F4534A-B963-4AB5-820F-DAF9A20CD933";
shapes = (
{
closed = 1;
nodes = (
(297,0,l),
(1178,1321,l),
(1207,1489,l),
(253,1489,l),
(227,1329,l),
(995,1329,l),
(992,1318,l),
(108,0,l)
);
}
);
width = 1169;
},
{
layerId = "D0EC06BF-13F9-4C88-A6F5-B8203AF6C77E";
shapes = (
{
closed = 1;
nodes = (
(489,0,l),
(1271,1167,l),
(1324,1489,l),
(218,1489,l),
(166,1167,l),
(852,1167,l),
(849,1158,l),
(73,0,l)
);
}
);
width = 1251;
},
{
layerId = "B1F27B51-9973-4381-9301-4FE46FE1CA59";
shapes = (
{
closed = 1;
nodes = (
(276,0,l),
(983,1443,l),
(983,1489,l),
(119,1489,l),
(119,1443,l),
(928,1443,l),
(928,1437,l),
(224,0,l)
);
}
);
width = 1121;
},
{
layerId = "200BE2C5-40F6-4CF4-AF4F-A33C0CC0964F";
shapes = (
{
closed = 1;
nodes = (
(183,0,l),
(1129,1443,l),
(1137,1489,l),
(273,1489,l),
(265,1443,l),
(1073,1443,l),
(1073,1437,l),
(131,0,l)
);
}
);
width = 1120;
}
);
unicode = 55;
}
{
color = (227,245,235,1);
glyphname = eight;
kernLeft = eight;
kernRight = eight;
layers = (
{
guides = (
{
orientation = center;
angle = 90;
pos = (924,568);
},
{
angle = 90;
pos = (1168,1148);
},
{
angle = 90;
pos = (568,1148);
}
);
layerId = "C698F293-3EC0-4A5A-A3A0-0FDB1F5CF265";
shapes = (
{
closed = 1;
nodes = (
(929,-20,o),
(1136,153,o),
(1137,396,cs),
(1136,584,o),
(1010,744,o),
(849,774,c),
(849,783,l),
(989,819,o),
(1081,956,o),
(1082,1114,cs),
(1081,1341,o),
(890,1510,o),
(631,1510,cs),
(369,1510,o),
(179,1341,o),
(180,1114,cs),
(179,956,o),
(271,819,o),
(413,783,c),
(413,774,l),
(249,744,o),
(124,584,o),
(125,396,cs),
(124,153,o),
(331,-20,o),
(631,-20,cs)
);
},
{
closed = 1;
nodes = (
(427,140,o),
(301,244,o),
(303,404,cs),
(301,572,o),
(440,692,o),
(631,692,cs),
(820,692,o),
(959,572,o),
(960,404,cs),
(959,244,o),
(833,140,o),
(631,140,cs)
);
},
{
closed = 1;
nodes = (
(468,847,o),
(353,948,o),
(355,1103,cs),
(353,1254,o),
(464,1353,o),
(631,1353,cs),
(796,1353,o),
(906,1254,o),
(908,1103,cs),
(906,948,o),
(791,847,o),
(631,847,cs)
);
}
);
width = 1263;
},
{
guides = (
{
pos = (-24,1480);
},
{
pos = (-24,1060);
},
{
pos = (208,588);
},
{
pos = (-24,2076);
},
{
orientation = center;
angle = 90;
pos = (1008,508);
},
{
angle = 90;
pos = (1356,508);
},
{
angle = 90;
pos = (588,508);
}
);
layerId = "5C20EF92-B63D-42A8-8878-93C2863E0093";
shapes = (
{
closed = 1;
nodes = (
(1068,-20,o),
(1332,163,o),
(1332,404,cs),
(1332,588,o),
(1177,736,o),
(986,765,c),
(986,777,l),
(1153,806,o),
(1277,939,o),
(1277,1105,cs),
(1277,1338,o),
(1036,1510,o),
(707,1510,cs),
(378,1510,o),
(137,1339,o),
(137,1105,cs),
(137,940,o),
(258,806,o),
(428,777,c),
(428,765,l),
(233,736,o),
(81,588,o),
(81,404,cs),
(81,163,o),
(346,-20,o),
(707,-20,cs)
);
},
{
closed = 1;
nodes = (
(593,259,o),
(509,336,o),
(509,439,cs),
(509,543,o),
(593,617,o),
(707,617,cs),
(821,617,o),
(905,542,o),
(905,439,cs),
(905,335,o),
(821,259,o),
(707,259,cs)
);
},
{
closed = 1;
nodes = (
(606,896,o),
(532,966,o),
(532,1059,cs),
(532,1152,o),
(606,1219,o),
(707,1219,cs),
(808,1219,o),
(881,1151,o),
(881,1059,cs),
(881,965,o),
(808,896,o),
(707,896,cs)
);
}
);
width = 1414;
},
{
layerId = "11F4534A-B963-4AB5-820F-DAF9A20CD933";
shapes = (
{
closed = 1;
nodes = (
(837,-20,o),
(1068,146,o),
(1108,384,cs),
(1141,577,o),
(1036,742,o),
(879,774,c),
(879,780,l),
(1021,815,o),
(1144,937,o),
(1172,1103,cs),
(1212,1335,o),
(1041,1510,o),
(777,1510,cs),
(521,1510,o),
(316,1351,o),
(273,1126,cs),
(242,963,o),
(305,817,o),
(442,780,c),
(442,774,l),
(276,745,o),
(129,591,o),
(99,407,cs),
(58,164,o),
(241,-20,o),
(547,-20,cs)
);
},
{
closed = 1;
nodes = (
(356,140,o),
(252,236,o),
(276,393,cs),
(304,567,o),
(468,692,o),
(663,692,cs),
(847,692,o),
(963,582,o),
(937,416,cs),
(911,250,o),
(763,140,o),
(553,140,cs)
);
},
{
closed = 1;
nodes = (
(514,847,o),
(417,938,o),
(442,1091,cs),
(468,1248,o),
(598,1353,o),
(774,1353,cs),
(936,1353,o),
(1028,1265,o),
(1001,1114,cs),
(973,956,o),
(839,847,o),
(669,847,cs)
);
}
);
width = 1263;
},
{
guides = (
{
pos = (440,1240);
},
{
pos = (-28,764);
}
);
layerId = "D0EC06BF-13F9-4C88-A6F5-B8203AF6C77E";
shapes = (
{
closed = 1;
nodes = (
(969,-20,o),
(1263,164,o),
(1303,404,cs),
(1335,589,o),
(1206,736,o),
(1018,765,c),
(1018,777,l),
(1194,806,o),
(1337,939,o),
(1364,1105,cs),
(1401,1337,o),
(1190,1510,o),
(861,1510,cs),
(532,1510,o),
(262,1339,o),
(224,1105,cs),
(198,940,o),
(298,806,o),
(460,777,c),
(460,765,l),
(263,736,o),
(84,587,o),
(52,404,cs),
(11,162,o),
(248,-20,o),
(608,-20,cs)
);
},
{
closed = 1;
nodes = (
(542,259,o),
(468,335,o),
(486,439,cs),
(503,542,o),
(598,617,o),
(713,617,cs),
(828,617,o),
(899,543,o),
(881,439,cs),
(864,337,o),
(769,259,o),
(655,259,cs)
);
},
{
closed = 1;
nodes = (
(657,896,o),
(595,966,o),
(611,1059,cs),
(627,1152,o),
(714,1219,o),
(815,1219,cs),
(915,1219,o),
(976,1153,o),
(960,1059,cs),
(944,967,o),
(861,896,o),
(759,896,cs)
);
}
);
width = 1411;
},
{
associatedMasterId = "5C20EF92-B63D-42A8-8878-93C2863E0093";
background = {
shapes = (
{
closed = 1;
nodes = (
(73,166,o),
(329,-20,o),
(692,-20,cs),
(698,-20,l),
(704,-20,ls),
(1068,-20,o),
(1324,166,o),
(1324,428,cs),
(1324,611,o),
(1201,739,o),
(963,765,c),
(963,777,l),
(1129,794,o),
(1251,896,o),
(1265,1044,c),
(1268,1044,l),
(1268,1062,l),
(1268,1076,ls),
(1268,1327,o),
(1036,1510,o),
(707,1510,cs),
(698,1510,l),
(689,1510,ls),
(361,1510,o),
(128,1327,o),
(128,1076,cs),
(128,1062,l),
(128,1044,l),
(131,1044,l),
(145,896,o),
(268,794,o),
(433,777,c),
(433,765,l),
(195,739,o),
(73,611,o),
(73,428,cs)
);
},
{
closed = 1;
nodes = (
(500,547,o),
(582,608,o),
(698,617,c),
(815,608,o),
(896,547,o),
(896,463,cs),
(896,454,l),
(890,454,l),
(890,369,o),
(812,308,o),
(698,305,c),
(585,308,o),
(506,369,o),
(506,454,c),
(500,454,l),
(500,463,ls)
);
},
{
closed = 1;
nodes = (
(518,1071,o),
(521,1088,o),
(529,1105,cs),
(556,1161,o),
(617,1196,o),
(698,1199,c),
(780,1196,o),
(841,1161,o),
(867,1105,cs),
(876,1088,o),
(879,1071,o),
(879,1050,cs),
(879,966,o),
(806,905,o),
(698,896,c),
(591,905,o),
(518,966,o),
(518,1050,cs)
);
}
);
};
guides = (
{
pos = (-36,1480);
},
{
pos = (-36,1060);
},
{
pos = (196,588);
},
{
pos = (-36,2076);
},
{
orientation = center;
angle = 90;
pos = (996,508);
}
);
layerId = "0529D95E-C2D1-421A-B897-35690538E92C";
name = "Sep 20 18, 18:25";
shapes = (
{
closed = 1;
nodes = (
(1059,-20,o),
(1324,157,o),
(1324,399,cs),
(1324,646,o),
(1116,800,o),
(698,800,cs),
(280,800,o),
(73,646,o),
(73,399,cs),
(73,157,o),
(337,-20,o),
(698,-20,cs)
);
},
{
closed = 1;
nodes = (
(584,259,o),
(500,335,o),
(500,439,cs),
(500,542,o),
(584,617,o),
(698,617,cs),
(812,617,o),
(896,542,o),
(896,439,cs),
(896,335,o),
(812,259,o),
(698,259,cs)
);
},
{
closed = 1;
nodes = (
(597,896,o),
(524,965,o),
(524,1059,cs),
(524,1151,o),
(597,1219,o),
(698,1219,cs),
(799,1219,o),
(873,1151,o),
(873,1059,cs),
(873,965,o),
(799,896,o),
(698,896,cs)
);
},
{
closed = 1;
nodes = (
(1100,736,o),
(1268,880,o),
(1268,1076,cs),
(1268,1324,o),
(1041,1510,o),
(698,1510,cs),
(355,1510,o),
(128,1324,o),
(128,1076,cs),
(128,880,o),
(297,736,o),
(698,736,cs)
);
}
);
width = 1396;
},
{
associatedMasterId = "C698F293-3EC0-4A5A-A3A0-0FDB1F5CF265";
guides = (
{
orientation = center;
angle = 90;
pos = (912,568);
}
);
layerId = "55E72F0F-9EC8-457B-96D9-84C2391F29D1";
name = "Sep 20 18, 18:59";
shapes = (
{
closed = 1;
nodes = (
(915,-20,o),
(1129,156,o),
(1129,396,cs),
(1129,637,o),
(915,815,o),
(623,815,cs),
(330,815,o),
(116,637,o),
(116,396,cs),
(116,156,o),
(330,-20,o),
(623,-20,cs)
);
},
{
closed = 1;
nodes = (
(431,140,o),
(294,248,o),
(294,401,cs),
(294,572,o),
(433,692,o),
(623,692,cs),
(812,692,o),
(951,572,o),
(951,401,cs),
(951,248,o),
(815,140,o),
(623,140,cs)
);
},
{
closed = 1;
nodes = (
(883,739,o),
(1073,879,o),
(1073,1108,cs),
(1073,1340,o),
(883,1510,o),
(623,1510,cs),
(362,1510,o),
(172,1340,o),
(172,1108,cs),
(172,879,o),
(362,739,o),
(623,739,cs)
);
},
{
closed = 1;
nodes = (
(463,858,o),
(346,963,o),
(346,1105,cs),
(346,1248,o),
(463,1353,o),
(623,1353,cs),
(782,1353,o),
(899,1248,o),
(899,1105,cs),
(899,963,o),
(782,858,o),
(623,858,cs)
);
}
);
width = 1245;
},
{
layerId = "B1F27B51-9973-4381-9301-4FE46FE1CA59";
shapes = (
{
closed = 1;
nodes = (
(873,-20,o),
(1079,160,o),
(1079,384,cs),
(1079,561,o),
(948,728,o),
(765,768,c),
(765,774,l),
(922,826,o),
(1030,969,o),
(1030,1132,cs),
(1030,1345,o),
(842,1510,o),
(617,1510,cs),
(388,1510,o),
(204,1343,o),
(204,1132,cs),
(204,968,o),
(314,827,o),
(468,774,c),
(468,768,l),
(285,726,o),
(154,561,o),
(154,384,cs),
(154,160,o),
(361,-20,o),
(617,-20,cs)
);
},
{
closed = 1;
nodes = (
(385,26,o),
(201,189,o),
(201,387,cs),
(201,585,o),
(384,748,o),
(617,748,cs),
(849,748,o),
(1033,585,o),
(1033,387,cs),
(1033,189,o),
(849,26,o),
(617,26,cs)
);
},
{
closed = 1;
nodes = (
(415,788,o),
(250,946,o),
(250,1132,cs),
(250,1318,o),
(415,1463,o),
(617,1463,cs),
(818,1463,o),
(983,1318,o),
(983,1132,cs),
(983,946,o),
(818,788,o),
(617,788,cs)
);
}
);
width = 1233;
},
{
layerId = "200BE2C5-40F6-4CF4-AF4F-A33C0CC0964F";
shapes = (
{
closed = 1;
nodes = (
(777,-20,o),
(1012,160,o),
(1050,384,cs),
(1079,561,o),
(977,727,o),
(800,768,c),
(800,774,l),
(966,826,o),
(1097,969,o),
(1126,1132,cs),
(1161,1344,o),
(1001,1510,o),
(774,1510,cs),
(547,1510,o),
(335,1344,o),
(300,1132,cs),
(271,969,o),
(358,826,o),
(503,774,c),
(503,768,l),
(314,727,o),
(154,561,o),
(125,384,cs),
(87,160,o),
(265,-20,o),
(521,-20,cs)
);
},
{
closed = 1;
nodes = (
(285,26,o),
(140,189,o),
(172,387,cs),
(204,585,o),
(431,748,o),
(663,748,cs),
(896,748,o),
(1036,585,o),
(1004,387,cs),
(972,189,o),
(751,26,o),
(518,26,cs)
);
},
{
closed = 1;
nodes = (
(442,788,o),
(314,945,o),
(346,1132,cs),
(375,1318,o),
(576,1463,o),
(777,1463,cs),
(980,1463,o),
(1108,1318,o),
(1079,1132,cs),
(1047,945,o),
(844,788,o),
(643,788,cs)
);
}
);
width = 1233;
},
{
associatedMasterId = "B1F27B51-9973-4381-9301-4FE46FE1CA59";
background = {
shapes = (
{
closed = 1;
nodes = (
(891,-20,o),
(1097,153,o),
(1100,396,cs),
(1101,583,o),
(972,743,o),
(812,774,c),
(812,783,l),
(951,818,o),
(1043,955,o),
(1044,1114,cs),
(1047,1340,o),
(852,1509,o),
(593,1510,cs),
(332,1511,o),
(142,1340,o),
(143,1114,cs),
(143,955,o),
(233,818,o),
(375,783,c),
(375,774,l),
(212,743,o),
(86,583,o),
(87,396,cs),
(89,153,o),
(293,-21,o),
(593,-20,cs)
);
},
{
closed = 1;
nodes = (
(389,140,o),
(263,244,o),
(265,404,cs),
(266,572,o),
(402,692,o),
(593,692,cs),
(782,693,o),
(921,572,o),
(922,404,cs),
(924,244,o),
(795,139,o),
(593,140,cs)
);
},
{
closed = 1;
nodes = (
(431,847,o),
(316,948,o),
(317,1103,cs),
(319,1253,o),
(426,1352,o),
(593,1353,cs),
(758,1353,o),
(868,1253,o),
(870,1103,cs),
(871,948,o),
(753,846,o),
(593,847,cs)
);
},
{
closed = 1;
nodes = (
(809,769,o),
(983,928,o),
(983,1129,cs),
(983,1325,o),
(809,1486,o),
(593,1487,cs),
(378,1487,o),
(204,1325,o),
(204,1129,cs),
(204,928,o),
(378,767,o),
(593,768,cs)
);
},
{
closed = 1;
nodes = (
(836,4,o),
(1033,174,o),
(1033,387,cs),
(1033,596,o),
(836,767,o),
(593,768,cs),
(351,768,o),
(154,596,o),
(154,387,cs),
(154,174,o),
(351,3,o),
(593,3,cs)
);
}
);
};
layerId = "0731E66A-26BA-4BAF-9F98-AF7EB4311F62";
name = "Dec 27 18, 13:07";
shapes = (
{
closed = 1;
nodes = (
(809,772,o),
(983,931,o),
(983,1132,cs),
(983,1326,o),
(809,1486,o),
(593,1487,cs),
(378,1487,o),
(204,1326,o),
(204,1132,cs),
(204,931,o),
(378,771,o),
(593,771,cs)
);
},
{
closed = 1;
nodes = (
(836,4,o),
(1033,173,o),
(1033,384,cs),
(1033,593,o),
(836,764,o),
(593,765,cs),
(351,765,o),
(154,593,o),
(154,384,cs),
(154,173,o),
(351,3,o),
(593,3,cs)
);
}
);
width = 1187;
},
{
associatedMasterId = "B1F27B51-9973-4381-9301-4FE46FE1CA59";
background = {
shapes = (
{
closed = 1;
nodes = (
(891,-20,o),
(1097,153,o),
(1100,396,cs),
(1101,583,o),
(972,743,o),
(812,774,c),
(812,783,l),
(951,818,o),
(1043,955,o),
(1044,1114,cs),
(1047,1340,o),
(852,1509,o),
(593,1510,cs),
(332,1511,o),
(142,1340,o),
(143,1114,cs),
(143,955,o),
(233,818,o),
(375,783,c),
(375,774,l),
(212,743,o),
(86,583,o),
(87,396,cs),
(89,153,o),
(293,-21,o),
(593,-20,cs)
);
},
{
closed = 1;
nodes = (
(389,140,o),
(263,244,o),
(265,404,cs),
(266,572,o),
(402,692,o),
(593,692,cs),
(782,693,o),
(921,572,o),
(922,404,cs),
(924,244,o),
(795,139,o),
(593,140,cs)
);
},
{
closed = 1;
nodes = (
(431,847,o),
(316,948,o),
(317,1103,cs),
(319,1253,o),
(426,1352,o),
(593,1353,cs),
(758,1353,o),
(868,1253,o),
(870,1103,cs),
(871,948,o),
(753,846,o),
(593,847,cs)
);
},
{
closed = 1;
nodes = (
(809,769,o),
(983,928,o),
(983,1129,cs),
(983,1325,o),
(809,1486,o),
(593,1487,cs),
(378,1487,o),
(204,1325,o),
(204,1129,cs),
(204,928,o),
(378,767,o),
(593,768,cs)
);
},
{
closed = 1;
nodes = (
(836,4,o),
(1033,174,o),
(1033,387,cs),
(1033,596,o),
(836,767,o),
(593,768,cs),
(351,768,o),
(154,596,o),
(154,387,cs),
(154,174,o),
(351,3,o),
(593,3,cs)
);
}
);
};
layerId = "099996E5-6893-4918-AB65-52D8E36273B3";
name = "Dec 27 18, 13:09";
shapes = (
{
closed = 1;
nodes = (
(823,749,o),
(1007,919,o),
(1007,1132,cs),
(1007,1340,o),
(821,1509,o),
(593,1510,cs),
(367,1511,o),
(180,1340,o),
(180,1132,cs),
(180,919,o),
(364,748,o),
(593,748,cs)
);
},
{
closed = 1;
nodes = (
(399,788,o),
(227,940,o),
(227,1129,cs),
(227,1313,o),
(392,1464,o),
(593,1463,cs),
(796,1463,o),
(960,1312,o),
(960,1129,cs),
(960,941,o),
(789,788,o),
(593,788,cs)
);
},
{
closed = 1;
nodes = (
(850,-19,o),
(1056,161,o),
(1056,384,cs),
(1056,607,o),
(849,787,o),
(593,788,cs),
(339,790,o),
(131,607,o),
(131,384,cs),
(131,160,o),
(337,-20,o),
(593,-20,cs)
);
},
{
closed = 1;
nodes = (
(363,26,o),
(177,188,o),
(177,387,cs),
(177,585,o),
(361,749,o),
(593,748,cs),
(826,746,o),
(1009,585,o),
(1009,387,cs),
(1009,188,o),
(825,28,o),
(593,26,cs)
);
},
{
closed = 1;
nodes = (
(445,762,l),
(739,762,l),
(739,777,l),
(445,777,l)
);
}
);
width = 1187;
}
);
note = "essentially two conjoined \"three\" glyphs";
unicode = 56;
}
{
color = (204,240,242,1);
glyphname = less;
layers = (
{
guides = (
{
pos = (1296,1616);
},
{
pos = (268,800);
}
);
layerId = "C698F293-3EC0-4A5A-A3A0-0FDB1F5CF265";
shapes = (
{
closed = 1;
nodes = (
(1143,47,l),
(1143,233,l),
(425,579,l),
(431,567,l),
(431,596,l),
(425,585,l),
(1143,931,l),
(1143,1117,l),
(207,640,l),
(207,524,l)
);
}
);
width = 1350;
},
{
associatedMasterId = "C698F293-3EC0-4A5A-A3A0-0FDB1F5CF265";
background = {
shapes = (
{
closed = 1;
nodes = (
(646,116,l),
(806,116,l),
(806,1094,l),
(646,1094,l)
);
}
);
};
guides = (
{
pos = (1060,176);
},
{
pos = (1296,1616);
},
{
pos = (256,832);
}
);
layerId = "2DACB510-E67E-4127-A295-62EC37F1A42C";
name = "recipe 1";
shapes = (
{
closed = 1;
nodes = (
(169,663,l),
(241,538,l),
(1105,954,l),
(1105,1140,l)
);
},
{
closed = 1;
nodes = (
(169,547,l),
(285,547,l),
(285,663,l),
(169,663,l)
);
},
{
closed = 1;
nodes = (
(1105,256,l),
(241,672,l),
(169,547,l),
(1105,70,l)
);
},
{
closed = 1;
nodes = (
(300,596,l),
(393,596,l),
(393,614,l),
(300,614,l)
);
}
);
width = 1329;
},
{
associatedMasterId = "C698F293-3EC0-4A5A-A3A0-0FDB1F5CF265";
guides = (
{
angle = 41.9872;
pos = (256,896);
},
{
angle = 318.0498;
pos = (256,896);
},
{
pos = (1060,176);
},
{
pos = (1296,1616);
},
{
pos = (256,896);
}
);
layerId = "BEE623A7-E3DC-4EB0-A534-F8B717154E56";
name = "Nov 24 18, 10:38";
shapes = (
{
closed = 1;
nodes = (
(332,649,l),
(332,655,l),
(791,1065,l),
(678,1175,l),
(96,652,l),
(678,128,l),
(791,239,l)
);
}
);
width = 943;
},
{
guides = (
{
pos = (268,800);
}
);
layerId = "11F4534A-B963-4AB5-820F-DAF9A20CD933";
shapes = (
{
closed = 1;
nodes = (
(1057,47,l),
(1089,233,l),
(426,579,l),
(432,567,l),
(435,596,l),
(429,585,l),
(1206,931,l),
(1235,1117,l),
(220,640,l),
(199,524,l)
);
}
);
width = 1350;
},
{
associatedMasterId = "11F4534A-B963-4AB5-820F-DAF9A20CD933";
guides = (
{
angle = 41.9872;
pos = (320,896);
},
{
angle = 318.0498;
pos = (320,896);
},
{
pos = (764,176);
},
{
pos = (1716,1616);
},
{
pos = (320,896);
}
);
layerId = "EF43BAE6-FFF7-42F6-8EF1-6FA5FACED43C";
name = "Sep 11 18, 20:42";
shapes = (
{
closed = 1;
nodes = (
(346,649,l),
(346,655,l),
(876,1065,l),
(780,1175,l),
(111,652,l),
(605,128,l),
(739,239,l)
);
}
);
width = 943;
},
{
background = {
guides = (
{
orientation = center;
pos = (408,832);
}
);
shapes = (
{
closed = 1;
nodes = (
(646,23,l),
(972,23,l),
(972,1094,l),
(646,1094,l)
);
}
);
};
guides = (
{
orientation = center;
pos = (408,832);
}
);
layerId = "5C20EF92-B63D-42A8-8878-93C2863E0093";
shapes = (
{
closed = 1;
nodes = (
(1251,-3,l),
(1251,364,l),
(561,602,l),
(573,585,l),
(573,625,l),
(561,608,l),
(1251,847,l),
(1251,1213,l),
(169,780,l),
(169,431,l)
);
}
);
width = 1420;
},
{
guides = (
{
pos = (476,1240);
},
{
pos = (392,896);
},
{
angle = 90;
pos = (1892,1620);
}
);
layerId = "D0EC06BF-13F9-4C88-A6F5-B8203AF6C77E";
shapes = (
{
closed = 1;
nodes = (
(1158,-3,l),
(1219,364,l),
(567,602,l),
(576,585,l),
(585,625,l),
(570,608,l),
(1297,847,l),
(1359,1213,l),
(207,780,l),
(148,431,l)
);
}
);
width = 1420;
},
{
associatedMasterId = "5C20EF92-B63D-42A8-8878-93C2863E0093";
guides = (
{
pos = (12,1240);
},
{
pos = (268,896);
},
{
angle = 90;
pos = (1048,1620);
}
);
layerId = "C60C402B-F6E4-41D5-9289-ACC0313E7250";
name = "Nov 24 18, 10:58";
shapes = (
{
closed = 1;
nodes = (
(538,649,l),
(538,655,l),
(922,975,l),
(695,1178,l),
(81,652,l),
(695,125,l),
(922,329,l)
);
}
);
width = 1021;
},
{
associatedMasterId = "5C20EF92-B63D-42A8-8878-93C2863E0093";
background = {
guides = (
{
orientation = center;
pos = (408,832);
}
);
shapes = (
{
closed = 1;
nodes = (
(646,23,l),
(972,23,l),
(972,1094,l),
(646,1094,l)
);
}
);
};
guides = (
{
orientation = center;
pos = (408,832);
}
);
layerId = "323ECA97-198F-4297-957F-EC3DABE1457E";
name = "recipe 1";
shapes = (
{
closed = 1;
nodes = (
(148,780,l),
(265,524,l),
(1231,817,l),
(1231,1213,l)
);
},
{
closed = 1;
nodes = (
(148,431,l),
(364,431,l),
(364,780,l),
(148,780,l)
);
},
{
closed = 1;
nodes = (
(500,593,l),
(553,593,l),
(553,617,l),
(500,617,l)
);
},
{
closed = 1;
nodes = (
(1231,393,l),
(265,687,l),
(148,431,l),
(1231,-3,l)
);
}
);
width = 1420;
},
{
guides = (
{
orientation = center;
pos = (268,800);
}
);
layerId = "B1F27B51-9973-4381-9301-4FE46FE1CA59";
shapes = (
{
closed = 1;
nodes = (
(1050,41,l),
(1050,96,l),
(297,585,l),
(305,570,l),
(305,593,l),
(297,579,l),
(1050,1068,l),
(1050,1123,l),
(253,605,l),
(253,559,l)
);
}
);
width = 1303;
},
{
guides = (
{
pos = (288,800);
}
);
layerId = "200BE2C5-40F6-4CF4-AF4F-A33C0CC0964F";
shapes = (
{
closed = 1;
nodes = (
(966,41,l),
(975,96,l),
(300,585,l),
(308,570,l),
(311,593,l),
(300,579,l),
(1135,1068,l),
(1143,1123,l),
(262,605,l),
(253,559,l)
);
}
);
width = 1303;
},
{
associatedMasterId = "B1F27B51-9973-4381-9301-4FE46FE1CA59";
guides = (
{
orientation = center;
pos = (268,800);
}
);
layerId = "F4F49379-65DA-4D24-8FD9-467723384620";
name = "Dec 27 18, 15:52";
shapes = (
{
closed = 0;
nodes = (
(1164,1140,l),
(300,582,l),
(1164,23,l)
);
}
);
width = 1303;
}
);
metricWidth = plus;
note = "Recipe: Make rect and rotate 63deg (regular) or 69deg (black)";
unicode = 60;
userData = {
com.typemytype.robofont.guideline.magnetic.UCqMAsbNEX = 5;
com.typemytype.robofont.guideline.magnetic.abdyNxiJ0X = 5;
com.typemytype.robofont.guideline.magnetic.hl7wBCA74H = 5;
com.typemytype.robofont.guideline.magnetic.o3FB2ulJxh = 5;
com.typemytype.robofont.guideline.magnetic.oUvmdsbOwf = 5;
"interface.width-adjustments" = (
-16
);
};
}
{
color = (204,240,242,1);
glyphname = equal;
kernLeft = approxequal;
kernRight = approxequal;
layers = (
{
background = {
shapes = (
{
ref = plus;
}
);
};
guides = (
{
pos = (268,800);
}
);
layerId = "C698F293-3EC0-4A5A-A3A0-0FDB1F5CF265";
shapes = (
{
closed = 1;
nodes = (
(1123,719,l),
(1123,876,l),
(227,876,l),
(227,719,l)
);
},
{
closed = 1;
nodes = (
(1123,288,l),
(1123,445,l),
(227,445,l),
(227,288,l)
);
}
);
width = 1350;
},
{
guides = (
{
orientation = center;
pos = (408,832);
}
);
layerId = "5C20EF92-B63D-42A8-8878-93C2863E0093";
shapes = (
{
closed = 1;
nodes = (
(1248,701,l),
(1248,1027,l),
(172,1027,l),
(172,701,l)
);
},
{
closed = 1;
nodes = (
(1248,183,l),
(1248,509,l),
(172,509,l),
(172,183,l)
);
}
);
width = 1420;
},
{
guides = (
{
pos = (406,896);
}
);
layerId = "11F4534A-B963-4AB5-820F-DAF9A20CD933";
shapes = (
{
closed = 1;
nodes = (
(1149,719,l),
(1175,876,l),
(279,876,l),
(253,719,l)
);
},
{
closed = 1;
nodes = (
(1078,288,l),
(1104,445,l),
(208,445,l),
(182,288,l)
);
}
);
width = 1350;
},
{
guides = (
{
pos = (724,896);
}
);
layerId = "D0EC06BF-13F9-4C88-A6F5-B8203AF6C77E";
shapes = (
{
closed = 1;
nodes = (
(1271,701,l),
(1327,1027,l),
(250,1027,l),
(195,701,l)
);
},
{
closed = 1;
nodes = (
(1187,183,l),
(1239,509,l),
(163,509,l),
(111,183,l)
);
}
);
width = 1420;
},
{
guides = (
{
pos = (268,800);
}
);
layerId = "B1F27B51-9973-4381-9301-4FE46FE1CA59";
shapes = (
{
closed = 1;
nodes = (
(998,753,l),
(998,800,l),
(305,800,l),
(305,753,l)
);
},
{
closed = 1;
nodes = (
(998,364,l),
(998,410,l),
(305,410,l),
(305,364,l)
);
}
);
width = 1303;
},
{
layerId = "200BE2C5-40F6-4CF4-AF4F-A33C0CC0964F";
shapes = (
{
closed = 1;
nodes = (
(1030,753,l),
(1039,800,l),
(346,800,l),
(337,753,l)
);
},
{
closed = 1;
nodes = (
(966,364,l),
(975,410,l),
(282,410,l),
(273,364,l)
);
}
);
width = 1303;
}
);
metricWidth = plus;
unicode = 61;
userData = {
com.typemytype.robofont.guideline.magnetic.7d4CjnlrzW = 5;
interface.gridadjust.original = "{'width': 1664, 'leftMargin': 256, 'rightMargin': 256}";
"interface.width-adjustments" = (
-16
);
};
}
{
color = (204,240,242,1);
glyphname = greater;
layers = (
{
guides = (
{
pos = (268,800);
}
);
layerId = "C698F293-3EC0-4A5A-A3A0-0FDB1F5CF265";
shapes = (
{
closed = 1;
nodes = (
(1143,640,l),
(207,1117,l),
(207,931,l),
(925,585,l),
(919,596,l),
(919,567,l),
(925,579,l),
(207,233,l),
(207,47,l),
(1143,524,l)
);
}
);
width = 1350;
},
{
guides = (
{
orientation = center;
pos = (408,832);
}
);
layerId = "5C20EF92-B63D-42A8-8878-93C2863E0093";
shapes = (
{
closed = 1;
nodes = (
(1251,780,l),
(169,1213,l),
(169,847,l),
(858,608,l),
(847,625,l),
(847,585,l),
(858,602,l),
(169,364,l),
(169,-3,l),
(1251,431,l)
);
}
);
width = 1420;
},
{
guides = (
{
pos = (268,800);
}
);
layerId = "11F4534A-B963-4AB5-820F-DAF9A20CD933";
shapes = (
{
closed = 1;
nodes = (
(1193,640,l),
(335,1117,l),
(305,931,l),
(966,585,l),
(960,596,l),
(957,567,l),
(963,579,l),
(189,233,l),
(157,47,l),
(1172,524,l)
);
}
);
width = 1350;
},
{
guides = (
{
pos = (-596,248);
},
{
pos = (1612,896);
}
);
layerId = "D0EC06BF-13F9-4C88-A6F5-B8203AF6C77E";
shapes = (
{
closed = 1;
nodes = (
(1289,780,l),
(276,1213,l),
(215,847,l),
(867,608,l),
(858,625,l),
(849,585,l),
(864,602,l),
(137,364,l),
(76,-3,l),
(1231,431,l)
);
}
);
width = 1420;
},
{
guides = (
{
pos = (268,800);
}
);
layerId = "B1F27B51-9973-4381-9301-4FE46FE1CA59";
shapes = (
{
closed = 1;
nodes = (
(1050,605,l),
(253,1123,l),
(253,1068,l),
(1007,579,l),
(998,593,l),
(998,570,l),
(1007,585,l),
(253,96,l),
(253,41,l),
(1050,559,l)
);
}
);
width = 1303;
},
{
layerId = "200BE2C5-40F6-4CF4-AF4F-A33C0CC0964F";
shapes = (
{
closed = 1;
nodes = (
(1059,605,l),
(346,1123,l),
(337,1068,l),
(1009,579,l),
(1004,593,l),
(1001,570,l),
(1009,585,l),
(177,96,l),
(169,41,l),
(1050,559,l)
);
}
);
width = 1303;
}
);
metricWidth = plus;
unicode = 62;
userData = {
"interface.width-adjustments" = (
-16
);
};
}
{
glyphname = question;
layers = (
{
layerId = "C698F293-3EC0-4A5A-A3A0-0FDB1F5CF265";
shapes = (
{
closed = 1;
nodes = (
(556,419,l),
(556,428,ls),
(559,608,o),
(605,687,o),
(733,767,cs),
(861,844,o),
(937,956,o),
(937,1117,cs),
(937,1344,o),
(771,1510,o),
(515,1510,cs),
(279,1510,o),
(92,1364,o),
(81,1117,c),
(265,1117,l),
(276,1289,o),
(396,1359,o),
(515,1359,cs),
(652,1359,o),
(762,1268,o),
(762,1126,cs),
(762,1010,o),
(696,927,o),
(611,876,cs),
(468,789,o),
(383,705,o),
(381,428,cs),
(381,419,l)
);
},
{
pos = (192,0);
ref = period;
}
);
width = 1039;
},
{
guides = (
{
pos = (-28,2352);
},
{
pos = (-28,836);
},
{
angle = 90;
pos = (432,0);
},
{
angle = 90;
pos = (780,632);
}
);
layerId = "5C20EF92-B63D-42A8-8878-93C2863E0093";
shapes = (
{
closed = 1;
nodes = (
(739,465,l),
(739,500,ls),
(739,616,o),
(793,674,o),
(899,736,cs),
(1041,819,o),
(1137,923,o),
(1137,1100,cs),
(1137,1373,o),
(907,1510,o),
(596,1510,cs),
(313,1510,o),
(79,1376,o),
(76,1056,c),
(448,1056,l),
(448,1140,o),
(515,1199,o),
(593,1199,cs),
(666,1199,o),
(724,1149,o),
(724,1076,cs),
(724,995,o),
(654,945,o),
(561,884,cs),
(453,814,o),
(396,740,o),
(396,500,cs),
(396,465,l)
);
},
{
pos = (253,0);
ref = period;
}
);
width = 1228;
},
{
layerId = "11F4534A-B963-4AB5-820F-DAF9A20CD933";
shapes = (
{
closed = 1;
nodes = (
(532,419,l),
(535,436,l),
(567,611,o),
(628,689,o),
(768,768,cs),
(908,844,o),
(1004,957,o),
(1030,1117,cs),
(1068,1344,o),
(928,1510,o),
(672,1510,cs),
(436,1510,o),
(227,1364,o),
(175,1117,c),
(358,1117,l),
(396,1289,o),
(529,1359,o),
(649,1359,cs),
(785,1359,o),
(879,1268,o),
(855,1126,cs),
(838,1009,o),
(756,928,o),
(663,876,cs),
(510,791,o),
(409,708,o),
(361,436,c),
(358,419,l)
);
},
{
pos = (192,0);
ref = period;
}
);
width = 1039;
},
{
guides = (
{
pos = (1508,2352);
},
{
pos = (4,836);
},
{
angle = 90;
pos = (-368,0);
},
{
angle = -99.4;
pos = (740,512);
}
);
layerId = "D0EC06BF-13F9-4C88-A6F5-B8203AF6C77E";
shapes = (
{
closed = 1;
nodes = (
(724,465,l),
(730,500,ls),
(750,617,o),
(815,675,o),
(931,736,cs),
(1087,817,o),
(1199,922,o),
(1228,1100,cs),
(1273,1373,o),
(1065,1510,o),
(756,1510,cs),
(471,1510,o),
(215,1376,o),
(160,1056,c),
(532,1056,l),
(544,1140,o),
(623,1199,o),
(701,1199,cs),
(774,1199,o),
(823,1149,o),
(812,1076,cs),
(799,995,o),
(719,945,o),
(617,884,cs),
(498,813,o),
(427,739,o),
(387,500,cs),
(381,465,l)
);
},
{
pos = (250,0);
ref = period;
}
);
width = 1228;
},
{
guides = (
{
angle = 90;
pos = (616,516);
},
{
pos = (476,608);
}
);
layerId = "B1F27B51-9973-4381-9301-4FE46FE1CA59";
shapes = (
{
closed = 1;
nodes = (
(471,442,l),
(471,544,ls),
(471,662,o),
(510,723,o),
(649,823,cs),
(807,937,o),
(864,1023,o),
(864,1146,cs),
(864,1356,o),
(699,1510,o),
(486,1510,cs),
(263,1510,o),
(96,1341,o),
(96,1117,c),
(143,1117,l),
(143,1315,o),
(288,1463,o),
(486,1463,cs),
(673,1463,o),
(817,1331,o),
(817,1146,cs),
(817,1041,o),
(770,965,o),
(623,861,cs),
(473,756,o),
(425,678,o),
(425,544,cs),
(425,442,l)
);
},
{
pos = (189,0);
ref = period;
}
);
width = 980;
},
{
guides = (
{
angle = -99.4;
pos = (576,512);
}
);
layerId = "200BE2C5-40F6-4CF4-AF4F-A33C0CC0964F";
shapes = (
{
closed = 1;
nodes = (
(454,442,l),
(471,544,ls),
(491,665,o),
(540,726,o),
(692,823,cs),
(870,937,o),
(940,992,o),
(963,1146,cs),
(992,1347,o),
(863,1510,o),
(646,1510,cs),
(422,1510,o),
(226,1342,o),
(189,1117,c),
(236,1117,l),
(268,1303,o),
(441,1463,o),
(646,1463,cs),
(831,1463,o),
(943,1334,o),
(916,1146,cs),
(898,1016,o),
(828,965,o),
(669,864,cs),
(508,762,o),
(447,682,o),
(425,544,cs),
(407,442,l)
);
},
{
pos = (192,0);
ref = period;
}
);
width = 980;
},
{
associatedMasterId = "B1F27B51-9973-4381-9301-4FE46FE1CA59";
layerId = "75D4D36F-F0AC-4556-9658-7C6E75F1070E";
name = "Nov 30 18, 00:07";
shapes = (
{
closed = 0;
nodes = (
(419,396,l),
(419,657,o),
(468,730,o),
(596,817,cs),
(710,895,o),
(797,981,o),
(797,1140,cs),
(797,1343,o),
(658,1487,o),
(463,1487,cs),
(260,1487,o),
(116,1334,o),
(116,1117,c)
);
},
{
pos = (154,0);
ref = period;
}
);
width = 925;
},
{
associatedMasterId = "B1F27B51-9973-4381-9301-4FE46FE1CA59";
guides = (
{
angle = 90;
pos = (576,516);
}
);
layerId = "ED769F43-BCBA-464F-BC0C-E3675F1B7BB8";
name = "Nov 30 18, 00:10";
shapes = (
{
closed = 1;
nodes = (
(140,1117,l),
(140,1321,o),
(273,1463,o),
(463,1463,cs),
(646,1463,o),
(774,1329,o),
(774,1140,cs),
(774,1015,o),
(721,931,o),
(585,838,cs),
(436,736,o),
(396,643,o),
(396,396,c),
(442,396,l),
(442,628,o),
(474,707,o),
(611,800,cs),
(759,899,o),
(820,998,o),
(820,1140,cs),
(820,1356,o),
(672,1510,o),
(463,1510,cs),
(247,1510,o),
(93,1347,o),
(93,1117,c)
);
},
{
pos = (160,0);
ref = period;
}
);
width = 925;
},
{
associatedMasterId = "B1F27B51-9973-4381-9301-4FE46FE1CA59";
background = {
shapes = (
{
closed = 1;
nodes = (
(454,233,l),
(454,585,o),
(486,666,o),
(623,771,cs),
(762,881,o),
(832,995,o),
(832,1140,cs),
(832,1356,o),
(684,1510,o),
(474,1510,cs),
(259,1510,o),
(105,1347,o),
(105,1117,c),
(151,1117,l),
(151,1321,o),
(285,1463,o),
(474,1463,cs),
(657,1463,o),
(785,1329,o),
(785,1140,cs),
(785,1012,o),
(730,913,o),
(596,809,cs),
(448,695,o),
(407,593,o),
(407,233,c)
);
},
{
closed = 0;
nodes = (
(448,465,l),
(445,650,o),
(488,722,o),
(652,838,cs),
(767,919,o),
(832,1007,o),
(832,1155,cs),
(832,1350,o),
(681,1485,o),
(474,1487,cs),
(266,1488,o),
(79,1365,o),
(79,1103,c)
);
}
);
};
guides = (
{
angle = 90;
pos = (592,516);
}
);
layerId = "A64C3A59-7B69-4518-AB3E-BEEAC2E00FFE";
name = "Jan 22 19, 06:51";
shapes = (
{
closed = 0;
nodes = (
(431,233,l),
(428,659,o),
(497,735,o),
(652,838,cs),
(784,927,o),
(832,1034,o),
(832,1146,cs),
(832,1340,o),
(687,1487,o),
(474,1487,cs),
(257,1487,o),
(79,1332,o),
(79,1117,c)
);
},
{
pos = (172,0);
ref = period;
}
);
width = 963;
},
{
associatedMasterId = "B1F27B51-9973-4381-9301-4FE46FE1CA59";
guides = (
{
angle = 90;
pos = (656,516);
}
);
layerId = "97860723-3877-46AB-80B9-B6DA2B6A584E";
name = "Jan 22 19, 06:56";
shapes = (
{
closed = 1;
nodes = (
(149,1314,o),
(310,1463,o),
(521,1463,cs),
(719,1463,o),
(855,1331,o),
(855,1146,cs),
(855,1027,o),
(799,934,o),
(687,858,cs),
(529,752,o),
(451,668,o),
(454,233,c),
(500,233,l),
(497,641,o),
(561,721,o),
(710,817,cs),
(836,900,o),
(902,1012,o),
(902,1146,cs),
(902,1356,o),
(744,1510,o),
(521,1510,cs),
(284,1510,o),
(103,1340,o),
(102,1117,c),
(148,1117,l)
);
},
{
pos = (218,0);
ref = period;
}
);
width = 1009;
},
{
associatedMasterId = "B1F27B51-9973-4381-9301-4FE46FE1CA59";
background = {
shapes = (
{
closed = 0;
nodes = (
(151,1152,l),
(168,1348,o),
(317,1485,o),
(515,1487,cs),
(716,1488,o),
(870,1345,o),
(870,1158,cs),
(870,1036,o),
(812,948,o),
(663,841,cs),
(519,737,o),
(477,668,o),
(477,544,cs),
(477,445,l)
);
}
);
};
guides = (
{
angle = 90;
pos = (656,516);
}
);
layerId = "257671DD-319E-494D-ABB6-8D5D07521099";
name = "Jan 22 19, 09:25";
shapes = (
{
closed = 0;
nodes = (
(148,1105,l),
(148,1338,o),
(310,1487,o),
(515,1487,cs),
(716,1487,o),
(870,1345,o),
(870,1146,cs),
(870,1025,o),
(812,948,o),
(663,841,cs),
(519,737,o),
(477,668,o),
(477,544,cs),
(477,442,l)
);
},
{
pos = (218,0);
ref = period;
}
);
width = 1009;
},
{
associatedMasterId = "B1F27B51-9973-4381-9301-4FE46FE1CA59";
background = {
shapes = (
{
closed = 0;
nodes = (
(122,1152,l),
(139,1348,o),
(288,1485,o),
(486,1487,cs),
(687,1488,o),
(841,1345,o),
(841,1158,cs),
(841,1036,o),
(783,948,o),
(634,841,cs),
(489,737,o),
(448,668,o),
(448,544,cs),
(448,445,l)
);
}
);
};
guides = (
{
angle = 90;
pos = (616,516);
}
);
layerId = "D2256727-13BA-427B-A422-447CE61ECAB7";
name = "Jan 22 19, 09:29";
shapes = (
{
closed = 0;
nodes = (
(119,1117,l),
(119,1338,o),
(288,1487,o),
(486,1487,cs),
(678,1487,o),
(841,1347,o),
(841,1146,cs),
(841,1025,o),
(783,948,o),
(634,841,cs),
(489,737,o),
(448,668,o),
(448,544,cs),
(448,442,l)
);
},
{
pos = (189,0);
ref = period;
}
);
width = 980;
}
);
unicode = 63;
userData = {
"interface.width-adjustments" = (
-16
);
};
}
{
glyphname = at;
layers = (
{
layerId = "C698F293-3EC0-4A5A-A3A0-0FDB1F5CF265";
shapes = (
{
closed = 1;
nodes = (
(1164,-393,o),
(1353,-349,o),
(1443,-311,c),
(1402,-177,l),
(1350,-195,o),
(1181,-253,o),
(1021,-253,cs),
(524,-253,o),
(259,26,o),
(259,521,cs),
(259,1007,o),
(529,1297,o),
(986,1297,cs),
(1449,1297,o),
(1667,972,o),
(1667,646,cs),
(1667,314,o),
(1632,166,o),
(1484,166,cs),
(1396,166,o),
(1350,239,o),
(1350,320,cs),
(1350,977,l),
(1196,977,l),
(1196,896,l),
(1187,896,l),
(1167,960,o),
(1053,1015,o),
(908,1001,cs),
(689,977,o),
(524,797,o),
(524,535,cs),
(524,259,o),
(655,47,o),
(908,38,cs),
(1073,32,o),
(1161,113,o),
(1196,198,c),
(1204,198,l),
(1222,73,o),
(1379,29,o),
(1481,29,cs),
(1789,29,o),
(1818,361,o),
(1818,643,cs),
(1818,1041,o),
(1539,1434,o),
(995,1434,cs),
(433,1434,o),
(99,1094,o),
(99,527,cs),
(99,-61,o),
(422,-393,o),
(1015,-393,cs)
);
},
{
closed = 1;
nodes = (
(742,186,o),
(675,358,o),
(675,544,cs),
(675,713,o),
(771,858,o),
(937,858,cs),
(1111,858,o),
(1204,788,o),
(1204,544,cs),
(1204,303,o),
(1126,186,o),
(931,186,cs)
);
}
);
width = 1917;
},
{
layerId = "5C20EF92-B63D-42A8-8878-93C2863E0093";
shapes = (
{
closed = 1;
nodes = (
(1401,-454,o),
(1613,-401,o),
(1705,-340,c),
(1612,-79,l),
(1517,-119,o),
(1351,-151,o),
(1178,-151,cs),
(720,-151,o),
(467,81,o),
(465,518,cs),
(467,887,o),
(682,1216,o),
(1184,1216,cs),
(1459,1216,o),
(1855,1155,o),
(1853,611,cs),
(1855,358,o),
(1791,241,o),
(1722,241,cs),
(1697,241,o),
(1677,256,o),
(1676,314,cs),
(1676,1059,l),
(1399,1059,l),
(1399,977,l),
(1388,977,l),
(1360,1041,o),
(1180,1105,o),
(1004,1073,cs),
(825,1041,o),
(586,896,o),
(585,509,cs),
(586,122,o),
(825,-29,o),
(1039,-44,cs),
(1203,-55,o),
(1392,6,o),
(1425,96,c),
(1434,96,l),
(1450,12,o),
(1456,-73,o),
(1670,-52,cs),
(1988,-23,o),
(2169,177,o),
(2167,585,cs),
(2169,1181,o),
(1785,1516,o),
(1184,1516,cs),
(516,1516,o),
(141,1097,o),
(140,500,cs),
(141,-99,o),
(519,-454,o),
(1155,-454,cs)
);
},
{
closed = 1;
nodes = (
(964,256,o),
(903,384,o),
(902,518,cs),
(903,681,o),
(991,765,o),
(1149,765,cs),
(1340,765,o),
(1369,649,o),
(1370,521,cs),
(1375,352,o),
(1322,256,o),
(1155,256,cs)
);
}
);
width = 2240;
},
{
layerId = "11F4534A-B963-4AB5-820F-DAF9A20CD933";
shapes = (
{
closed = 1;
nodes = (
(1007,-393,o),
(1201,-349,o),
(1300,-311,c),
(1280,-177,l),
(1225,-195,o),
(1047,-253,o),
(887,-253,cs),
(390,-253,o),
(172,26,o),
(253,521,cs),
(332,1007,o),
(652,1297,o),
(1108,1297,cs),
(1571,1297,o),
(1737,972,o),
(1681,646,cs),
(1626,314,o),
(1568,166,o),
(1420,166,cs),
(1332,166,o),
(1297,239,o),
(1309,320,cs),
(1420,977,l),
(1265,977,l),
(1251,896,l),
(1242,896,l),
(1233,960,o),
(1129,1015,o),
(980,1001,cs),
(759,977,o),
(564,797,o),
(521,535,cs),
(474,259,o),
(570,47,o),
(820,38,cs),
(986,32,o),
(1088,113,o),
(1135,198,c),
(1143,198,l),
(1140,73,o),
(1292,29,o),
(1393,29,cs),
(1702,29,o),
(1786,361,o),
(1833,643,cs),
(1897,1041,o),
(1684,1434,o),
(1140,1434,cs),
(579,1434,o),
(186,1094,o),
(93,527,cs),
(-3,-61,o),
(265,-393,o),
(858,-393,cs)
);
},
{
closed = 1;
nodes = (
(681,186,o),
(643,358,o),
(672,544,cs),
(701,713,o),
(820,858,o),
(986,858,cs),
(1161,858,o),
(1242,788,o),
(1201,544,cs),
(1161,303,o),
(1065,186,o),
(870,186,cs)
);
}
);
width = 1917;
},
{
layerId = "D0EC06BF-13F9-4C88-A6F5-B8203AF6C77E";
shapes = (
{
closed = 1;
nodes = (
(1232,-454,o),
(1453,-401,o),
(1556,-340,c),
(1507,-79,l),
(1404,-119,o),
(1235,-151,o),
(1062,-151,cs),
(604,-151,o),
(388,81,o),
(460,518,cs),
(522,887,o),
(790,1216,o),
(1292,1216,cs),
(1567,1216,o),
(1953,1155,o),
(1862,611,cs),
(1823,358,o),
(1738,241,o),
(1670,241,cs),
(1645,241,o),
(1628,256,o),
(1635,314,cs),
(1757,1059,l),
(1481,1059,l),
(1469,977,l),
(1457,977,l),
(1439,1041,o),
(1270,1105,o),
(1088,1073,cs),
(903,1041,o),
(641,896,o),
(576,509,cs),
(513,122,o),
(729,-29,o),
(940,-44,cs),
(1101,-55,o),
(1302,6,o),
(1350,96,c),
(1359,96,l),
(1360,12,o),
(1351,-73,o),
(1568,-52,cs),
(1892,-23,o),
(2105,177,o),
(2170,585,cs),
(2271,1181,o),
(1942,1516,o),
(1341,1516,cs),
(673,1516,o),
(231,1097,o),
(131,500,cs),
(33,-99,o),
(351,-454,o),
(986,-454,cs)
);
},
{
closed = 1;
nodes = (
(915,256,o),
(874,384,o),
(896,518,cs),
(924,681,o),
(1025,765,o),
(1184,765,cs),
(1375,765,o),
(1383,649,o),
(1364,521,cs),
(1340,352,o),
(1273,256,o),
(1105,256,cs)
);
}
);
width = 2240;
},
{
guides = (
{
pos = (1384,1940);
},
{
pos = (1272,80);
},
{
pos = (1292,1344);
},
{
pos = (1416,-512);
},
{
angle = 90;
pos = (172,728);
},
{
angle = 90;
pos = (756,736);
},
{
angle = 90;
pos = (1824,736);
},
{
angle = 90;
pos = (2464,876);
},
{
orientation = center;
pos = (2440,712);
}
);
layerId = "B1F27B51-9973-4381-9301-4FE46FE1CA59";
shapes = (
{
closed = 1;
nodes = (
(1129,-396,o),
(1292,-343,o),
(1431,-244,c),
(1402,-207,l),
(1271,-300,o),
(1120,-349,o),
(960,-349,cs),
(512,-349,o),
(148,38,o),
(148,518,cs),
(148,998,o),
(512,1385,o),
(960,1385,cs),
(1405,1385,o),
(1769,998,o),
(1769,518,cs),
(1769,279,o),
(1638,102,o),
(1460,102,cs),
(1373,102,o),
(1350,137,o),
(1350,279,cs),
(1350,986,l),
(1303,986,l),
(1303,753,l),
(1297,753,l),
(1228,902,o),
(1094,1001,o),
(940,1001,cs),
(710,1001,o),
(527,785,o),
(527,518,cs),
(527,250,o),
(710,35,o),
(940,35,cs),
(1094,35,o),
(1228,134,o),
(1297,279,c),
(1303,279,l),
(1303,113,o),
(1344,55,o),
(1460,55,cs),
(1667,55,o),
(1815,253,o),
(1815,518,cs),
(1815,1024,o),
(1431,1431,o),
(960,1431,cs),
(486,1431,o),
(102,1024,o),
(102,518,cs),
(102,15,o),
(486,-396,o),
(960,-396,cs)
);
},
{
closed = 1;
nodes = (
(739,81,o),
(573,276,o),
(573,518,cs),
(573,759,o),
(739,954,o),
(940,954,cs),
(1140,954,o),
(1303,759,o),
(1303,518,cs),
(1303,275,o),
(1141,81,o),
(940,81,cs)
);
}
);
width = 1917;
},
{
layerId = "200BE2C5-40F6-4CF4-AF4F-A33C0CC0964F";
shapes = (
{
closed = 1;
nodes = (
(972,-396,o),
(1143,-343,o),
(1297,-244,c),
(1274,-207,l),
(1129,-300,o),
(963,-349,o),
(803,-349,cs),
(355,-349,o),
(61,38,o),
(143,518,cs),
(221,998,o),
(657,1385,o),
(1105,1385,cs),
(1551,1385,o),
(1841,998,o),
(1763,518,cs),
(1722,279,o),
(1559,102,o),
(1382,102,cs),
(1295,102,o),
(1280,137,o),
(1303,279,cs),
(1423,992,l),
(1376,992,l),
(1335,753,l),
(1329,753,l),
(1286,902,o),
(1167,1001,o),
(1012,1001,cs),
(783,1001,o),
(564,785,o),
(521,518,cs),
(474,250,o),
(623,35,o),
(852,35,cs),
(1007,35,o),
(1158,134,o),
(1251,279,c),
(1257,279,l),
(1231,113,o),
(1260,55,o),
(1376,55,cs),
(1583,55,o),
(1766,253,o),
(1809,518,cs),
(1891,1024,o),
(1577,1431,o),
(1105,1431,cs),
(631,1431,o),
(177,1024,o),
(96,518,cs),
(12,15,o),
(329,-396,o),
(803,-396,cs)
);
},
{
closed = 1;
nodes = (
(652,81,o),
(527,276,o),
(567,518,cs),
(605,759,o),
(812,954,o),
(1012,954,cs),
(1213,954,o),
(1335,759,o),
(1297,518,cs),
(1257,276,o),
(1053,81,o),
(852,81,cs)
);
}
);
width = 1917;
},
{
associatedMasterId = "B1F27B51-9973-4381-9301-4FE46FE1CA59";
background = {
shapes = (
{
closed = 1;
nodes = (
(1111,858,o),
(1204,788,o),
(1204,544,cs),
(1204,303,o),
(1126,186,o),
(931,186,cs),
(742,186,o),
(675,358,o),
(675,544,cs),
(675,713,o),
(771,858,o),
(937,858,cs)
);
},
{
closed = 1;
nodes = (
(433,1434,o),
(99,1094,o),
(99,527,cs),
(99,-61,o),
(422,-393,o),
(1015,-393,cs),
(1164,-393,o),
(1353,-349,o),
(1443,-311,c),
(1402,-177,l),
(1350,-195,o),
(1181,-253,o),
(1021,-253,cs),
(524,-253,o),
(259,26,o),
(259,521,cs),
(259,1007,o),
(529,1297,o),
(986,1297,cs),
(1449,1297,o),
(1667,972,o),
(1667,646,cs),
(1667,314,o),
(1632,166,o),
(1484,166,cs),
(1396,166,o),
(1350,239,o),
(1350,320,cs),
(1350,977,l),
(1196,977,l),
(1196,896,l),
(1187,896,l),
(1167,960,o),
(1053,1015,o),
(908,1001,cs),
(689,977,o),
(524,797,o),
(524,535,cs),
(524,259,o),
(655,47,o),
(908,38,cs),
(1073,32,o),
(1161,113,o),
(1196,198,c),
(1204,198,l),
(1222,73,o),
(1379,29,o),
(1481,29,cs),
(1789,29,o),
(1818,361,o),
(1818,643,cs),
(1818,1041,o),
(1539,1434,o),
(995,1434,cs)
);
}
);
};
guides = (
{
pos = (1384,1940);
},
{
pos = (1272,80);
},
{
pos = (1292,1344);
},
{
pos = (1416,-512);
},
{
angle = 90;
pos = (172,728);
},
{
angle = 90;
pos = (756,736);
},
{
angle = 90;
pos = (1824,736);
},
{
angle = 90;
pos = (2464,876);
},
{
orientation = center;
pos = (2440,712);
}
);
layerId = "F02EBEA3-A9A1-4BF5-A5DE-99015680B117";
name = "Dec 27 18, 17:10";
shapes = (
{
closed = 1;
nodes = (
(1419,-372,o),
(1792,26,o),
(1792,518,cs),
(1792,1009,o),
(1419,1408,o),
(959,1408,cs),
(498,1408,o),
(125,1009,o),
(125,518,cs),
(125,26,o),
(498,-372,o),
(959,-372,cs)
);
},
{
closed = 1;
nodes = (
(1153,58,o),
(1327,264,o),
(1327,518,cs),
(1327,772,o),
(1153,977,o),
(938,977,cs),
(724,977,o),
(550,772,o),
(550,518,cs),
(550,264,o),
(724,58,o),
(938,58,cs)
);
}
);
width = 1917;
},
{
associatedMasterId = "B1F27B51-9973-4381-9301-4FE46FE1CA59";
background = {
shapes = (
{
closed = 1;
nodes = (
(1111,858,o),
(1204,788,o),
(1204,544,cs),
(1204,303,o),
(1126,186,o),
(931,186,cs),
(742,186,o),
(675,358,o),
(675,544,cs),
(675,713,o),
(771,858,o),
(937,858,cs)
);
},
{
closed = 1;
nodes = (
(433,1434,o),
(99,1094,o),
(99,527,cs),
(99,-61,o),
(422,-393,o),
(1015,-393,cs),
(1164,-393,o),
(1353,-349,o),
(1443,-311,c),
(1402,-177,l),
(1350,-195,o),
(1181,-253,o),
(1021,-253,cs),
(524,-253,o),
(259,26,o),
(259,521,cs),
(259,1007,o),
(529,1297,o),
(986,1297,cs),
(1449,1297,o),
(1667,972,o),
(1667,646,cs),
(1667,314,o),
(1632,166,o),
(1484,166,cs),
(1396,166,o),
(1350,239,o),
(1350,320,cs),
(1350,977,l),
(1196,977,l),
(1196,896,l),
(1187,896,l),
(1167,960,o),
(1053,1015,o),
(908,1001,cs),
(689,977,o),
(524,797,o),
(524,535,cs),
(524,259,o),
(655,47,o),
(908,38,cs),
(1073,32,o),
(1161,113,o),
(1196,198,c),
(1204,198,l),
(1222,73,o),
(1379,29,o),
(1481,29,cs),
(1789,29,o),
(1818,361,o),
(1818,643,cs),
(1818,1041,o),
(1539,1434,o),
(995,1434,cs)
);
}
);
};
guides = (
{
pos = (1384,1940);
},
{
pos = (1272,80);
},
{
pos = (1292,1344);
},
{
pos = (1416,-512);
},
{
angle = 90;
pos = (172,728);
},
{
angle = 90;
pos = (756,736);
},
{
angle = 90;
pos = (1824,736);
},
{
angle = 90;
pos = (2464,876);
},
{
orientation = center;
pos = (2440,712);
}
);
layerId = "9330E9C2-5A13-4EB8-A18E-F8A68B4A0796";
name = "Dec 27 18, 17:59";
shapes = (
{
closed = 0;
nodes = (
(1792,515,l),
(1792,265,o),
(1654,79,o),
(1460,79,cs),
(1345,79,o),
(1327,145,o),
(1327,279,c),
(1327,518,ls),
(1327,772,o),
(1153,977,o),
(940,977,cs),
(724,977,o),
(550,772,o),
(550,518,cs),
(550,264,o),
(724,58,o),
(940,58,cs),
(1151,58,o),
(1327,261,o),
(1327,512,cs),
(1327,995,l)
);
},
{
closed = 0;
nodes = (
(1792,518,l),
(1792,1009,o),
(1419,1408,o),
(959,1408,cs),
(498,1408,o),
(125,1009,o),
(125,518,cs),
(125,26,o),
(498,-372,o),
(959,-372,cs),
(1128,-372,o),
(1286,-319,o),
(1417,-224,cs)
);
}
);
width = 1917;
},
{
associatedMasterId = "B1F27B51-9973-4381-9301-4FE46FE1CA59";
background = {
shapes = (
{
closed = 1;
nodes = (
(1111,858,o),
(1204,788,o),
(1204,544,cs),
(1204,303,o),
(1126,186,o),
(931,186,cs),
(742,186,o),
(675,358,o),
(675,544,cs),
(675,713,o),
(771,858,o),
(937,858,cs)
);
},
{
closed = 1;
nodes = (
(433,1434,o),
(99,1094,o),
(99,527,cs),
(99,-61,o),
(422,-393,o),
(1015,-393,cs),
(1164,-393,o),
(1353,-349,o),
(1443,-311,c),
(1402,-177,l),
(1350,-195,o),
(1181,-253,o),
(1021,-253,cs),
(524,-253,o),
(259,26,o),
(259,521,cs),
(259,1007,o),
(529,1297,o),
(986,1297,cs),
(1449,1297,o),
(1667,972,o),
(1667,646,cs),
(1667,314,o),
(1632,166,o),
(1484,166,cs),
(1396,166,o),
(1350,239,o),
(1350,320,cs),
(1350,977,l),
(1196,977,l),
(1196,896,l),
(1187,896,l),
(1167,960,o),
(1053,1015,o),
(908,1001,cs),
(689,977,o),
(524,797,o),
(524,535,cs),
(524,259,o),
(655,47,o),
(908,38,cs),
(1073,32,o),
(1161,113,o),
(1196,198,c),
(1204,198,l),
(1222,73,o),
(1379,29,o),
(1481,29,cs),
(1789,29,o),
(1818,361,o),
(1818,643,cs),
(1818,1041,o),
(1539,1434,o),
(995,1434,cs)
);
}
);
};
guides = (
{
pos = (1384,1940);
},
{
pos = (1272,80);
},
{
pos = (1292,1344);
},
{
pos = (1416,-512);
},
{
angle = 90;
pos = (172,728);
},
{
angle = 90;
pos = (756,736);
},
{
angle = 90;
pos = (1824,736);
},
{
angle = 90;
pos = (2464,876);
},
{
orientation = center;
pos = (2440,712);
}
);
layerId = "39D8C4D3-01B4-4081-9FD2-F9FB814DC8A5";
name = "Dec 27 18, 18:03";
shapes = (
{
closed = 1;
nodes = (
(102,15,o),
(486,-396,o),
(960,-396,cs),
(1129,-396,o),
(1292,-343,o),
(1431,-244,c),
(1402,-207,l),
(1271,-300,o),
(1120,-349,o),
(960,-349,cs),
(512,-349,o),
(148,38,o),
(148,518,cs),
(148,998,o),
(512,1385,o),
(960,1385,cs),
(1405,1385,o),
(1769,998,o),
(1769,518,cs),
(1769,279,o),
(1638,102,o),
(1460,102,cs),
(1373,102,o),
(1350,137,o),
(1350,279,cs),
(1350,992,l),
(1303,992,l),
(1303,742,l),
(1233,896,o),
(1097,1001,o),
(940,1001,cs),
(710,1001,o),
(527,785,o),
(527,518,cs),
(527,250,o),
(710,35,o),
(940,35,cs),
(1097,35,o),
(1233,140,o),
(1303,291,c),
(1303,279,ls),
(1303,113,o),
(1344,55,o),
(1460,55,cs),
(1667,55,o),
(1815,253,o),
(1815,518,cs),
(1815,1024,o),
(1431,1431,o),
(960,1431,cs),
(486,1431,o),
(102,1024,o),
(102,518,cs)
);
},
{
closed = 1;
nodes = (
(573,759,o),
(739,954,o),
(940,954,cs),
(1140,954,o),
(1303,759,o),
(1303,518,cs),
(1303,512,ls),
(1303,276,o),
(1140,81,o),
(940,81,cs),
(739,81,o),
(573,276,o),
(573,518,cs)
);
}
);
width = 1917;
}
);
unicode = 64;
userData = {
"interface.width-adjustments" = (
-16
);
};
}
{
color = (219,235,247,1);
glyphname = A;
kernLeft = A;
kernRight = A;
layers = (
{
anchors = (
{
name = bottom;
pos = (692,0);
},
{
name = ogonek;
pos = (1332,0);
},
{
name = tonos;
pos = (495,1489);
},
{
name = top;
pos = (692,1676);
}
);
guides = (
{
angle = 90;
pos = (2064,1832);
},
{
orientation = center;
angle = 90;
pos = (828,144);
}
);
layerId = "C698F293-3EC0-4A5A-A3A0-0FDB1F5CF265";
shapes = (
{
closed = 1;
nodes = (
(687,1254,l),
(698,1254,l),
(1143,0,l),
(1332,0,l),
(785,1489,l),
(599,1489,l),
(52,0,l),
(241,0,l)
);
},
{
closed = 1;
nodes = (
(311,422,l),
(1073,422,l),
(1073,582,l),
(311,582,l)
);
}
);
width = 1385;
},
{
anchors = (
{
name = bottom;
pos = (815,0);
},
{
name = ogonek;
pos = (1583,0);
},
{
name = tonos;
pos = (460,1489);
},
{
name = top;
pos = (815,1676);
}
);
background = {
shapes = (
{
pos = (-1436,0);
ref = V;
}
);
};
guides = (
{
pos = (1036,1364);
},
{
orientation = center;
angle = 90;
pos = (1020,964);
}
);
layerId = "5C20EF92-B63D-42A8-8878-93C2863E0093";
shapes = (
{
closed = 1;
nodes = (
(809,1079,l),
(820,1079,l),
(1146,0,l),
(1583,0,l),
(1091,1489,l),
(538,1489,l),
(47,0,l),
(483,0,l)
);
},
{
closed = 1;
nodes = (
(401,285,l),
(1222,285,l),
(1222,588,l),
(401,588,l)
);
}
);
width = 1629;
},
{
anchors = (
{
name = bottom;
pos = (599,0);
},
{
name = ogonek;
pos = (1239,0);
},
{
name = tonos;
pos = (649,1489);
},
{
name = top;
pos = (879,1676);
}
);
guides = (
{
angle = 90;
pos = (3296,1832);
}
);
layerId = "11F4534A-B963-4AB5-820F-DAF9A20CD933";
shapes = (
{
closed = 1;
nodes = (
(803,1254,l),
(815,1254,l),
(1050,0,l),
(1239,0,l),
(940,1489,l),
(753,1489,l),
(-41,0,l),
(148,0,l)
);
},
{
closed = 1;
nodes = (
(288,422,l),
(1050,422,l),
(1076,582,l),
(314,582,l)
);
}
);
width = 1385;
},
{
anchors = (
{
name = bottom;
pos = (721,0);
},
{
name = ogonek;
pos = (1489,0);
},
{
name = tonos;
pos = (614,1489);
},
{
name = top;
pos = (1001,1676);
}
);
guides = (
{
pos = (1684,1896);
},
{
angle = 90;
pos = (1380,964);
}
);
layerId = "D0EC06BF-13F9-4C88-A6F5-B8203AF6C77E";
shapes = (
{
closed = 1;
nodes = (
(896,1079,l),
(908,1079,l),
(1053,0,l),
(1489,0,l),
(1245,1489,l),
(692,1489,l),
(-47,0,l),
(390,0,l)
);
},
{
closed = 1;
nodes = (
(355,285,l),
(1175,285,l),
(1228,588,l),
(407,588,l)
);
}
);
width = 1629;
},
{
anchors = (
{
name = bottom;
pos = (847,0);
},
{
name = ogonek;
pos = (1615,0);
},
{
name = right;
pos = (1641,0);
},
{
name = tonos;
pos = (550,1489);
},
{
name = top;
pos = (847,1585);
}
);
associatedMasterId = "5C20EF92-B63D-42A8-8878-93C2863E0093";
guides = (
{
pos = (1084,1364);
},
{
orientation = center;
angle = 90;
pos = (1068,964);
}
);
layerId = "7739C87E-652B-47A4-908A-8763081DE4BF";
name = "Oct 2 18, 14:33";
shapes = (
{
closed = 1;
nodes = (
(841,992,l),
(852,992,l),
(1204,0,l),
(1641,0,l),
(1065,1489,l),
(631,1489,l),
(52,0,l),
(489,0,l)
);
},
{
closed = 1;
nodes = (
(407,233,l),
(1286,233,l),
(1286,547,l),
(407,547,l)
);
}
);
width = 1693;
},
{
anchors = (
{
name = bottom;
pos = (631,0);
},
{
name = ogonek;
pos = (1196,0);
},
{
name = tonos;
pos = (527,1489);
},
{
name = top;
pos = (631,1676);
}
);
layerId = "B1F27B51-9973-4381-9301-4FE46FE1CA59";
shapes = (
{
closed = 1;
nodes = (
(628,1431,l),
(634,1431,l),
(1146,0,l),
(1196,0,l),
(663,1489,l),
(599,1489,l),
(67,0,l),
(116,0,l)
);
},
{
closed = 1;
nodes = (
(285,503,l),
(977,503,l),
(977,550,l),
(285,550,l)
);
}
);
width = 1263;
},
{
anchors = (
{
name = bottom;
pos = (538,0);
},
{
name = ogonek;
pos = (1103,0);
},
{
name = tonos;
pos = (681,1489);
},
{
name = top;
pos = (817,1676);
}
);
layerId = "200BE2C5-40F6-4CF4-AF4F-A33C0CC0964F";
shapes = (
{
closed = 1;
nodes = (
(774,1431,l),
(780,1431,l),
(1053,0,l),
(1103,0,l),
(817,1489,l),
(753,1489,l),
(-26,0,l),
(23,0,l)
);
},
{
closed = 1;
nodes = (
(276,503,l),
(969,503,l),
(977,550,l),
(285,550,l)
);
}
);
width = 1263;
}
);
unicode = 65;
userData = {
com.typemytype.robofont.guideline.magnetic.9EkLRXjahr = 5;
"interface.width-adjustments" = (
-16
);
};
}
{
color = (219,235,247,1);
glyphname = B;
kernLeft = B;
kernRight = B;
layers = (
{
anchors = (
{
name = bottom;
pos = (646,0);
},
{
name = top;
pos = (637,1676);
}
);
guides = (
{
angle = 90;
pos = (924,1772);
},
{
angle = 90;
pos = (1612,1340);
}
);
layerId = "C698F293-3EC0-4A5A-A3A0-0FDB1F5CF265";
shapes = (
{
closed = 1;
nodes = (
(719,0,ls),
(1071,0,o),
(1216,172,o),
(1216,396,cs),
(1216,631,o),
(1053,759,o),
(916,768,c),
(916,783,l),
(1044,817,o),
(1158,902,o),
(1158,1094,cs),
(1158,1312,o),
(1012,1489,o),
(701,1489,cs),
(180,1489,l),
(180,0,l)
);
},
{
closed = 1;
nodes = (
(361,678,l),
(727,678,ls),
(922,678,o),
(1044,547,o),
(1044,396,cs),
(1044,265,o),
(954,160,o),
(719,160,cs),
(361,160,l)
);
},
{
closed = 1;
nodes = (
(361,1329,l),
(701,1329,ls),
(899,1329,o),
(986,1225,o),
(986,1094,cs),
(986,937,o),
(858,835,o),
(695,835,cs),
(361,835,l)
);
}
);
width = 1332;
},
{
anchors = (
{
name = bottom;
pos = (663,0);
},
{
name = top;
pos = (666,1676);
}
);
guides = (
{
orientation = center;
angle = 90;
pos = (760,716);
}
);
layerId = "5C20EF92-B63D-42A8-8878-93C2863E0093";
shapes = (
{
closed = 1;
nodes = (
(797,0,ls),
(1121,0,o),
(1321,177,o),
(1321,422,cs),
(1321,632,o),
(1166,769,o),
(975,777,c),
(975,791,l),
(1147,825,o),
(1263,953,o),
(1263,1117,cs),
(1263,1344,o),
(1082,1489,o),
(742,1489,cs),
(96,1489,l),
(96,0,l)
);
},
{
closed = 1;
nodes = (
(500,637,l),
(695,637,ls),
(818,637,o),
(893,579,o),
(893,474,cs),
(893,375,o),
(825,323,o),
(689,323,cs),
(500,323,l)
);
},
{
closed = 1;
nodes = (
(500,1172,l),
(672,1172,ls),
(772,1172,o),
(847,1121,o),
(847,1030,cs),
(847,938,o),
(772,887,o),
(666,887,cs),
(500,887,l)
);
}
);
width = 1367;
},
{
anchors = (
{
name = bottom;
pos = (553,0);
},
{
name = top;
pos = (823,1676);
}
);
guides = (
{
angle = 90;
pos = (1424,1772);
},
{
angle = 90;
pos = (1896,1340);
}
);
layerId = "11F4534A-B963-4AB5-820F-DAF9A20CD933";
shapes = (
{
closed = 1;
nodes = (
(625,0,ls),
(977,0,o),
(1152,172,o),
(1190,396,cs),
(1228,631,o),
(1085,759,o),
(951,768,c),
(954,783,l),
(1085,817,o),
(1213,902,o),
(1245,1094,cs),
(1283,1312,o),
(1167,1489,o),
(855,1489,cs),
(335,1489,l),
(87,0,l)
);
},
{
closed = 1;
nodes = (
(381,678,l),
(748,678,ls),
(943,678,o),
(1041,547,o),
(1018,396,cs),
(995,265,o),
(887,160,o),
(652,160,cs),
(294,160,l)
);
},
{
closed = 1;
nodes = (
(489,1329,l),
(829,1329,ls),
(1027,1329,o),
(1097,1225,o),
(1073,1094,cs),
(1050,937,o),
(905,835,o),
(742,835,cs),
(407,835,l)
);
}
);
width = 1332;
},
{
anchors = (
{
name = bottom;
pos = (570,0);
},
{
name = top;
pos = (852,1676);
}
);
guides = (
{
orientation = center;
angle = 90;
pos = (720,716);
}
);
layerId = "D0EC06BF-13F9-4C88-A6F5-B8203AF6C77E";
shapes = (
{
closed = 1;
nodes = (
(704,0,ls),
(1027,0,o),
(1257,177,o),
(1297,422,cs),
(1332,631,o),
(1201,771,o),
(1009,777,c),
(1012,791,l),
(1190,826,o),
(1327,954,o),
(1356,1117,cs),
(1393,1344,o),
(1236,1489,o),
(896,1489,cs),
(250,1489,l),
(3,0,l)
);
},
{
closed = 1;
nodes = (
(512,637,l),
(707,637,ls),
(832,637,o),
(896,579,o),
(879,474,cs),
(864,375,o),
(785,323,o),
(652,323,cs),
(463,323,l)
);
},
{
closed = 1;
nodes = (
(602,1172,l),
(774,1172,ls),
(873,1172,o),
(940,1123,o),
(925,1030,cs),
(911,940,o),
(826,887,o),
(721,887,cs),
(556,887,l)
);
}
);
width = 1367;
},
{
anchors = (
{
name = bottom;
pos = (637,0);
},
{
name = top;
pos = (620,1676);
}
);
guides = (
{
orientation = center;
angle = 180;
pos = (944,1040);
}
);
layerId = "B1F27B51-9973-4381-9301-4FE46FE1CA59";
shapes = (
{
closed = 1;
nodes = (
(748,0,ls),
(1004,0,o),
(1155,151,o),
(1155,381,cs),
(1155,588,o),
(1031,740,o),
(870,753,c),
(870,759,l),
(1014,796,o),
(1097,936,o),
(1097,1111,cs),
(1097,1346,o),
(948,1489,o),
(698,1489,cs),
(233,1489,l),
(233,0,l)
);
},
{
closed = 1;
nodes = (
(279,733,l),
(748,733,ls),
(958,733,o),
(1108,588,o),
(1108,381,cs),
(1108,180,o),
(966,47,o),
(748,47,cs),
(279,47,l)
);
},
{
closed = 1;
nodes = (
(279,1443,l),
(698,1443,ls),
(915,1443,o),
(1050,1323,o),
(1050,1111,cs),
(1050,934,o),
(951,780,o),
(748,780,cs),
(279,780,l)
);
}
);
width = 1312;
},
{
anchors = (
{
name = bottom;
pos = (544,0);
},
{
name = top;
pos = (806,1676);
}
);
layerId = "200BE2C5-40F6-4CF4-AF4F-A33C0CC0964F";
shapes = (
{
closed = 1;
nodes = (
(655,0,ls),
(911,0,o),
(1088,151,o),
(1126,381,cs),
(1161,588,o),
(1062,739,o),
(902,753,c),
(902,759,l),
(1053,797,o),
(1158,937,o),
(1187,1111,cs),
(1228,1347,o),
(1103,1489,o),
(852,1489,cs),
(387,1489,l),
(140,0,l)
);
},
{
closed = 1;
nodes = (
(308,733,l),
(777,733,ls),
(986,733,o),
(1114,588,o),
(1079,381,cs),
(1044,180,o),
(881,47,o),
(663,47,cs),
(195,47,l)
);
},
{
closed = 1;
nodes = (
(425,1443,l),
(844,1443,ls),
(1062,1443,o),
(1175,1324,o),
(1140,1111,cs),
(1111,934,o),
(986,780,o),
(785,780,cs),
(317,780,l)
);
}
);
width = 1312;
}
);
metricLeft = H;
unicode = 66;
userData = {
com.typemytype.robofont.guideline.magnetic.olHMUUD5VH = 5;
com.typemytype.robofont.guideline.magnetic.rWKPWS6RQH = 5;
"interface.width-adjustments" = (
-16
);
};
}
{
color = (219,235,247,1);
glyphname = C;
kernLeft = C;
kernRight = C;
layers = (
{
anchors = (
{
name = cedilla;
pos = (780,-12);
},
{
name = top;
pos = (780,1676);
}
);
background = {
shapes = (
{
ref = O;
}
);
};
guides = (
{
angle = 90;
pos = (1072,1432);
}
);
layerId = "C698F293-3EC0-4A5A-A3A0-0FDB1F5CF265";
shapes = (
{
closed = 1;
nodes = (
(1324,1329,o),
(1079,1510,o),
(780,1510,cs),
(399,1510,o),
(122,1216,o),
(122,745,c),
(122,273,o),
(399,-20,o),
(780,-20,cs),
(1079,-20,o),
(1324,160,o),
(1379,465,c),
(1199,465,l),
(1155,259,o),
(977,148,o),
(780,148,cs),
(509,148,o),
(297,358,o),
(297,745,c),
(297,1132,o),
(509,1341,o),
(780,1341,cs),
(977,1341,o),
(1155,1231,o),
(1199,1024,c),
(1379,1024,l)
);
}
);
width = 1489;
},
{
anchors = (
{
name = cedilla;
pos = (800,6);
},
{
name = top;
pos = (809,1676);
}
);
background = {
hints = (
{
horizontal = 1;
place = (-20,21);
target = up;
type = BottomGhost;
},
{
horizontal = 1;
place = (1510,-20);
target = down;
type = TopGhost;
},
{
horizontal = 1;
options = 4;
place = (-20,0);
type = TTSnap;
},
{
horizontal = 1;
options = 4;
place = (1510,0);
type = TTSnap;
},
{
horizontal = 1;
place = (-20,21);
target = up;
type = BottomGhost;
},
{
horizontal = 1;
place = (1510,-20);
target = down;
type = TopGhost;
},
{
horizontal = 1;
options = 4;
place = (-20,0);
type = TTSnap;
},
{
horizontal = 1;
options = 4;
place = (1510,0);
type = TTSnap;
},
{
horizontal = 1;
place = (-20,21);
target = up;
type = BottomGhost;
},
{
horizontal = 1;
place = (1510,-20);
target = down;
type = TopGhost;
},
{
horizontal = 1;
options = 4;
place = (-20,0);
type = TTSnap;
},
{
horizontal = 1;
options = 4;
place = (1510,0);
type = TTSnap;
}
);
shapes = (
{
ref = O;
}
);
};
guides = (
{
pos = (1160,1024);
},
{
pos = (12,0);
}
);
layerId = "5C20EF92-B63D-42A8-8878-93C2863E0093";
shapes = (
{
closed = 1;
nodes = (
(1455,1300,o),
(1184,1510,o),
(809,1510,cs),
(407,1510,o),
(90,1242,o),
(90,745,c),
(90,249,o),
(399,-20,o),
(809,-20,cs),
(1245,-20,o),
(1466,282,o),
(1487,535,c),
(1076,538,l),
(1056,411,o),
(966,332,o),
(817,332,cs),
(620,332,o),
(506,471,o),
(506,745,c),
(506,1004,o),
(617,1158,o),
(820,1158,cs),
(976,1158,o),
(1065,1066,o),
(1076,931,c),
(1487,931,l)
);
}
);
width = 1574;
},
{
anchors = (
{
name = cedilla;
pos = (695,-12);
},
{
name = top;
pos = (969,1676);
}
);
guides = (
{
angle = 90;
pos = (1612,1432);
},
{
angle = -99.4;
pos = (1064,692);
}
);
layerId = "11F4534A-B963-4AB5-820F-DAF9A20CD933";
shapes = (
{
closed = 1;
nodes = (
(1449,1329,o),
(1231,1510,o),
(928,1510,cs),
(550,1510,o),
(233,1222,o),
(154,756,c),
(76,279,o),
(308,-20,o),
(695,-20,cs),
(989,-20,o),
(1257,160,o),
(1364,465,c),
(1184,465,l),
(1105,259,o),
(905,148,o),
(701,148,cs),
(436,148,o),
(262,352,o),
(326,733,c),
(390,1126,o),
(643,1341,o),
(919,1341,cs),
(1111,1341,o),
(1268,1231,o),
(1277,1024,c),
(1455,1024,l)
);
}
);
width = 1489;
},
{
anchors = (
{
name = bottom_dd;
pos = (1251,-407);
},
{
name = cedilla;
pos = (687,-12);
},
{
name = top;
pos = (966,1676);
},
{
name = top0315;
pos = (1588,1632);
},
{
name = top_dd;
pos = (1583,1600);
}
);
associatedMasterId = "11F4534A-B963-4AB5-820F-DAF9A20CD933";
guides = (
{
angle = 90;
pos = (1392,1432);
}
);
layerId = "773773F7-3DB5-4147-B766-F86286931301";
name = "Sep 11 18, 23:27";
shapes = (
{
closed = 1;
nodes = (
(1452,1329,o),
(1236,1510,o),
(937,1510,cs),
(556,1510,o),
(230,1216,o),
(154,745,c),
(76,273,o),
(303,-20,o),
(684,-20,cs),
(983,-20,o),
(1257,160,o),
(1364,465,c),
(1184,465,l),
(1105,259,o),
(911,148,o),
(713,148,cs),
(442,148,o),
(265,358,o),
(329,745,c),
(393,1132,o),
(640,1341,o),
(911,1341,cs),
(1108,1341,o),
(1265,1231,o),
(1274,1024,c),
(1455,1024,l)
);
}
);
width = 1489;
},
{
anchors = (
{
name = cedilla;
pos = (706,6);
},
{
name = top;
pos = (994,1676);
}
);
background = {
shapes = (
{
pos = (11,0);
ref = O;
}
);
};
guides = (
{
pos = (1623,1024);
},
{
pos = (-1391,0);
},
{
angle = -99.4;
pos = (935,584);
}
);
layerId = "D0EC06BF-13F9-4C88-A6F5-B8203AF6C77E";
shapes = (
{
closed = 1;
nodes = (
(1574,1300,o),
(1332,1510,o),
(943,1510,cs),
(556,1510,o),
(207,1257,o),
(126,768,c),
(44,262,o),
(314,-20,o),
(734,-20,cs),
(1161,-20,o),
(1420,285,o),
(1481,538,c),
(1074,538,l),
(1033,413,o),
(919,332,o),
(757,332,cs),
(573,332,o),
(492,460,o),
(533,721,c),
(579,992,o),
(727,1158,o),
(940,1158,cs),
(1088,1158,o),
(1152,1068,o),
(1141,931,c),
(1545,931,l)
);
}
);
width = 1620;
},
{
anchors = (
{
name = bottom_dd;
pos = (1315,-407);
},
{
name = cedilla;
pos = (681,6);
},
{
name = top;
pos = (940,1585);
},
{
name = top0315;
pos = (1647,1588);
},
{
name = top_dd;
pos = (1647,1600);
}
);
associatedMasterId = "D0EC06BF-13F9-4C88-A6F5-B8203AF6C77E";
background = {
shapes = (
{
ref = O;
}
);
};
guides = (
{
pos = (1232,1024);
},
{
pos = (-256,0);
}
);
layerId = "06889DA9-D1FD-4E3E-9B69-96C5F07B1474";
name = "Sep 14 18, 09:35";
shapes = (
{
closed = 1;
nodes = (
(1539,1295,o),
(1283,1510,o),
(937,1510,cs),
(547,1510,o),
(192,1233,o),
(113,745,c),
(32,256,o),
(279,-20,o),
(695,-20,cs),
(1129,-20,o),
(1376,282,o),
(1437,535,c),
(1027,538,l),
(989,413,o),
(879,337,o),
(748,337,cs),
(564,337,o),
(480,489,o),
(524,745,c),
(564,1004,o),
(704,1155,o),
(884,1155,cs),
(1012,1155,o),
(1100,1079,o),
(1091,931,c),
(1501,931,l)
);
}
);
width = 1521;
},
{
anchors = (
{
name = cedilla;
pos = (765,0);
},
{
name = top;
pos = (765,1676);
}
);
layerId = "B1F27B51-9973-4381-9301-4FE46FE1CA59";
shapes = (
{
closed = 1;
nodes = (
(1299,1236,o),
(1116,1510,o),
(765,1510,cs),
(399,1510,o),
(148,1201,o),
(148,745,cs),
(148,288,o),
(399,-20,o),
(765,-20,cs),
(1116,-20,o),
(1299,256,o),
(1335,465,c),
(1286,465,l),
(1249,265,o),
(1069,26,o),
(765,26,cs),
(460,26,o),
(195,276,o),
(195,745,cs),
(195,1207,o),
(460,1463,o),
(765,1463,cs),
(1069,1463,o),
(1249,1222,o),
(1286,1024,c),
(1335,1024,l)
);
}
);
width = 1481;
},
{
anchors = (
{
name = cedilla;
pos = (669,0);
},
{
name = top;
pos = (948,1676);
}
);
layerId = "200BE2C5-40F6-4CF4-AF4F-A33C0CC0964F";
shapes = (
{
closed = 1;
nodes = (
(1408,1236,o),
(1271,1510,o),
(919,1510,cs),
(553,1510,o),
(252,1201,o),
(177,745,cs),
(100,288,o),
(300,-20,o),
(666,-20,cs),
(1017,-20,o),
(1246,256,o),
(1318,465,c),
(1268,465,l),
(1198,265,o),
(978,26,o),
(675,26,cs),
(369,26,o),
(145,276,o),
(224,745,cs),
(300,1207,o),
(607,1463,o),
(911,1463,cs),
(1216,1463,o),
(1356,1222,o),
(1359,1024,c),
(1408,1024,l)
);
}
);
width = 1481;
}
);
metricLeft = O;
unicode = 67;
userData = {
com.typemytype.robofont.guideline.magnetic.ju3ppiFr9V = 5;
"interface.width-adjustments" = (
-16
);
};
}
{
color = (219,235,247,1);
glyphname = D;
kernLeft = B;
kernRight = D;
layers = (
{
anchors = (
{
name = bottom;
pos = (623,0);
},
{
name = cross;
pos = (271,768);
},
{
name = top;
pos = (617,1676);
}
);
layerId = "C698F293-3EC0-4A5A-A3A0-0FDB1F5CF265";
shapes = (
{
closed = 1;
nodes = (
(1094,0,o),
(1350,282,o),
(1350,748,cs),
(1350,1210,o),
(1094,1489,o),
(660,1489,cs),
(273,1489,l),
(273,1329,l),
(649,1329,ls),
(998,1329,o),
(1175,1108,o),
(1175,748,cs),
(1175,384,o),
(998,160,o),
(628,160,cs),
(282,160,l),
(282,0,l),
(640,0,ls)
);
},
{
closed = 1;
nodes = (
(180,1489,l),
(180,0,l),
(361,0,l),
(361,1489,l)
);
}
);
width = 1472;
},
{
anchors = (
{
name = bottom;
pos = (675,0);
},
{
name = cross;
pos = (297,788);
},
{
name = top;
pos = (593,1676);
}
);
guides = (
{
pos = (1920,1024);
},
{
pos = (12,764);
},
{
pos = (12,1548);
},
{
pos = (1884,1696);
},
{
pos = (1884,348);
},
{
pos = (1420,1480);
},
{
pos = (1484,560);
}
);
layerId = "5C20EF92-B63D-42A8-8878-93C2863E0093";
shapes = (
{
closed = 1;
nodes = (
(1123,0,o),
(1411,279,o),
(1411,745,c),
(1411,1210,o),
(1123,1489,o),
(663,1489,c),
(256,1489,l),
(256,1146,l),
(643,1146,l),
(876,1146,o),
(1004,1056,o),
(1004,745,c),
(1004,433,o),
(876,343,o),
(655,343,c),
(262,343,l),
(262,0,l),
(669,0,l)
);
},
{
closed = 1;
nodes = (
(96,1489,l),
(96,0,l),
(500,0,l),
(500,1489,l)
);
}
);
width = 1501;
},
{
anchors = (
{
name = bottom;
pos = (436,0);
},
{
name = cross;
pos = (340,768);
},
{
name = top;
pos = (989,1676);
}
);
layerId = "11F4534A-B963-4AB5-820F-DAF9A20CD933";
shapes = (
{
closed = 1;
nodes = (
(1007,0,o),
(1303,276,o),
(1379,736,cs),
(1457,1204,o),
(1242,1489,o),
(809,1489,cs),
(428,1489,l),
(401,1329,l),
(783,1329,ls),
(1132,1329,o),
(1268,1114,o),
(1207,759,cs),
(1146,390,o),
(928,160,o),
(559,160,cs),
(215,160,l),
(189,0,l),
(553,0,ls)
);
},
{
closed = 1;
nodes = (
(335,1489,l),
(87,0,l),
(268,0,l),
(515,1489,l)
);
}
);
width = 1472;
},
{
anchors = (
{
name = bottom;
pos = (529,0);
},
{
name = bottom_dd;
pos = (1190,-407);
},
{
name = cross;
pos = (305,768);
},
{
name = top;
pos = (803,1676);
},
{
name = top0315;
pos = (1524,1612);
},
{
name = top_dd;
pos = (1521,1600);
}
);
associatedMasterId = "11F4534A-B963-4AB5-820F-DAF9A20CD933";
layerId = "43B3EEE0-AAB0-4149-B835-61E9C8667B70";
name = "Sep 11 18, 23:23";
shapes = (
{
closed = 1;
nodes = (
(1001,0,o),
(1303,282,o),
(1382,748,c),
(1457,1210,o),
(1248,1489,o),
(815,1489,c),
(428,1489,l),
(401,1329,l),
(777,1329,l),
(1126,1329,o),
(1265,1108,o),
(1207,748,c),
(1146,384,o),
(931,160,o),
(561,160,c),
(215,160,l),
(189,0,l),
(547,0,l)
);
},
{
closed = 1;
nodes = (
(335,1489,l),
(87,0,l),
(268,0,l),
(515,1489,l)
);
}
);
width = 1472;
},
{
anchors = (
{
name = bottom;
pos = (582,0);
},
{
name = cross;
pos = (335,788);
},
{
name = top;
pos = (780,1676);
}
);
guides = (
{
pos = (2176,1024);
},
{
pos = (8,764);
},
{
pos = (788,1548);
},
{
pos = (2804,1696);
},
{
pos = (1468,348);
},
{
pos = (2124,1480);
},
{
pos = (1276,560);
}
);
layerId = "D0EC06BF-13F9-4C88-A6F5-B8203AF6C77E";
shapes = (
{
closed = 1;
nodes = (
(1039,0,o),
(1361,268,o),
(1437,724,c),
(1516,1199,o),
(1268,1489,o),
(809,1489,c),
(410,1489,l),
(352,1146,l),
(748,1146,l),
(980,1146,o),
(1088,1068,o),
(1039,765,c),
(986,445,o),
(832,343,o),
(611,343,c),
(227,343,l),
(169,0,l),
(585,0,l)
);
},
{
closed = 1;
nodes = (
(250,1489,l),
(3,0,l),
(407,0,l),
(655,1489,l)
);
}
);
width = 1501;
},
{
anchors = (
{
name = bottom;
pos = (573,0);
},
{
name = bottom_dd;
pos = (1327,-407);
},
{
name = cross;
pos = (326,788);
},
{
name = top;
pos = (753,1585);
},
{
name = top0315;
pos = (1658,1594);
},
{
name = top_dd;
pos = (1658,1600);
}
);
associatedMasterId = "D0EC06BF-13F9-4C88-A6F5-B8203AF6C77E";
guides = (
{
pos = (1992,1024);
},
{
pos = (0,764);
},
{
pos = (260,1548);
},
{
pos = (2180,1696);
},
{
pos = (1732,348);
},
{
pos = (1644,1480);
},
{
pos = (1404,560);
}
);
layerId = "E3EE1E77-C165-47A6-B00B-72F4081D370D";
name = "Sep 14 18, 09:46";
shapes = (
{
closed = 1;
nodes = (
(1021,0,o),
(1356,279,o),
(1434,745,c),
(1510,1210,o),
(1268,1489,o),
(809,1489,c),
(401,1489,l),
(343,1146,l),
(730,1146,l),
(963,1146,o),
(1076,1056,o),
(1027,745,c),
(975,433,o),
(832,343,o),
(611,343,c),
(218,343,l),
(160,0,l),
(567,0,l)
);
},
{
closed = 1;
nodes = (
(241,1489,l),
(-6,0,l),
(399,0,l),
(646,1489,l)
);
}
);
width = 1484;
},
{
anchors = (
{
name = bottom;
pos = (591,0);
},
{
name = cross;
pos = (256,756);
},
{
name = top;
pos = (631,1676);
}
);
layerId = "B1F27B51-9973-4381-9301-4FE46FE1CA59";
shapes = (
{
closed = 1;
nodes = (
(1060,0,o),
(1313,275,o),
(1315,751,cs),
(1316,1214,o),
(1071,1489,o),
(660,1489,cs),
(256,1489,l),
(256,1443,l),
(660,1443,ls),
(1047,1443,o),
(1267,1185,o),
(1268,751,cs),
(1270,309,o),
(1036,47,o),
(623,47,cs),
(256,47,l),
(256,0,l),
(623,0,ls)
);
},
{
closed = 1;
nodes = (
(233,1489,l),
(233,0,l),
(279,0,l),
(279,1489,l)
);
}
);
width = 1463;
},
{
anchors = (
{
name = bottom;
pos = (497,0);
},
{
name = cross;
pos = (288,756);
},
{
name = top;
pos = (817,1676);
}
);
layerId = "200BE2C5-40F6-4CF4-AF4F-A33C0CC0964F";
shapes = (
{
closed = 1;
nodes = (
(966,0,o),
(1265,276,o),
(1347,751,cs),
(1425,1213,o),
(1225,1489,o),
(815,1489,cs),
(410,1489,l),
(401,1443,l),
(806,1443,ls),
(1201,1443,o),
(1372,1193,o),
(1300,751,cs),
(1231,317,o),
(943,47,o),
(538,47,cs),
(172,47,l),
(163,0,l),
(529,0,ls)
);
},
{
closed = 1;
nodes = (
(387,1489,l),
(140,0,l),
(186,0,l),
(433,1489,l)
);
}
);
width = 1465;
}
);
metricLeft = H;
metricRight = O;
note = "!post:RemoveOverlap";
unicode = 68;
userData = {
"interface.width-adjustments" = (
-16
);
};
}
{
color = (219,235,247,1);
glyphname = E;
kernLeft = B;
kernRight = E;
layers = (
{
anchors = (
{
name = bottom;
pos = (614,0);
},
{
name = cedilla;
pos = (617,0);
},
{
name = ogonek;
pos = (1091,0);
},
{
name = tonos;
pos = (134,1489);
},
{
name = top;
pos = (628,1676);
}
);
guides = (
{
orientation = center;
angle = 90;
pos = (1044,516);
}
);
layerId = "C698F293-3EC0-4A5A-A3A0-0FDB1F5CF265";
shapes = (
{
closed = 1;
nodes = (
(1091,0,l),
(1091,160,l),
(361,160,l),
(361,666,l),
(1033,666,l),
(1033,826,l),
(361,826,l),
(361,1329,l),
(1079,1329,l),
(1079,1489,l),
(180,1489,l),
(180,0,l)
);
}
);
width = 1225;
},
{
anchors = (
{
name = bottom;
pos = (637,0);
},
{
name = cedilla;
pos = (640,0);
},
{
name = ogonek;
pos = (1167,0);
},
{
name = tonos;
pos = (55,1489);
},
{
name = top;
pos = (637,1676);
}
);
guides = (
{
pos = (12,1360);
},
{
orientation = center;
angle = 90;
pos = (936,620);
}
);
layerId = "5C20EF92-B63D-42A8-8878-93C2863E0093";
shapes = (
{
closed = 1;
nodes = (
(1167,0,l),
(1167,326,l),
(500,326,l),
(500,582,l),
(1114,582,l),
(1114,908,l),
(500,908,l),
(500,1164,l),
(1169,1164,l),
(1169,1489,l),
(96,1489,l),
(96,0,l)
);
}
);
width = 1274;
},
{
anchors = (
{
name = bottom;
pos = (521,0);
},
{
name = cedilla;
pos = (524,0);
},
{
name = ogonek;
pos = (998,0);
},
{
name = tonos;
pos = (288,1489);
},
{
name = top;
pos = (815,1676);
}
);
guides = (
{
orientation = center;
angle = 90;
pos = (836,516);
}
);
layerId = "11F4534A-B963-4AB5-820F-DAF9A20CD933";
shapes = (
{
closed = 1;
nodes = (
(998,0,l),
(1024,160,l),
(294,160,l),
(378,666,l),
(1050,666,l),
(1076,826,l),
(404,826,l),
(489,1329,l),
(1207,1329,l),
(1233,1489,l),
(335,1489,l),
(87,0,l)
);
}
);
width = 1225;
},
{
anchors = (
{
name = bottom;
pos = (544,0);
},
{
name = cedilla;
pos = (547,0);
},
{
name = ogonek;
pos = (1073,0);
},
{
name = tonos;
pos = (209,1489);
},
{
name = top;
pos = (823,1676);
}
);
guides = (
{
pos = (308,1360);
},
{
orientation = center;
angle = 90;
pos = (864,620);
}
);
layerId = "D0EC06BF-13F9-4C88-A6F5-B8203AF6C77E";
shapes = (
{
closed = 1;
nodes = (
(1073,0,l),
(1129,326,l),
(463,326,l),
(503,582,l),
(1117,582,l),
(1172,908,l),
(559,908,l),
(599,1164,l),
(1268,1164,l),
(1324,1489,l),
(250,1489,l),
(3,0,l)
);
}
);
width = 1274;
},
{
anchors = (
{
name = bottom;
pos = (599,0);
},
{
name = cedilla;
pos = (602,0);
},
{
name = ogonek;
pos = (1047,0);
},
{
name = tonos;
pos = (180,1489);
},
{
name = top;
pos = (634,1676);
}
);
layerId = "B1F27B51-9973-4381-9301-4FE46FE1CA59";
shapes = (
{
closed = 1;
nodes = (
(1047,0,l),
(1047,47,l),
(279,47,l),
(279,721,l),
(983,721,l),
(983,768,l),
(279,768,l),
(279,1443,l),
(1027,1443,l),
(1027,1489,l),
(233,1489,l),
(233,0,l)
);
}
);
width = 1196;
},
{
anchors = (
{
name = bottom;
pos = (506,0);
},
{
name = cedilla;
pos = (509,0);
},
{
name = ogonek;
pos = (954,0);
},
{
name = tonos;
pos = (335,1489);
},
{
name = top;
pos = (817,1676);
}
);
layerId = "200BE2C5-40F6-4CF4-AF4F-A33C0CC0964F";
shapes = (
{
closed = 1;
nodes = (
(954,0,l),
(963,47,l),
(195,47,l),
(305,721,l),
(1009,721,l),
(1018,768,l),
(314,768,l),
(425,1443,l),
(1172,1443,l),
(1181,1489,l),
(387,1489,l),
(140,0,l)
);
}
);
width = 1196;
}
);
metricLeft = H;
unicode = 69;
userData = {
"interface.width-adjustments" = (
-16
);
};
}
{
color = (219,235,247,1);
glyphname = F;
kernLeft = B;
kernRight = F;
layers = (
{
anchors = (
{
name = bottom;
pos = (559,12);
},
{
name = cross;
pos = (271,349);
},
{
name = top;
pos = (646,1676);
}
);
background = {
shapes = (
{
ref = E;
}
);
};
layerId = "C698F293-3EC0-4A5A-A3A0-0FDB1F5CF265";
shapes = (
{
closed = 1;
nodes = (
(361,0,l),
(361,666,l),
(1007,666,l),
(1007,826,l),
(361,826,l),
(361,1329,l),
(1073,1329,l),
(1073,1489,l),
(180,1489,l),
(180,0,l)
);
}
);
width = 1201;
},
{
anchors = (
{
name = bottom;
pos = (643,12);
},
{
name = cross;
pos = (297,250);
},
{
name = top;
pos = (623,1676);
}
);
background = {
shapes = (
{
ref = E;
}
);
};
guides = (
{
pos = (12,1320);
}
);
layerId = "5C20EF92-B63D-42A8-8878-93C2863E0093";
shapes = (
{
closed = 1;
nodes = (
(500,0,l),
(500,582,l),
(1079,582,l),
(1079,908,l),
(500,908,l),
(500,1164,l),
(1143,1164,l),
(1143,1489,l),
(96,1489,l),
(96,0,l)
);
}
);
width = 1196;
},
{
anchors = (
{
name = bottom;
pos = (468,12);
},
{
name = cross;
pos = (236,349);
},
{
name = top;
pos = (832,1676);
}
);
layerId = "11F4534A-B963-4AB5-820F-DAF9A20CD933";
shapes = (
{
closed = 1;
nodes = (
(268,0,l),
(378,666,l),
(1024,666,l),
(1050,826,l),
(404,826,l),
(489,1329,l),
(1201,1329,l),
(1228,1489,l),
(335,1489,l),
(87,0,l)
);
}
);
width = 1201;
},
{
anchors = (
{
name = bottom;
pos = (553,12);
},
{
name = cross;
pos = (244,250);
},
{
name = top;
pos = (809,1676);
}
);
guides = (
{
pos = (288,1320);
}
);
layerId = "D0EC06BF-13F9-4C88-A6F5-B8203AF6C77E";
shapes = (
{
closed = 1;
nodes = (
(407,0,l),
(503,582,l),
(1082,582,l),
(1137,908,l),
(559,908,l),
(599,1164,l),
(1242,1164,l),
(1297,1489,l),
(250,1489,l),
(3,0,l)
);
}
);
width = 1196;
},
{
anchors = (
{
name = bottom;
pos = (509,12);
},
{
name = cross;
pos = (256,410);
},
{
name = top;
pos = (634,1676);
}
);
guides = (
{
angle = 90;
pos = (872,2220);
}
);
layerId = "B1F27B51-9973-4381-9301-4FE46FE1CA59";
shapes = (
{
closed = 1;
nodes = (
(279,0,l),
(279,721,l),
(963,721,l),
(963,768,l),
(279,768,l),
(279,1443,l),
(1033,1443,l),
(1033,1489,l),
(233,1489,l),
(233,0,l)
);
}
);
width = 1199;
},
{
anchors = (
{
name = bottom;
pos = (419,12);
},
{
name = cross;
pos = (233,410);
},
{
name = top;
pos = (820,1676);
}
);
layerId = "200BE2C5-40F6-4CF4-AF4F-A33C0CC0964F";
shapes = (
{
closed = 1;
nodes = (
(186,0,l),
(305,721,l),
(989,721,l),
(998,768,l),
(314,768,l),
(425,1443,l),
(1178,1443,l),
(1187,1489,l),
(387,1489,l),
(140,0,l)
);
}
);
width = 1199;
}
);
metricLeft = H;
unicode = 70;
userData = {
"interface.width-adjustments" = (
-16
);
};
}
{
color = (219,235,247,1);
glyphname = G;
kernLeft = C;
kernRight = G;
layers = (
{
anchors = (
{
name = bottom;
pos = (771,0);
},
{
name = top;
pos = (774,1676);
}
);
background = {
shapes = (
{
ref = C;
}
);
};
guides = (
{
pos = (1880,1408);
},
{
angle = 90;
pos = (1892,1304);
},
{
angle = 90;
pos = (1056,1644);
}
);
layerId = "C698F293-3EC0-4A5A-A3A0-0FDB1F5CF265";
shapes = (
{
closed = 1;
nodes = (
(1385,1024,l),
(1329,1312,o),
(1088,1510,o),
(774,1510,cs),
(392,1510,o),
(122,1216,o),
(122,745,cs),
(122,273,o),
(390,-20,o),
(785,-20,cs),
(1140,-20,o),
(1393,216,o),
(1393,585,cs),
(1393,745,l),
(826,745,l),
(826,585,l),
(1274,585,l),
(1219,596,l),
(1219,322,o),
(1041,148,o),
(785,148,cs),
(509,148,o),
(297,358,o),
(297,745,cs),
(297,1132,o),
(509,1341,o),
(774,1341,cs),
(989,1341,o),
(1135,1220,o),
(1199,1024,c)
);
}
);
width = 1521;
},
{
anchors = (
{
name = bottom;
pos = (803,6);
},
{
name = top;
pos = (806,1676);
}
);
background = {
shapes = (
{
ref = C;
}
);
};
guides = (
{
angle = 7.9575;
pos = (1036,1320);
},
{
orientation = center;
angle = 90;
pos = (1036,528);
},
{
pos = (1372,756);
}
);
layerId = "5C20EF92-B63D-42A8-8878-93C2863E0093";
shapes = (
{
closed = 1;
nodes = (
(1472,998,l),
(1441,1297,o),
(1169,1510,o),
(817,1510,cs),
(416,1510,o),
(90,1233,o),
(90,742,cs),
(90,271,o),
(385,-20,o),
(820,-20,cs),
(1210,-20,o),
(1489,218,o),
(1489,625,cs),
(1489,832,l),
(829,832,l),
(829,544,l),
(1169,544,l),
(1100,551,l),
(1100,417,o),
(1008,332,o),
(823,332,cs),
(614,332,o),
(506,486,o),
(506,748,cs),
(506,1006,o),
(623,1158,o),
(826,1158,cs),
(953,1158,o),
(1039,1100,o),
(1063,998,c)
);
}
);
width = 1583;
},
{
anchors = (
{
name = bottom;
pos = (676,0);
},
{
name = top;
pos = (958,1676);
}
);
guides = (
{
pos = (3037,1408);
},
{
angle = 90;
pos = (2861,1304);
},
{
angle = 90;
pos = (2649,1644);
},
{
angle = -99.4;
pos = (1269,1024);
}
);
layerId = "11F4534A-B963-4AB5-820F-DAF9A20CD933";
shapes = (
{
closed = 1;
nodes = (
(1458,1024,l),
(1452,1312,o),
(1243,1510,o),
(929,1510,cs),
(548,1510,o),
(228,1216,o),
(152,745,cs),
(73,273,o),
(292,-20,o),
(687,-20,cs),
(1042,-20,o),
(1336,215,o),
(1394,585,cs),
(1423,745,l),
(856,745,l),
(827,585,l),
(1275,585,l),
(1223,596,l),
(1179,323,o),
(958,148,o),
(702,148,cs),
(425,148,o),
(263,358,o),
(327,745,cs),
(391,1132,o),
(652,1341,o),
(917,1341,cs),
(1132,1341,o),
(1243,1219,o),
(1272,1024,c)
);
}
);
width = 1566;
},
{
anchors = (
{
name = bottom;
pos = (681,-12);
},
{
name = bottom_dd;
pos = (1312,-407);
},
{
name = top;
pos = (960,1676);
},
{
name = top0315;
pos = (1649,1632);
},
{
name = top_dd;
pos = (1644,1600);
}
);
associatedMasterId = "11F4534A-B963-4AB5-820F-DAF9A20CD933";
guides = (
{
pos = (2196,1408);
},
{
angle = 90;
pos = (2160,1304);
},
{
angle = 90;
pos = (1492,1644);
}
);
layerId = "4E80DD12-BE55-4A22-8C8A-5EF47AF296F7";
name = "Sep 11 18, 23:24";
shapes = (
{
closed = 1;
nodes = (
(76,273,o),
(303,-20,o),
(692,-20,cs),
(1041,-20,o),
(1335,212,o),
(1396,579,cs),
(1423,739,l),
(884,739,l),
(858,579,l),
(1268,579,l),
(1228,623,l),
(1222,579,l),
(1181,326,o),
(972,148,o),
(719,148,cs),
(442,148,o),
(265,358,o),
(329,745,cs),
(393,1132,o),
(640,1341,o),
(905,1341,cs),
(1097,1341,o),
(1239,1231,o),
(1274,1024,c),
(1457,1024,l),
(1423,1329,o),
(1228,1510,o),
(931,1510,cs),
(553,1510,o),
(233,1216,o),
(154,748,cs)
);
}
);
width = 1521;
},
{
anchors = (
{
name = bottom;
pos = (712,6);
},
{
name = top;
pos = (991,1676);
}
);
background = {
shapes = (
{
pos = (147,0);
ref = C;
}
);
};
layerId = "D0EC06BF-13F9-4C88-A6F5-B8203AF6C77E";
shapes = (
{
closed = 1;
nodes = (
(1545,998,l),
(1564,1297,o),
(1328,1510,o),
(977,1510,cs),
(575,1510,o),
(203,1233,o),
(121,742,cs),
(44,271,o),
(291,-20,o),
(725,-20,cs),
(1116,-20,o),
(1434,218,o),
(1502,625,cs),
(1535,832,l),
(875,832,l),
(828,544,l),
(1169,544,l),
(1099,551,l),
(1078,417,o),
(964,332,o),
(779,332,cs),
(570,332,o),
(495,486,o),
(539,748,cs),
(581,1006,o),
(737,1158,o),
(942,1158,cs),
(1068,1158,o),
(1129,1100,o),
(1137,998,c)
);
}
);
width = 1630;
},
{
anchors = (
{
name = bottom;
pos = (684,6);
},
{
name = bottom_dd;
pos = (1373,-407);
},
{
name = top;
pos = (943,1585);
},
{
name = top0315;
pos = (1705,1588);
},
{
name = top_dd;
pos = (1705,1600);
}
);
associatedMasterId = "D0EC06BF-13F9-4C88-A6F5-B8203AF6C77E";
background = {
shapes = (
{
ref = C;
}
);
};
guides = (
{
angle = 7.9575;
pos = (1208,1320);
},
{
angle = 90;
pos = (944,528);
},
{
pos = (1356,756);
}
);
layerId = "DB24DE82-64F7-46A2-B463-9A6336A82810";
name = "Sep 14 18, 09:43";
shapes = (
{
closed = 1;
nodes = (
(35,271,o),
(268,-20,o),
(689,-20,cs),
(1071,-20,o),
(1385,218,o),
(1452,625,cs),
(1484,820,l),
(812,820,l),
(765,538,l),
(1140,538,l),
(1071,625,l),
(1056,538,l),
(1021,407,o),
(887,337,o),
(756,337,cs),
(564,337,o),
(480,489,o),
(524,748,cs),
(564,1004,o),
(698,1155,o),
(887,1155,cs),
(1030,1155,o),
(1079,1068,o),
(1088,998,c),
(1501,998,l),
(1533,1295,o),
(1283,1510,o),
(937,1510,cs),
(547,1510,o),
(192,1233,o),
(111,742,cs)
);
}
);
width = 1524;
},
{
anchors = (
{
name = bottom;
pos = (756,0);
},
{
name = top;
pos = (756,1676);
}
);
guides = (
{
pos = (1872,1408);
}
);
layerId = "B1F27B51-9973-4381-9301-4FE46FE1CA59";
shapes = (
{
closed = 1;
nodes = (
(1335,1024,l),
(1300,1236,o),
(1113,1510,o),
(765,1510,cs),
(396,1510,o),
(148,1203,o),
(148,745,cs),
(148,289,o),
(393,-20,o),
(771,-20,cs),
(1105,-20,o),
(1347,221,o),
(1347,628,cs),
(1347,675,l),
(785,675,l),
(785,628,l),
(1321,628,l),
(1300,646,l),
(1306,256,o),
(1082,26,o),
(771,26,cs),
(419,26,o),
(195,319,o),
(195,745,cs),
(195,1175,o),
(423,1463,o),
(765,1463,cs),
(1071,1463,o),
(1253,1227,o),
(1289,1024,c)
);
}
);
width = 1513;
},
{
anchors = (
{
name = bottom;
pos = (660,0);
},
{
name = top;
pos = (940,1676);
}
);
layerId = "200BE2C5-40F6-4CF4-AF4F-A33C0CC0964F";
shapes = (
{
closed = 1;
nodes = (
(1408,1024,l),
(1409,1236,o),
(1272,1510,o),
(919,1510,cs),
(553,1510,o),
(252,1201,o),
(177,745,cs),
(100,288,o),
(294,-20,o),
(672,-20,cs),
(1007,-20,o),
(1288,221,o),
(1356,628,cs),
(1364,675,l),
(803,675,l),
(794,628,l),
(1329,628,l),
(1312,646,l),
(1254,261,o),
(987,26,o),
(681,26,cs),
(321,26,o),
(151,311,o),
(224,745,cs),
(302,1205,o),
(608,1463,o),
(911,1463,cs),
(1229,1463,o),
(1361,1233,o),
(1361,1024,c)
);
}
);
width = 1513;
}
);
metricLeft = O;
unicode = 71;
userData = {
com.typemytype.robofont.guideline.magnetic.DBpTQJmUAf = 5;
com.typemytype.robofont.guideline.magnetic.Mdeh49HlEG = 5;
com.typemytype.robofont.guideline.magnetic.iFgX6ho5qJ = 5;
"interface.width-adjustments" = (
-16
);
};
}
{
color = (219,235,247,1);
glyphname = H;
kernLeft = B;
kernRight = H;
layers = (
{
anchors = (
{
name = bottom;
pos = (756,0);
},
{
name = cedilla;
pos = (294,-3);
},
{
name = cyrtic;
pos = (1402,64);
},
{
name = right;
pos = (1335,0);
},
{
name = tonos;
pos = (145,1489);
},
{
name = top;
pos = (765,1679);
}
);
guides = (
{
orientation = center;
angle = 90;
pos = (1040,56);
}
);
layerId = "C698F293-3EC0-4A5A-A3A0-0FDB1F5CF265";
shapes = (
{
closed = 1;
nodes = (
(361,0,l),
(361,666,l),
(1155,666,l),
(1155,0,l),
(1335,0,l),
(1335,1489,l),
(1155,1489,l),
(1155,826,l),
(361,826,l),
(361,1489,l),
(180,1489,l),
(180,0,l)
);
}
);
width = 1516;
},
{
anchors = (
{
name = bottom;
pos = (768,0);
},
{
name = cedilla;
pos = (288,0);
},
{
name = cyrtic;
pos = (1632,163);
},
{
name = right;
pos = (1440,0);
},
{
name = tonos;
pos = (61,1489);
},
{
name = top;
pos = (768,1676);
}
);
guides = (
{
pos = (12,1652);
},
{
orientation = center;
angle = 90;
pos = (984,1344);
}
);
layerId = "5C20EF92-B63D-42A8-8878-93C2863E0093";
shapes = (
{
closed = 1;
nodes = (
(500,0,l),
(500,582,l),
(1036,582,l),
(1036,0,l),
(1440,0,l),
(1440,1489,l),
(1036,1489,l),
(1036,908,l),
(500,908,l),
(500,1489,l),
(96,1489,l),
(96,0,l)
);
}
);
width = 1536;
},
{
anchors = (
{
name = bottom;
pos = (663,0);
},
{
name = cedilla;
pos = (198,0);
},
{
name = cyrtic;
pos = (1321,64);
},
{
name = right;
pos = (1239,0);
},
{
name = tonos;
pos = (294,1489);
},
{
name = top;
pos = (951,1679);
}
);
guides = (
{
orientation = center;
angle = 90;
pos = (688,56);
}
);
layerId = "11F4534A-B963-4AB5-820F-DAF9A20CD933";
shapes = (
{
closed = 1;
nodes = (
(268,0,l),
(378,666,l),
(1172,666,l),
(1062,0,l),
(1242,0,l),
(1489,1489,l),
(1309,1489,l),
(1199,826,l),
(404,826,l),
(515,1489,l),
(335,1489,l),
(87,0,l)
);
}
);
width = 1516;
},
{
anchors = (
{
name = bottom;
pos = (675,0);
},
{
name = cedilla;
pos = (195,0);
},
{
name = cyrtic;
pos = (1565,163);
},
{
name = right;
pos = (1347,0);
},
{
name = tonos;
pos = (215,1489);
},
{
name = top;
pos = (954,1676);
}
);
guides = (
{
pos = (744,1652);
},
{
orientation = center;
angle = 90;
pos = (1464,1344);
}
);
layerId = "D0EC06BF-13F9-4C88-A6F5-B8203AF6C77E";
shapes = (
{
closed = 1;
nodes = (
(407,0,l),
(503,582,l),
(1039,582,l),
(943,0,l),
(1347,0,l),
(1594,1489,l),
(1190,1489,l),
(1094,908,l),
(559,908,l),
(655,1489,l),
(250,1489,l),
(3,0,l)
);
}
);
width = 1536;
},
{
anchors = (
{
name = bottom;
pos = (753,0);
},
{
name = cedilla;
pos = (256,-6);
},
{
name = cyrtic;
pos = (1295,6);
},
{
name = right;
pos = (1274,0);
},
{
name = tonos;
pos = (198,1489);
},
{
name = top;
pos = (753,1676);
}
);
layerId = "B1F27B51-9973-4381-9301-4FE46FE1CA59";
shapes = (
{
closed = 1;
nodes = (
(279,0,l),
(279,721,l),
(1228,721,l),
(1228,0,l),
(1274,0,l),
(1274,1489,l),
(1228,1489,l),
(1228,768,l),
(279,768,l),
(279,1489,l),
(233,1489,l),
(233,0,l)
);
}
);
width = 1507;
},
{
anchors = (
{
name = bottom;
pos = (660,0);
},
{
name = cedilla;
pos = (161,-6);
},
{
name = cyrtic;
pos = (1203,6);
},
{
name = right;
pos = (1181,0);
},
{
name = tonos;
pos = (352,1489);
},
{
name = top;
pos = (940,1676);
}
);
layerId = "200BE2C5-40F6-4CF4-AF4F-A33C0CC0964F";
shapes = (
{
closed = 1;
nodes = (
(186,0,l),
(305,721,l),
(1254,721,l),
(1135,0,l),
(1181,0,l),
(1428,1489,l),
(1382,1489,l),
(1263,768,l),
(314,768,l),
(433,1489,l),
(387,1489,l),
(140,0,l)
);
}
);
width = 1507;
}
);
unicode = 72;
userData = {
"interface.width-adjustments" = (
-16
);
};
}
{
color = (219,235,247,1);
glyphname = I;
kernLeft = B;
kernRight = H;
layers = (
{
anchors = (
{
name = bottom;
pos = (271,0);
},
{
name = cross;
pos = (271,768);
},
{
name = ogonek;
pos = (361,0);
},
{
name = right;
pos = (375,0);
},
{
name = tonos;
pos = (180,1489);
},
{
name = top;
pos = (271,1676);
}
);
guides = (
{
angle = 90;
pos = (372,1848);
}
);
layerId = "C698F293-3EC0-4A5A-A3A0-0FDB1F5CF265";
shapes = (
{
closed = 1;
nodes = (
(180,1489,l),
(180,0,l),
(361,0,l),
(361,1489,l)
);
}
);
width = 542;
},
{
anchors = (
{
name = bottom;
pos = (297,0);
},
{
name = cross;
pos = (297,788);
},
{
name = ogonek;
pos = (500,0);
},
{
name = right;
pos = (527,0);
},
{
name = tonos;
pos = (96,1489);
},
{
name = top;
pos = (300,1676);
}
);
guides = (
{
orientation = center;
angle = 90;
pos = (292,1240);
}
);
layerId = "5C20EF92-B63D-42A8-8878-93C2863E0093";
shapes = (
{
closed = 1;
nodes = (
(96,1489,l),
(96,0,l),
(500,0,l),
(500,1489,l)
);
}
);
width = 596;
},
{
anchors = (
{
name = bottom;
pos = (180,0);
},
{
name = cross;
pos = (305,768);
},
{
name = ogonek;
pos = (268,0);
},
{
name = right;
pos = (282,0);
},
{
name = tonos;
pos = (335,1489);
},
{
name = top;
pos = (454,1676);
}
);
guides = (
{
angle = -99.4;
pos = (552,1852);
}
);
layerId = "11F4534A-B963-4AB5-820F-DAF9A20CD933";
shapes = (
{
closed = 1;
nodes = (
(335,1489,l),
(87,0,l),
(268,0,l),
(515,1489,l)
);
}
);
width = 542;
},
{
anchors = (
{
name = bottom;
pos = (207,0);
},
{
name = cross;
pos = (335,788);
},
{
name = ogonek;
pos = (407,0);
},
{
name = right;
pos = (433,0);
},
{
name = tonos;
pos = (250,1489);
},
{
name = top;
pos = (486,1676);
}
);
guides = (
{
angle = -99.4;
pos = (604,1356);
}
);
layerId = "D0EC06BF-13F9-4C88-A6F5-B8203AF6C77E";
shapes = (
{
closed = 1;
nodes = (
(250,1489,l),
(3,0,l),
(407,0,l),
(655,1489,l)
);
}
);
width = 597;
},
{
anchors = (
{
name = bottom;
pos = (256,0);
},
{
name = cross;
pos = (256,768);
},
{
name = ogonek;
pos = (279,0);
},
{
name = right;
pos = (288,0);
},
{
name = tonos;
pos = (233,1489);
},
{
name = top;
pos = (256,1676);
}
);
layerId = "B1F27B51-9973-4381-9301-4FE46FE1CA59";
shapes = (
{
closed = 1;
nodes = (
(233,1489,l),
(233,0,l),
(279,0,l),
(279,1489,l)
);
}
);
width = 512;
},
{
anchors = (
{
name = bottom;
pos = (163,0);
},
{
name = cross;
pos = (291,768);
},
{
name = ogonek;
pos = (186,0);
},
{
name = right;
pos = (195,0);
},
{
name = tonos;
pos = (387,1489);
},
{
name = top;
pos = (442,1676);
}
);
layerId = "200BE2C5-40F6-4CF4-AF4F-A33C0CC0964F";
shapes = (
{
closed = 1;
nodes = (
(387,1489,l),
(140,0,l),
(186,0,l),
(433,1489,l)
);
}
);
width = 512;
}
);
metricLeft = H;
metricRight = H;
unicode = 73;
userData = {
"interface.width-adjustments" = (
-16
);
};
}
{
color = (219,235,247,1);
glyphname = J;
kernLeft = J;
kernRight = J;
layers = (
{
anchors = (
{
name = cross;
pos = (841,884);
},
{
name = top;
pos = (841,1676);
}
);
guides = (
{
angle = 90;
pos = (1156,1476);
},
{
angle = 90;
pos = (696,492);
}
);
layerId = "C698F293-3EC0-4A5A-A3A0-0FDB1F5CF265";
shapes = (
{
closed = 1;
nodes = (
(751,425,l),
(751,239,o),
(662,140,o),
(506,140,cs),
(364,140,o),
(262,223,o),
(262,349,c),
(84,349,l),
(84,120,o),
(262,-20,o),
(506,-20,cs),
(765,-20,o),
(931,139,o),
(931,425,c),
(931,1489,l),
(751,1489,l)
);
}
);
width = 1112;
},
{
anchors = (
{
name = cross;
pos = (905,884);
},
{
name = top;
pos = (908,1676);
}
);
guides = (
{
angle = 90;
pos = (1248,1476);
}
);
layerId = "5C20EF92-B63D-42A8-8878-93C2863E0093";
shapes = (
{
closed = 1;
nodes = (
(710,468,l),
(708,353,o),
(660,294,o),
(570,294,cs),
(481,294,o),
(432,353,o),
(428,465,c),
(23,465,l),
(22,122,o),
(257,-20,o),
(544,-20,cs),
(874,-20,o),
(1107,177,o),
(1108,468,c),
(1108,1489,l),
(710,1489,l)
);
}
);
width = 1204;
},
{
anchors = (
{
name = cross;
pos = (896,884);
},
{
name = top;
pos = (1027,1676);
}
);
guides = (
{
angle = -99.4;
pos = (1276,1492);
}
);
layerId = "11F4534A-B963-4AB5-820F-DAF9A20CD933";
shapes = (
{
closed = 1;
nodes = (
(730,431,l),
(698,244,o),
(584,140,o),
(425,140,cs),
(287,140,o),
(203,217,o),
(221,349,c),
(49,349,l),
(14,121,o),
(172,-20,o),
(422,-20,cs),
(684,-20,o),
(861,134,o),
(908,419,c),
(1085,1489,l),
(905,1489,l)
);
}
);
width = 1112;
},
{
anchors = (
{
name = cross;
pos = (960,884);
},
{
name = top;
pos = (1094,1676);
}
);
background = {
shapes = (
{
closed = 1;
nodes = (
(679,384,o),
(620,294,o),
(521,294,cs),
(434,294,o),
(396,349,o),
(413,465,c),
(9,465,l),
(-52,122,o),
(161,-20,o),
(448,-20,cs),
(777,-20,o),
(1042,177,o),
(1094,468,c),
(1263,1489,l),
(864,1489,l),
(695,468,l)
);
}
);
};
guides = (
{
angle = -99.4;
pos = (1724,1484);
}
);
layerId = "D0EC06BF-13F9-4C88-A6F5-B8203AF6C77E";
shapes = (
{
closed = 1;
nodes = (
(695,468,l),
(675,355,o),
(617,294,o),
(527,294,cs),
(436,294,o),
(399,352,o),
(413,465,c),
(9,465,l),
(-49,122,o),
(163,-20,o),
(448,-20,cs),
(780,-20,o),
(1044,177,o),
(1094,468,c),
(1263,1489,l),
(864,1489,l)
);
}
);
width = 1205;
},
{
anchors = (
{
name = bottom;
pos = (489,-12);
},
{
name = bottom_dd;
pos = (1097,-407);
},
{
name = cross;
pos = (1033,884);
},
{
name = top;
pos = (1140,1571);
},
{
name = top0315;
pos = (1428,1600);
},
{
name = top_dd;
pos = (1428,1600);
}
);
associatedMasterId = "D0EC06BF-13F9-4C88-A6F5-B8203AF6C77E";
layerId = "AD268349-6365-406D-9447-8D02F922AB8D";
name = "Sep 14 18, 09:53";
shapes = (
{
closed = 1;
nodes = (
(753,384,o),
(695,294,o),
(593,294,cs),
(509,294,o),
(471,349,o),
(486,465,c),
(81,465,l),
(23,122,o),
(236,-20,o),
(521,-20,cs),
(852,-20,o),
(1117,177,o),
(1167,468,c),
(1335,1489,l),
(937,1489,l),
(768,468,l)
);
}
);
width = 1274;
},
{
anchors = (
{
name = cross;
pos = (809,884);
},
{
name = top;
pos = (809,1676);
}
);
guides = (
{
angle = 90;
pos = (1112,2256);
}
);
layerId = "B1F27B51-9973-4381-9301-4FE46FE1CA59";
shapes = (
{
closed = 1;
nodes = (
(785,396,ls),
(784,119,o),
(634,26,o),
(471,26,cs),
(294,26,o),
(156,134,o),
(157,279,c),
(111,279,l),
(109,108,o),
(266,-20,o),
(471,-20,cs),
(662,-20,o),
(831,93,o),
(832,396,cs),
(832,1489,l),
(785,1489,l)
);
}
);
width = 1065;
},
{
anchors = (
{
name = cross;
pos = (864,884);
},
{
name = top;
pos = (995,1676);
}
);
layerId = "200BE2C5-40F6-4CF4-AF4F-A33C0CC0964F";
shapes = (
{
closed = 1;
nodes = (
(759,396,ls),
(713,119,o),
(548,26,o),
(384,26,cs),
(207,26,o),
(87,134,o),
(111,279,c),
(64,279,l),
(36,108,o),
(172,-20,o),
(375,-20,cs),
(567,-20,o),
(755,93,o),
(806,396,cs),
(986,1489,l),
(940,1489,l)
);
}
);
width = 1066;
}
);
metricRight = H;
unicode = 74;
}
{
color = (219,235,247,1);
glyphname = K;
kernLeft = B;
kernRight = K;
layers = (
{
anchors = (
{
name = bottom;
pos = (669,0);
},
{
name = top;
pos = (675,1676);
}
);
guides = (
{
angle = 227.6708;
pos = (1748,2048);
},
{
angle = 90;
pos = (928,212);
}
);
layerId = "C698F293-3EC0-4A5A-A3A0-0FDB1F5CF265";
shapes = (
{
closed = 1;
nodes = (
(361,0,l),
(361,483,l),
(547,692,l),
(1065,0,l),
(1283,0,l),
(657,817,l),
(1283,1489,l),
(1047,1489,l),
(378,751,l),
(361,751,l),
(361,1489,l),
(180,1489,l),
(180,0,l)
);
}
);
width = 1335;
},
{
anchors = (
{
name = bottom;
pos = (721,3);
},
{
name = top;
pos = (724,1676);
}
);
guides = (
{
orientation = center;
angle = 90;
pos = (1048,1820);
}
);
layerId = "5C20EF92-B63D-42A8-8878-93C2863E0093";
shapes = (
{
closed = 1;
nodes = (
(500,0,l),
(500,384,l),
(634,559,l),
(969,0,l),
(1452,0,l),
(937,826,l),
(1440,1489,l),
(969,1489,l),
(521,887,l),
(500,887,l),
(500,1489,l),
(96,1489,l),
(96,0,l)
);
}
);
width = 1463;
},
{
anchors = (
{
name = bottom;
pos = (596,0);
},
{
name = top;
pos = (855,1676);
}
);
guides = (
{
angle = -99.4;
pos = (836,212);
}
);
layerId = "11F4534A-B963-4AB5-820F-DAF9A20CD933";
shapes = (
{
closed = 1;
nodes = (
(268,0,l),
(349,483,l),
(570,692,l),
(972,0,l),
(1190,0,l),
(701,817,l),
(1437,1489,l),
(1201,1489,l),
(410,751,l),
(393,751,l),
(515,1489,l),
(335,1489,l),
(87,0,l)
);
}
);
width = 1335;
},
{
anchors = (
{
name = bottom;
pos = (631,3);
},
{
name = top;
pos = (911,1676);
}
);
guides = (
{
angle = -99.4;
pos = (1444,1372);
}
);
layerId = "D0EC06BF-13F9-4C88-A6F5-B8203AF6C77E";
shapes = (
{
closed = 1;
nodes = (
(407,0,l),
(471,381,l),
(637,559,l),
(876,0,l),
(1359,0,l),
(983,826,l),
(1594,1489,l),
(1123,1489,l),
(576,887,l),
(556,887,l),
(655,1489,l),
(250,1489,l),
(3,0,l)
);
}
);
width = 1463;
},
{
anchors = (
{
name = bottom;
pos = (634,0);
},
{
name = top;
pos = (637,1676);
}
);
guides = (
{
angle = 227.6708;
pos = (1640,2048);
}
);
layerId = "B1F27B51-9973-4381-9301-4FE46FE1CA59";
shapes = (
{
closed = 1;
nodes = (
(279,0,l),
(279,486,l),
(503,733,l),
(1123,0,l),
(1184,0,l),
(535,768,l),
(1193,1489,l),
(1129,1489,l),
(285,561,l),
(279,561,l),
(279,1489,l),
(233,1489,l),
(233,0,l)
);
}
);
width = 1263;
},
{
anchors = (
{
name = bottom;
pos = (541,0);
},
{
name = top;
pos = (823,1676);
}
);
layerId = "200BE2C5-40F6-4CF4-AF4F-A33C0CC0964F";
shapes = (
{
closed = 1;
nodes = (
(186,0,l),
(268,486,l),
(532,733,l),
(1030,0,l),
(1091,0,l),
(570,768,l),
(1347,1489,l),
(1283,1489,l),
(285,561,l),
(279,561,l),
(433,1489,l),
(387,1489,l),
(140,0,l)
);
}
);
width = 1263;
}
);
metricLeft = H;
unicode = 75;
userData = {
com.typemytype.robofont.guideline.magnetic.bB6GeEoQ3O = 5;
"interface.width-adjustments" = (
-16
);
};
}
{
color = (219,235,247,1);
glyphname = L;
kernLeft = B;
kernRight = L;
layers = (
{
anchors = (
{
name = bottom;
pos = (617,0);
},
{
name = cross;
pos = (271,768);
},
{
name = dot;
pos = (605,794);
},
{
name = raccent;
pos = (614,1489);
},
{
name = top;
pos = (271,1676);
}
);
guides = (
{
angle = 90;
pos = (372,1944);
},
{
angle = 90;
pos = (848,-100);
}
);
layerId = "C698F293-3EC0-4A5A-A3A0-0FDB1F5CF265";
shapes = (
{
closed = 1;
nodes = (
(1053,0,l),
(1053,160,l),
(361,160,l),
(361,1489,l),
(180,1489,l),
(180,0,l)
);
}
);
width = 1152;
},
{
anchors = (
{
name = bottom;
pos = (599,0);
},
{
name = cross;
pos = (297,788);
},
{
name = dot;
pos = (605,873);
},
{
name = raccent;
pos = (704,1489);
},
{
name = top;
pos = (294,1676);
}
);
guides = (
{
pos = (12,1304);
},
{
angle = 90;
pos = (824,584);
},
{
pos = (988,-416);
}
);
layerId = "5C20EF92-B63D-42A8-8878-93C2863E0093";
shapes = (
{
closed = 1;
nodes = (
(1103,0,l),
(1103,326,l),
(500,326,l),
(500,1489,l),
(96,1489,l),
(96,0,l)
);
}
);
width = 1169;
},
{
anchors = (
{
name = bottom;
pos = (532,0);
},
{
name = cross;
pos = (305,768);
},
{
name = dot;
pos = (643,794);
},
{
name = raccent;
pos = (765,1489);
},
{
name = top;
pos = (460,1676);
}
);
layerId = "11F4534A-B963-4AB5-820F-DAF9A20CD933";
shapes = (
{
closed = 1;
nodes = (
(960,0,l),
(986,160,l),
(294,160,l),
(515,1489,l),
(335,1489,l),
(87,0,l)
);
}
);
width = 1152;
},
{
anchors = (
{
name = bottom;
pos = (460,0);
},
{
name = cross;
pos = (335,788);
},
{
name = dot;
pos = (657,873);
},
{
name = raccent;
pos = (861,1489);
},
{
name = top;
pos = (480,1676);
}
);
guides = (
{
pos = (276,1304);
},
{
orientation = center;
angle = 90;
pos = (1024,584);
}
);
layerId = "D0EC06BF-13F9-4C88-A6F5-B8203AF6C77E";
shapes = (
{
closed = 1;
nodes = (
(1009,0,l),
(1065,326,l),
(463,326,l),
(655,1489,l),
(250,1489,l),
(3,0,l)
);
}
);
width = 1169;
},
{
anchors = (
{
name = bottom;
pos = (628,0);
},
{
name = cross;
pos = (256,768);
},
{
name = dot;
pos = (605,748);
},
{
name = raccent;
pos = (625,1489);
},
{
name = top;
pos = (256,1676);
}
);
guides = (
{
angle = 90;
pos = (864,2088);
},
{
angle = 90;
pos = (352,1932);
}
);
layerId = "B1F27B51-9973-4381-9301-4FE46FE1CA59";
shapes = (
{
closed = 1;
nodes = (
(1024,0,l),
(1024,47,l),
(279,47,l),
(279,1489,l),
(233,1489,l),
(233,0,l)
);
}
);
width = 1152;
},
{
anchors = (
{
name = bottom;
pos = (535,0);
},
{
name = cross;
pos = (291,768);
},
{
name = dot;
pos = (637,748);
},
{
name = raccent;
pos = (780,1489);
},
{
name = top;
pos = (442,1676);
}
);
layerId = "200BE2C5-40F6-4CF4-AF4F-A33C0CC0964F";
shapes = (
{
closed = 1;
nodes = (
(931,0,l),
(940,47,l),
(195,47,l),
(433,1489,l),
(387,1489,l),
(140,0,l)
);
}
);
width = 1152;
}
);
metricLeft = H;
unicode = 76;
userData = {
"interface.width-adjustments" = (
-16
);
};
}
{
color = (219,235,247,1);
glyphname = M;
kernLeft = B;
kernRight = H;
layers = (
{
anchors = (
{
name = bottom;
pos = (911,0);
},
{
name = right;
pos = (1641,0);
},
{
name = top;
pos = (911,1676);
}
);
guides = (
{
orientation = center;
angle = 90;
pos = (1224,152);
},
{
angle = 90;
pos = (516,2056);
},
{
angle = 90;
pos = (1932,2060);
}
);
layerId = "C698F293-3EC0-4A5A-A3A0-0FDB1F5CF265";
shapes = (
{
closed = 1;
nodes = (
(180,0,l),
(349,0,l),
(349,1132,l),
(364,1132,l),
(829,0,l),
(992,0,l),
(1457,1132,l),
(1472,1132,l),
(1472,0,l),
(1641,0,l),
(1641,1489,l),
(1425,1489,l),
(919,253,l),
(902,253,l),
(396,1489,l),
(180,1489,l)
);
}
);
width = 1822;
},
{
anchors = (
{
name = bottom;
pos = (954,0);
},
{
name = right;
pos = (1812,0);
},
{
name = top;
pos = (954,1676);
}
);
guides = (
{
pos = (188,1220);
},
{
orientation = center;
angle = 90;
pos = (1088,2164);
}
);
layerId = "5C20EF92-B63D-42A8-8878-93C2863E0093";
shapes = (
{
closed = 1;
nodes = (
(96,0,l),
(492,0,l),
(492,867,l),
(503,867,l),
(835,0,l),
(1073,0,l),
(1405,861,l),
(1417,861,l),
(1417,0,l),
(1812,0,l),
(1812,1489,l),
(1309,1489,l),
(963,646,l),
(945,646,l),
(599,1489,l),
(96,1489,l)
);
}
);
width = 1908;
},
{
anchors = (
{
name = bottom;
pos = (817,0);
},
{
name = right;
pos = (1527,0);
},
{
name = top;
pos = (1097,1676);
}
);
guides = (
{
angle = 90;
pos = (716,152);
},
{
angle = 90;
pos = (1584,2056);
},
{
angle = 90;
pos = (3000,2060);
}
);
layerId = "11F4534A-B963-4AB5-820F-DAF9A20CD933";
shapes = (
{
closed = 1;
nodes = (
(87,0,l),
(256,0,l),
(445,1132,l),
(460,1132,l),
(736,0,l),
(899,0,l),
(1553,1132,l),
(1568,1132,l),
(1379,0,l),
(1548,0,l),
(1795,1489,l),
(1580,1489,l),
(870,253,l),
(852,253,l),
(550,1489,l),
(335,1489,l)
);
}
);
width = 1822;
},
{
anchors = (
{
name = bottom;
pos = (861,0);
},
{
name = right;
pos = (1719,0);
},
{
name = top;
pos = (1140,1676);
}
);
guides = (
{
pos = (384,1220);
},
{
angle = 90;
pos = (2184,1848);
},
{
angle = 90;
pos = (1916,2164);
},
{
angle = 90;
pos = (2880,2040);
}
);
layerId = "D0EC06BF-13F9-4C88-A6F5-B8203AF6C77E";
shapes = (
{
closed = 1;
nodes = (
(3,0,l),
(399,0,l),
(544,867,l),
(556,867,l),
(743,0,l),
(981,0,l),
(1455,861,l),
(1466,861,l),
(1324,0,l),
(1719,0,l),
(1967,1489,l),
(1463,1489,l),
(977,646,l),
(960,646,l),
(753,1489,l),
(250,1489,l)
);
}
);
width = 1909;
},
{
anchors = (
{
name = bottom;
pos = (998,3);
},
{
name = bottom_dd;
pos = (1961,-407);
},
{
name = right;
pos = (1850,0);
},
{
name = top;
pos = (998,1585);
},
{
name = top0315;
pos = (1961,1600);
},
{
name = top_dd;
pos = (1961,1600);
}
);
associatedMasterId = "5C20EF92-B63D-42A8-8878-93C2863E0093";
guides = (
{
pos = (188,1220);
},
{
angle = 90;
pos = (1572,1848);
},
{
angle = 90;
pos = (1088,2164);
},
{
angle = 90;
pos = (2140,2040);
}
);
layerId = "75B701FF-9FEA-46EA-B4EE-AB55E07CEDFA";
name = "Oct 6 18, 13:17";
shapes = (
{
closed = 1;
nodes = (
(96,0,l),
(503,0,l),
(503,916,l),
(515,916,l),
(870,29,l),
(1126,29,l),
(1481,911,l),
(1492,911,l),
(1492,0,l),
(1900,0,l),
(1900,1489,l),
(1367,1489,l),
(1007,640,l),
(989,640,l),
(628,1489,l),
(96,1489,l)
);
}
);
width = 1996;
},
{
anchors = (
{
name = bottom;
pos = (884,0);
},
{
name = right;
pos = (1536,0);
},
{
name = top;
pos = (884,1676);
}
);
layerId = "B1F27B51-9973-4381-9301-4FE46FE1CA59";
shapes = (
{
closed = 1;
nodes = (
(233,0,l),
(279,0,l),
(279,1344,l),
(285,1344,l),
(861,0,l),
(908,0,l),
(1484,1344,l),
(1489,1344,l),
(1489,0,l),
(1536,0,l),
(1536,1489,l),
(1495,1489,l),
(887,70,l),
(881,70,l),
(273,1489,l),
(233,1489,l)
);
}
);
width = 1769;
},
{
anchors = (
{
name = bottom;
pos = (791,0);
},
{
name = right;
pos = (1443,0);
},
{
name = top;
pos = (1071,1676);
}
);
layerId = "200BE2C5-40F6-4CF4-AF4F-A33C0CC0964F";
shapes = (
{
closed = 1;
nodes = (
(140,0,l),
(186,0,l),
(410,1344,l),
(416,1344,l),
(768,0,l),
(815,0,l),
(1615,1344,l),
(1620,1344,l),
(1396,0,l),
(1443,0,l),
(1690,1489,l),
(1649,1489,l),
(806,70,l),
(800,70,l),
(428,1489,l),
(387,1489,l)
);
}
);
width = 1769;
}
);
metricLeft = H;
metricRight = H;
unicode = 77;
userData = {
com.typemytype.robofont.guideline.magnetic.ezYETy42tZ = 5;
com.typemytype.robofont.guideline.magnetic.wu5HJlZVk6 = 5;
com.typemytype.robofont.guideline.magnetic.x5YoYrsuLC = 5;
"interface.width-adjustments" = (
-16
);
};
}
{
color = (219,235,247,1);
glyphname = N;
kernLeft = B;
kernRight = H;
layers = (
{
anchors = (
{
name = bottom;
pos = (771,0);
},
{
name = right;
pos = (1359,0);
},
{
name = top;
pos = (771,1676);
}
);
layerId = "C698F293-3EC0-4A5A-A3A0-0FDB1F5CF265";
shapes = (
{
closed = 1;
nodes = (
(1184,1489,l),
(1184,317,l),
(1169,317,l),
(355,1489,l),
(180,1489,l),
(180,0,l),
(361,0,l),
(361,1169,l),
(375,1169,l),
(1187,0,l),
(1361,0,l),
(1361,1489,l)
);
}
);
width = 1542;
},
{
anchors = (
{
name = bottom;
pos = (742,0);
},
{
name = right;
pos = (1455,0);
},
{
name = top;
pos = (742,1676);
}
);
guides = (
{
pos = (12,1652);
},
{
orientation = center;
angle = 90;
pos = (900,240);
}
);
layerId = "5C20EF92-B63D-42A8-8878-93C2863E0093";
shapes = (
{
closed = 1;
nodes = (
(980,1489,l),
(980,710,l),
(969,710,l),
(439,1489,l),
(96,1489,l),
(96,0,l),
(500,0,l),
(500,783,l),
(509,783,l),
(1047,0,l),
(1385,0,l),
(1385,1489,l)
);
}
);
width = 1481;
},
{
anchors = (
{
name = bottom;
pos = (678,0);
},
{
name = right;
pos = (1265,0);
},
{
name = top;
pos = (957,1676);
}
);
guides = (
{
angle = -99.4;
pos = (804,284);
}
);
layerId = "11F4534A-B963-4AB5-820F-DAF9A20CD933";
shapes = (
{
closed = 1;
nodes = (
(1338,1489,l),
(1143,317,l),
(1129,317,l),
(509,1489,l),
(335,1489,l),
(87,0,l),
(268,0,l),
(463,1169,l),
(477,1169,l),
(1094,0,l),
(1268,0,l),
(1516,1489,l)
);
}
);
width = 1543;
},
{
anchors = (
{
name = bottom;
pos = (649,0);
},
{
name = right;
pos = (1361,0);
},
{
name = top;
pos = (928,1676);
}
);
guides = (
{
pos = (744,1652);
},
{
angle = -99.4;
pos = (664,240);
}
);
layerId = "D0EC06BF-13F9-4C88-A6F5-B8203AF6C77E";
shapes = (
{
closed = 1;
nodes = (
(1135,1489,l),
(1007,710,l),
(995,710,l),
(593,1489,l),
(250,1489,l),
(3,0,l),
(407,0,l),
(538,783,l),
(547,783,l),
(954,0,l),
(1292,0,l),
(1539,1489,l)
);
}
);
width = 1481;
},
{
anchors = (
{
name = bottom;
pos = (742,0);
},
{
name = bottom_dd;
pos = (1565,-407);
},
{
name = right;
pos = (1455,0);
},
{
name = top;
pos = (742,1585);
},
{
name = top0315;
pos = (1565,1600);
},
{
name = top_dd;
pos = (1565,1600);
}
);
associatedMasterId = "5C20EF92-B63D-42A8-8878-93C2863E0093";
guides = (
{
pos = (12,1652);
},
{
orientation = center;
angle = 90;
pos = (900,240);
}
);
layerId = "F81B89FA-28D8-48B6-8D66-9AD40CA032B3";
name = "Oct 6 18, 13:13";
shapes = (
{
closed = 1;
nodes = (
(980,1489,l),
(980,675,l),
(969,675,l),
(497,1489,l),
(96,1489,l),
(96,0,l),
(500,0,l),
(500,817,l),
(509,817,l),
(989,0,l),
(1385,0,l),
(1385,1489,l)
);
}
);
width = 1481;
},
{
anchors = (
{
name = bottom;
pos = (756,0);
},
{
name = right;
pos = (1329,0);
},
{
name = top;
pos = (756,1676);
}
);
associatedMasterId = "C698F293-3EC0-4A5A-A3A0-0FDB1F5CF265";
guides = (
{
orientation = center;
angle = 90;
pos = (1116,284);
}
);
layerId = "CDCA1FA0-CAD8-4C14-B3A1-3337A4674D3F";
name = "Oct 7 18, 22:28";
shapes = (
{
closed = 1;
nodes = (
(1155,1489,l),
(1155,317,l),
(1140,317,l),
(355,1489,l),
(180,1489,l),
(180,0,l),
(361,0,l),
(361,1167,l),
(375,1167,l),
(1158,0,l),
(1332,0,l),
(1332,1489,l)
);
}
);
width = 1513;
},
{
anchors = (
{
name = bottom;
pos = (791,0);
},
{
name = right;
pos = (1300,0);
},
{
name = top;
pos = (791,1676);
}
);
layerId = "B1F27B51-9973-4381-9301-4FE46FE1CA59";
shapes = (
{
closed = 1;
nodes = (
(1303,1489,l),
(1303,87,l),
(1297,87,l),
(279,1489,l),
(233,1489,l),
(233,0,l),
(279,0,l),
(279,1402,l),
(285,1402,l),
(1303,0,l),
(1350,0,l),
(1350,1489,l)
);
}
);
width = 1583;
},
{
anchors = (
{
name = bottom;
pos = (698,0);
},
{
name = right;
pos = (1207,0);
},
{
name = top;
pos = (977,1676);
}
);
layerId = "200BE2C5-40F6-4CF4-AF4F-A33C0CC0964F";
shapes = (
{
closed = 1;
nodes = (
(1457,1489,l),
(1225,87,l),
(1219,87,l),
(433,1489,l),
(387,1489,l),
(140,0,l),
(186,0,l),
(419,1402,l),
(425,1402,l),
(1210,0,l),
(1257,0,l),
(1504,1489,l)
);
}
);
width = 1583;
}
);
metricLeft = H;
metricRight = H;
unicode = 78;
userData = {
"interface.width-adjustments" = (
-16
);
};
}
{
color = (219,235,247,1);
glyphname = O;
kernLeft = C;
kernRight = D;
layers = (
{
anchors = (
{
name = bottom;
pos = (780,0);
},
{
name = ogonek;
pos = (922,-6);
},
{
name = tonos;
pos = (198,1489);
},
{
name = top;
pos = (780,1676);
}
);
guides = (
{
angle = 90;
pos = (1072,1652);
}
);
layerId = "C698F293-3EC0-4A5A-A3A0-0FDB1F5CF265";
shapes = (
{
closed = 1;
nodes = (
(1437,1216,o),
(1161,1510,o),
(780,1510,cs),
(399,1510,o),
(122,1216,o),
(122,745,c),
(122,273,o),
(399,-20,o),
(780,-20,cs),
(1161,-20,o),
(1437,273,o),
(1437,745,c)
);
},
{
closed = 1;
nodes = (
(1263,358,o),
(1050,148,o),
(780,148,cs),
(509,148,o),
(297,358,o),
(297,745,c),
(297,1132,o),
(509,1341,o),
(780,1341,cs),
(1050,1341,o),
(1263,1132,o),
(1263,745,c)
);
}
);
width = 1559;
},
{
anchors = (
{
name = bottom;
pos = (815,0);
},
{
name = ogonek;
pos = (1021,6);
},
{
name = tonos;
pos = (172,1489);
},
{
name = top;
pos = (815,1676);
}
);
guides = (
{
orientation = center;
angle = 90;
pos = (1284,940);
}
);
layerId = "5C20EF92-B63D-42A8-8878-93C2863E0093";
shapes = (
{
closed = 1;
nodes = (
(1539,1242,o),
(1219,1510,o),
(815,1510,cs),
(407,1510,o),
(90,1242,o),
(90,745,cs),
(90,250,o),
(407,-20,o),
(815,-20,cs),
(1219,-20,o),
(1539,247,o),
(1539,745,cs)
);
},
{
closed = 1;
nodes = (
(1123,477,o),
(1015,332,o),
(815,332,cs),
(614,332,o),
(506,477,o),
(506,745,cs),
(506,1012,o),
(614,1158,o),
(815,1158,cs),
(1015,1158,o),
(1123,1012,o),
(1123,745,cs)
);
}
);
width = 1629;
},
{
anchors = (
{
name = bottom;
pos = (698,6);
},
{
name = ogonek;
pos = (841,0);
},
{
name = tonos;
pos = (329,1489);
},
{
name = top;
pos = (963,1676);
}
);
guides = (
{
angle = 90;
pos = (1804,1652);
},
{
angle = -99.4;
pos = (1120,1056);
}
);
layerId = "11F4534A-B963-4AB5-820F-DAF9A20CD933";
shapes = (
{
closed = 1;
nodes = (
(1545,1210,o),
(1312,1510,o),
(928,1510,cs),
(550,1510,o),
(233,1222,o),
(154,756,c),
(76,279,o),
(308,-20,o),
(695,-20,cs),
(1071,-20,o),
(1388,268,o),
(1466,733,c)
);
},
{
closed = 1;
nodes = (
(1231,364,o),
(977,148,o),
(701,148,cs),
(436,148,o),
(262,352,o),
(326,733,c),
(390,1126,o),
(643,1341,o),
(919,1341,cs),
(1184,1341,o),
(1359,1137,o),
(1295,756,c)
);
}
);
width = 1559;
},
{
anchors = (
{
name = bottom;
pos = (687,0);
},
{
name = bottom_dd;
pos = (1329,-407);
},
{
name = ogonek;
pos = (829,-6);
},
{
name = tonos;
pos = (439,1489);
},
{
name = top;
pos = (966,1676);
},
{
name = top0315;
pos = (1615,1600);
},
{
name = top_dd;
pos = (1615,1600);
}
);
associatedMasterId = "11F4534A-B963-4AB5-820F-DAF9A20CD933";
guides = (
{
angle = 90;
pos = (1512,1652);
}
);
layerId = "E11F9D15-1819-45F7-A1B9-2845A462DB74";
name = "Sep 11 18, 23:22";
shapes = (
{
closed = 1;
nodes = (
(1545,1216,o),
(1318,1510,o),
(937,1510,cs),
(556,1510,o),
(230,1216,o),
(154,745,c),
(76,273,o),
(303,-20,o),
(684,-20,cs),
(1065,-20,o),
(1391,273,o),
(1469,745,c)
);
},
{
closed = 1;
nodes = (
(1231,358,o),
(983,148,o),
(713,148,cs),
(442,148,o),
(265,358,o),
(329,745,c),
(393,1132,o),
(640,1341,o),
(911,1341,cs),
(1181,1341,o),
(1359,1132,o),
(1295,745,c)
);
}
);
width = 1559;
},
{
anchors = (
{
name = bottom;
pos = (721,0);
},
{
name = ogonek;
pos = (931,6);
},
{
name = tonos;
pos = (326,1489);
},
{
name = top;
pos = (1001,1676);
}
);
background = {
shapes = (
{
closed = 1;
nodes = (
(1649,1228,o),
(1367,1510,o),
(951,1510,cs),
(556,1510,o),
(204,1251,o),
(125,765,cs),
(41,259,o),
(323,-20,o),
(742,-20,cs),
(1135,-20,o),
(1484,233,o),
(1565,719,cs)
);
},
{
closed = 1;
nodes = (
(1111,489,o),
(969,332,o),
(756,332,cs),
(570,332,o),
(486,460,o),
(532,719,cs),
(576,995,o),
(721,1158,o),
(937,1158,cs),
(1126,1158,o),
(1199,1021,o),
(1158,765,cs)
);
}
);
};
guides = (
{
angle = 90;
pos = (3688,2104);
},
{
angle = -99.4;
pos = (800,584);
}
);
layerId = "D0EC06BF-13F9-4C88-A6F5-B8203AF6C77E";
shapes = (
{
closed = 1;
nodes = (
(1649,1228,o),
(1367,1510,o),
(951,1510,cs),
(556,1510,o),
(204,1251,o),
(125,765,cs),
(41,259,o),
(323,-20,o),
(742,-20,cs),
(1135,-20,o),
(1484,233,o),
(1565,719,cs)
);
},
{
closed = 1;
nodes = (
(1111,489,o),
(969,332,o),
(756,332,cs),
(570,332,o),
(486,460,o),
(532,719,cs),
(576,995,o),
(721,1158,o),
(937,1158,cs),
(1126,1158,o),
(1199,1021,o),
(1158,765,cs)
);
}
);
width = 1629;
},
{
anchors = (
{
name = bottom;
pos = (678,0);
},
{
name = bottom_dd;
pos = (1350,-407);
},
{
name = ogonek;
pos = (879,6);
},
{
name = tonos;
pos = (367,1489);
},
{
name = top;
pos = (940,1585);
},
{
name = top0315;
pos = (1696,1600);
},
{
name = top_dd;
pos = (1696,1600);
}
);
associatedMasterId = "D0EC06BF-13F9-4C88-A6F5-B8203AF6C77E";
guides = (
{
angle = 90;
pos = (1468,2104);
}
);
layerId = "62410FF8-B362-47DD-87E9-ADD04A63F2F4";
name = "Sep 14 18, 09:39";
shapes = (
{
closed = 1;
nodes = (
(1568,1239,o),
(1312,1510,o),
(928,1510,cs),
(541,1510,o),
(195,1239,o),
(111,742,c),
(29,247,o),
(288,-20,o),
(675,-20,cs),
(1059,-20,o),
(1402,244,o),
(1484,742,c)
);
},
{
closed = 1;
nodes = (
(1030,474,o),
(913,335,o),
(733,335,cs),
(550,335,o),
(477,474,o),
(521,742,c),
(567,1012,o),
(687,1155,o),
(870,1155,cs),
(1050,1155,o),
(1120,1012,o),
(1073,742,c)
);
}
);
width = 1536;
},
{
anchors = (
{
name = bottom;
pos = (765,0);
},
{
name = ogonek;
pos = (800,0);
},
{
name = tonos;
pos = (221,1489);
},
{
name = top;
pos = (765,1676);
}
);
layerId = "B1F27B51-9973-4381-9301-4FE46FE1CA59";
shapes = (
{
closed = 1;
nodes = (
(1382,1200,o),
(1132,1510,o),
(765,1510,cs),
(398,1510,o),
(148,1199,o),
(148,745,cs),
(148,291,o),
(397,-20,o),
(765,-20,cs),
(1132,-20,o),
(1382,289,o),
(1382,745,cs)
);
},
{
closed = 1;
nodes = (
(1336,317,o),
(1104,26,o),
(765,26,cs),
(423,26,o),
(195,320,o),
(195,745,cs),
(195,1175,o),
(428,1463,o),
(765,1463,cs),
(1104,1463,o),
(1335,1172,o),
(1335,745,cs)
);
}
);
width = 1530;
},
{
anchors = (
{
name = bottom;
pos = (672,0);
},
{
name = ogonek;
pos = (710,0);
},
{
name = tonos;
pos = (372,1489);
},
{
name = top;
pos = (945,1676);
}
);
layerId = "200BE2C5-40F6-4CF4-AF4F-A33C0CC0964F";
shapes = (
{
closed = 1;
nodes = (
(1489,1202,o),
(1287,1510,o),
(922,1510,cs),
(556,1510,o),
(255,1200,o),
(177,745,cs),
(104,291,o),
(295,-20,o),
(669,-20,cs),
(1035,-20,o),
(1337,289,o),
(1411,745,cs)
);
},
{
closed = 1;
nodes = (
(1297,319,o),
(1012,26,o),
(666,26,cs),
(325,26,o),
(152,313,o),
(224,745,cs),
(299,1174,o),
(583,1463,o),
(925,1463,cs),
(1261,1463,o),
(1436,1178,o),
(1364,745,cs)
);
}
);
width = 1530;
}
);
unicode = 79;
userData = {
com.typemytype.robofont.guideline.magnetic.GU6fgH972W = 5;
"interface.width-adjustments" = (
-16
);
};
}
{
color = (219,235,247,1);
glyphname = P;
kernLeft = B;
kernRight = P;
layers = (
{
anchors = (
{
name = tonos;
pos = (145,1489);
},
{
name = top;
pos = (649,1676);
}
);
guides = (
{
angle = 90;
pos = (1396,1760);
},
{
angle = 90;
pos = (1248,1804);
}
);
layerId = "C698F293-3EC0-4A5A-A3A0-0FDB1F5CF265";
shapes = (
{
closed = 1;
nodes = (
(361,0,l),
(361,1329,l),
(678,1329,ls),
(920,1329,o),
(1012,1197,o),
(1012,1018,cs),
(1012,839,o),
(920,704,o),
(681,704,cs),
(326,704,l),
(326,544,l),
(687,544,ls),
(1033,544,o),
(1190,755,o),
(1190,1018,cs),
(1190,1281,o),
(1033,1489,o),
(684,1489,cs),
(180,1489,l),
(180,0,l)
);
}
);
width = 1300;
},
{
anchors = (
{
name = tonos;
pos = (76,1489);
},
{
name = top;
pos = (657,1676);
}
);
guides = (
{
pos = (12,1240);
},
{
pos = (12,764);
},
{
pos = (12,1552);
},
{
pos = (820,1372);
}
);
layerId = "5C20EF92-B63D-42A8-8878-93C2863E0093";
shapes = (
{
closed = 1;
nodes = (
(500,0,l),
(500,1167,l),
(643,1167,ls),
(785,1167,o),
(870,1091,o),
(870,963,cs),
(870,836,o),
(785,756,o),
(643,756,cs),
(340,756,l),
(340,442,l),
(724,442,ls),
(1064,442,o),
(1292,642,o),
(1292,963,cs),
(1292,1280,o),
(1070,1489,o),
(739,1489,cs),
(96,1489,l),
(96,0,l)
);
}
);
width = 1344;
},
{
anchors = (
{
name = tonos;
pos = (300,1489);
},
{
name = top;
pos = (835,1676);
}
);
guides = (
{
angle = 90;
pos = (2216,1760);
},
{
angle = 90;
pos = (2108,1804);
}
);
layerId = "11F4534A-B963-4AB5-820F-DAF9A20CD933";
shapes = (
{
closed = 1;
nodes = (
(268,0,l),
(489,1329,l),
(806,1329,l),
(1047,1329,o),
(1117,1199,o),
(1088,1018,cs),
(1059,841,o),
(943,704,o),
(704,704,c),
(349,704,l),
(323,544,l),
(684,544,l),
(1030,544,o),
(1222,756,o),
(1265,1018,cs),
(1309,1283,o),
(1187,1489,o),
(838,1489,c),
(335,1489,l),
(87,0,l)
);
}
);
width = 1297;
},
{
anchors = (
{
name = tonos;
pos = (230,1489);
},
{
name = top;
pos = (844,1676);
}
);
guides = (
{
pos = (396,1240);
},
{
pos = (4,764);
},
{
pos = (652,1552);
},
{
pos = (1312,1372);
}
);
layerId = "D0EC06BF-13F9-4C88-A6F5-B8203AF6C77E";
shapes = (
{
closed = 1;
nodes = (
(407,0,l),
(602,1167,l),
(745,1167,ls),
(887,1167,o),
(957,1091,o),
(937,963,cs),
(916,835,o),
(820,756,o),
(675,756,cs),
(372,756,l),
(320,442,l),
(704,442,ls),
(1047,442,o),
(1306,640,o),
(1359,963,cs),
(1411,1280,o),
(1225,1489,o),
(893,1489,cs),
(250,1489,l),
(3,0,l)
);
}
);
width = 1344;
},
{
anchors = (
{
name = tonos;
pos = (189,1489);
},
{
name = top;
pos = (637,1676);
}
);
layerId = "B1F27B51-9973-4381-9301-4FE46FE1CA59";
shapes = (
{
closed = 1;
nodes = (
(279,0,l),
(279,1443,l),
(669,1443,ls),
(892,1443,o),
(1050,1281,o),
(1050,1053,cs),
(1050,826,o),
(892,666,o),
(669,666,cs),
(256,666,l),
(256,620,l),
(669,620,ls),
(919,620,o),
(1097,799,o),
(1097,1053,cs),
(1097,1308,o),
(919,1489,o),
(669,1489,cs),
(233,1489,l),
(233,0,l)
);
}
);
width = 1242;
},
{
anchors = (
{
name = tonos;
pos = (343,1489);
},
{
name = top;
pos = (823,1676);
}
);
layerId = "200BE2C5-40F6-4CF4-AF4F-A33C0CC0964F";
shapes = (
{
closed = 1;
nodes = (
(186,0,l),
(425,1443,l),
(815,1443,ls),
(1039,1443,o),
(1169,1283,o),
(1132,1053,cs),
(1094,826,o),
(911,666,o),
(687,666,cs),
(273,666,l),
(265,620,l),
(678,620,ls),
(928,620,o),
(1137,800,o),
(1178,1053,cs),
(1222,1309,o),
(1073,1489,o),
(823,1489,cs),
(387,1489,l),
(140,0,l)
);
}
);
width = 1242;
}
);
metricLeft = H;
unicode = 80;
userData = {
com.typemytype.robofont.guideline.magnetic.fNIC4eKo9v = 5;
com.typemytype.robofont.guideline.magnetic.hdLF6WxJ6g = 5;
"interface.width-adjustments" = (
-16
);
};
}
{
color = (219,235,247,1);
glyphname = Q;
kernLeft = C;
kernRight = D;
layers = (
{
layerId = "C698F293-3EC0-4A5A-A3A0-0FDB1F5CF265";
shapes = (
{
closed = 1;
nodes = (
(975,134,l),
(1015,79,l),
(1178,-140,l),
(1376,-140,l),
(1129,189,l),
(1085,247,l),
(919,465,l),
(721,465,l)
);
},
{
ref = O;
}
);
width = 1559;
},
{
guides = (
{
angle = 90;
pos = (1024,1432);
}
);
layerId = "5C20EF92-B63D-42A8-8878-93C2863E0093";
shapes = (
{
closed = 1;
nodes = (
(887,268,l),
(1007,96,l),
(1184,-111,l),
(1542,-111,l),
(1292,192,l),
(1100,410,l),
(986,553,l),
(672,553,l)
);
},
{
ref = O;
}
);
width = 1632;
},
{
layerId = "11F4534A-B963-4AB5-820F-DAF9A20CD933";
shapes = (
{
closed = 1;
nodes = (
(948,134,l),
(989,79,l),
(1152,-140,l),
(1350,-140,l),
(1103,189,l),
(1059,247,l),
(893,465,l),
(695,465,l)
);
},
{
ref = O;
}
);
width = 1588;
},
{
guides = (
{
angle = 90;
pos = (1588,1432);
}
);
layerId = "D0EC06BF-13F9-4C88-A6F5-B8203AF6C77E";
shapes = (
{
closed = 1;
nodes = (
(835,268,l),
(928,96,l),
(1071,-111,l),
(1428,-111,l),
(1228,192,l),
(1073,410,l),
(983,553,l),
(669,553,l)
);
},
{
ref = O;
}
);
width = 1630;
},
{
layerId = "B1F27B51-9973-4381-9301-4FE46FE1CA59";
shapes = (
{
closed = 1;
nodes = (
(1082,122,l),
(1091,111,l),
(1280,-140,l),
(1338,-140,l),
(1132,134,l),
(1123,145,l),
(881,465,l),
(823,465,l)
);
},
{
alignment = -1;
ref = O;
}
);
width = 1530;
},
{
layerId = "200BE2C5-40F6-4CF4-AF4F-A33C0CC0964F";
shapes = (
{
closed = 1;
nodes = (
(1018,122,l),
(1027,111,l),
(1216,-140,l),
(1274,-140,l),
(1068,134,l),
(1059,145,l),
(817,465,l),
(759,465,l)
);
},
{
alignment = -1;
ref = O;
}
);
width = 1540;
}
);
metricLeft = O;
metricRight = O;
unicode = 81;
userData = {
"interface.width-adjustments" = (
-16
);
};
}
{
color = (219,235,247,1);
glyphname = R;
kernLeft = B;
kernRight = R;
layers = (
{
anchors = (
{
name = bottom;
pos = (672,0);
},
{
name = top;
pos = (646,1676);
}
);
background = {
shapes = (
{
closed = 1;
nodes = (
(361,0,l),
(361,1329,l),
(707,1329,ls),
(905,1329,o),
(1012,1219,o),
(1012,1033,cs),
(1012,855,o),
(911,745,o),
(687,745,cs),
(291,745,l),
(291,582,l),
(724,582,l),
(1039,0,l),
(1248,0,l),
(911,617,l),
(1100,687,o),
(1190,844,o),
(1190,1036,cs),
(1190,1303,o),
(1015,1489,o),
(716,1489,cs),
(180,1489,l),
(180,0,l)
);
}
);
};
guides = (
{
orientation = center;
angle = 90;
pos = (924,2112);
}
);
layerId = "C698F293-3EC0-4A5A-A3A0-0FDB1F5CF265";
shapes = (
{
closed = 1;
nodes = (
(361,0,l),
(361,1329,l),
(678,1329,ls),
(919,1329,o),
(1012,1212,o),
(1012,1033,cs),
(1012,854,o),
(919,745,o),
(681,745,cs),
(279,745,l),
(279,582,l),
(687,582,ls),
(1033,582,o),
(1190,769,o),
(1190,1033,cs),
(1190,1296,o),
(1033,1489,o),
(684,1489,cs),
(180,1489,l),
(180,0,l)
);
},
{
closed = 1;
nodes = (
(678,669,l),
(1039,0,l),
(1248,0,l),
(881,669,l)
);
}
);
width = 1309;
},
{
anchors = (
{
name = bottom;
pos = (698,0);
},
{
name = top;
pos = (675,1676);
}
);
background = {
shapes = (
{
closed = 1;
nodes = (
(500,0,l),
(500,1167,l),
(695,1167,ls),
(815,1167,o),
(884,1100,o),
(884,992,cs),
(884,881,o),
(815,812,o),
(695,812,cs),
(308,812,l),
(308,527,l),
(657,527,l),
(922,0,l),
(1361,0,l),
(1059,588,l),
(1207,666,o),
(1309,806,o),
(1309,1001,cs),
(1309,1309,o),
(1097,1489,o),
(730,1489,cs),
(96,1489,l,{
name = hr00;
}),
(96,0,l)
);
}
);
};
guides = (
{
pos = (12,1552);
},
{
angle = 90;
pos = (1444,0);
},
{
orientation = center;
angle = 90;
pos = (840,220);
}
);
layerId = "5C20EF92-B63D-42A8-8878-93C2863E0093";
shapes = (
{
closed = 1;
nodes = (
(500,0,l),
(500,1167,l),
(643,1167,ls),
(785,1167,o),
(870,1111,o),
(870,983,cs),
(870,856,o),
(785,806,o),
(643,806,cs),
(340,806,l),
(340,492,l),
(724,492,ls),
(1064,492,o),
(1292,663,o),
(1292,983,cs),
(1292,1300,o),
(1070,1489,o),
(739,1489,cs),
(96,1489,l),
(96,0,l)
);
},
{
closed = 1;
nodes = (
(538,684,l),
(902,0,l),
(1341,0,l),
(969,684,l)
);
}
);
width = 1367;
},
{
anchors = (
{
name = bottom;
pos = (579,0);
},
{
name = top;
pos = (832,1676);
}
);
guides = (
{
angle = -99.4;
pos = (1560,2112);
}
);
layerId = "11F4534A-B963-4AB5-820F-DAF9A20CD933";
shapes = (
{
closed = 1;
nodes = (
(268,0,l),
(489,1329,l),
(806,1329,ls),
(1047,1329,o),
(1120,1213,o),
(1091,1033,cs),
(1062,855,o),
(951,745,o),
(713,745,cs),
(311,745,l),
(282,582,l),
(689,582,ls),
(1036,582,o),
(1225,771,o),
(1268,1033,cs),
(1312,1297,o),
(1187,1489,o),
(838,1489,cs),
(335,1489,l),
(87,0,l)
);
},
{
closed = 1;
nodes = (
(695,669,l),
(945,0,l),
(1155,0,l),
(899,669,l)
);
}
);
width = 1309;
},
{
anchors = (
{
name = bottom;
pos = (605,0);
},
{
name = top;
pos = (861,1676);
}
);
guides = (
{
pos = (920,1552);
},
{
angle = 90;
pos = (552,0);
},
{
orientation = center;
angle = 90;
pos = (208,220);
}
);
layerId = "D0EC06BF-13F9-4C88-A6F5-B8203AF6C77E";
shapes = (
{
closed = 1;
nodes = (
(407,0,l),
(602,1167,l),
(745,1167,ls),
(884,1167,o),
(960,1111,o),
(940,983,cs),
(919,855,o),
(826,806,o),
(684,806,cs),
(381,806,l),
(329,492,l),
(713,492,ls),
(1053,492,o),
(1309,663,o),
(1361,983,cs),
(1414,1300,o),
(1225,1489,o),
(893,1489,cs),
(250,1489,l),
(3,0,l)
);
},
{
closed = 1;
nodes = (
(559,684,l),
(809,0,l),
(1248,0,l),
(989,684,l)
);
}
);
width = 1388;
},
{
anchors = (
{
name = bottom;
pos = (646,0);
},
{
name = top;
pos = (625,1676);
}
);
layerId = "B1F27B51-9973-4381-9301-4FE46FE1CA59";
shapes = (
{
closed = 1;
nodes = (
(279,0,l),
(279,1443,l),
(669,1443,ls),
(892,1443,o),
(1050,1293,o),
(1050,1065,cs),
(1050,838,o),
(892,689,o),
(669,689,cs),
(256,689,l),
(256,643,l),
(669,643,ls),
(919,643,o),
(1097,811,o),
(1097,1065,cs),
(1097,1320,o),
(919,1489,o),
(669,1489,cs),
(233,1489,l),
(233,0,l)
);
},
{
closed = 1;
nodes = (
(748,678,l),
(1114,0,l),
(1167,0,l),
(800,678,l)
);
}
);
width = 1260;
},
{
anchors = (
{
name = bottom;
pos = (553,0);
},
{
name = top;
pos = (812,1676);
}
);
layerId = "200BE2C5-40F6-4CF4-AF4F-A33C0CC0964F";
shapes = (
{
closed = 1;
nodes = (
(186,0,l),
(425,1443,l),
(815,1443,ls),
(1039,1443,o),
(1172,1295,o),
(1135,1065,cs),
(1097,838,o),
(913,689,o),
(689,689,cs),
(276,689,l),
(271,643,l),
(684,643,ls),
(934,643,o),
(1137,812,o),
(1181,1065,cs),
(1222,1321,o),
(1073,1489,o),
(823,1489,cs),
(387,1489,l),
(140,0,l)
);
},
{
closed = 1;
nodes = (
(771,678,l),
(1024,0,l),
(1073,0,l),
(820,678,l)
);
}
);
width = 1260;
},
{
anchors = (
{
name = bottom;
pos = (672,0);
},
{
name = top;
pos = (640,1676);
}
);
associatedMasterId = "C698F293-3EC0-4A5A-A3A0-0FDB1F5CF265";
guides = (
{
orientation = center;
angle = 90;
pos = (924,2112);
}
);
layerId = "DE316BBE-2641-4C0D-8E2F-8ACABB428D9B";
name = "Nov 25 18, 13:05";
shapes = (
{
closed = 1;
nodes = (
(361,0,l),
(361,1329,l),
(707,1329,ls),
(905,1329,o),
(1012,1219,o),
(1012,1033,cs),
(1012,855,o),
(911,745,o),
(687,745,cs),
(291,745,l),
(291,582,l),
(724,582,l),
(1039,0,l),
(1248,0,l),
(911,617,l),
(1100,687,o),
(1190,844,o),
(1190,1036,cs),
(1190,1303,o),
(1015,1489,o),
(716,1489,cs),
(180,1489,l),
(180,0,l)
);
},
{
closed = 0;
nodes = (
(1015,582,l),
(1329,0,l),
(1539,0,l),
(1201,617,l)
);
}
);
width = 1309;
}
);
metricLeft = H;
unicode = 82;
userData = {
com.typemytype.robofont.guideline.magnetic.vulxOItvKZ = 5;
"interface.width-adjustments" = (
-16
);
};
}
{
color = (219,235,247,1);
glyphname = T;
kernLeft = T;
kernRight = T;
layers = (
{
anchors = (
{
name = bottom;
pos = (657,0);
},
{
name = cedilla;
pos = (681,0);
},
{
name = cross;
pos = (657,768);
},
{
name = cyrtic;
pos = (829,64);
},
{
name = right;
pos = (698,0);
},
{
name = top;
pos = (657,1676);
}
);
guides = (
{
orientation = center;
angle = 90;
pos = (1264,176);
}
);
layerId = "C698F293-3EC0-4A5A-A3A0-0FDB1F5CF265";
shapes = (
{
closed = 1;
nodes = (
(567,1329,l),
(567,0,l),
(748,0,l),
(748,1329,l),
(1216,1329,l),
(1216,1489,l),
(99,1489,l),
(99,1329,l)
);
}
);
width = 1315;
},
{
anchors = (
{
name = bottom;
pos = (701,0);
},
{
name = cedilla;
pos = (695,0);
},
{
name = cross;
pos = (701,666);
},
{
name = cyrtic;
pos = (1076,163);
},
{
name = right;
pos = (855,0);
},
{
name = top;
pos = (704,1676);
}
);
guides = (
{
orientation = center;
angle = 90;
pos = (972,956);
}
);
layerId = "5C20EF92-B63D-42A8-8878-93C2863E0093";
shapes = (
{
closed = 1;
nodes = (
(503,1164,l),
(503,0,l),
(902,0,l),
(902,1164,l),
(1350,1164,l),
(1350,1489,l),
(55,1489,l),
(55,1164,l)
);
}
);
width = 1405;
},
{
anchors = (
{
name = bottom;
pos = (564,0);
},
{
name = cedilla;
pos = (585,0);
},
{
name = cross;
pos = (692,768);
},
{
name = cyrtic;
pos = (748,64);
},
{
name = right;
pos = (605,0);
},
{
name = top;
pos = (844,1676);
}
);
guides = (
{
angle = -99.4;
pos = (804,176);
}
);
layerId = "11F4534A-B963-4AB5-820F-DAF9A20CD933";
shapes = (
{
closed = 1;
nodes = (
(695,1329,l),
(474,0,l),
(655,0,l),
(876,1329,l),
(1344,1329,l),
(1370,1489,l),
(253,1489,l),
(227,1329,l)
);
}
);
width = 1315;
},
{
anchors = (
{
name = bottom;
pos = (608,0);
},
{
name = cedilla;
pos = (602,0);
},
{
name = cross;
pos = (719,666);
},
{
name = cyrtic;
pos = (1009,163);
},
{
name = right;
pos = (762,0);
},
{
name = top;
pos = (890,1676);
}
);
guides = (
{
angle = -99.4;
pos = (998,960);
}
);
layerId = "D0EC06BF-13F9-4C88-A6F5-B8203AF6C77E";
shapes = (
{
closed = 1;
nodes = (
(602,1164,l),
(410,0,l),
(809,0,l),
(1001,1164,l),
(1449,1164,l),
(1504,1489,l),
(209,1489,l),
(154,1164,l)
);
}
);
width = 1405;
},
{
anchors = (
{
name = bottom;
pos = (628,0);
},
{
name = cedilla;
pos = (628,-6);
},
{
name = cross;
pos = (628,768);
},
{
name = cyrtic;
pos = (672,6);
},
{
name = right;
pos = (640,0);
},
{
name = top;
pos = (628,1676);
}
);
layerId = "B1F27B51-9973-4381-9301-4FE46FE1CA59";
shapes = (
{
closed = 1;
nodes = (
(605,1443,l),
(605,0,l),
(652,0,l),
(652,1443,l),
(1132,1443,l),
(1132,1489,l),
(125,1489,l),
(125,1443,l)
);
}
);
width = 1257;
},
{
anchors = (
{
name = bottom;
pos = (535,0);
},
{
name = cedilla;
pos = (534,-6);
},
{
name = cross;
pos = (663,768);
},
{
name = cyrtic;
pos = (580,6);
},
{
name = right;
pos = (547,0);
},
{
name = top;
pos = (815,1676);
}
);
layerId = "200BE2C5-40F6-4CF4-AF4F-A33C0CC0964F";
shapes = (
{
closed = 1;
nodes = (
(751,1443,l),
(512,0,l),
(559,0,l),
(797,1443,l),
(1277,1443,l),
(1286,1489,l),
(279,1489,l),
(271,1443,l)
);
}
);
width = 1257;
}
);
unicode = 84;
userData = {
"interface.width-adjustments" = (
-16
);
};
}
{
color = (219,235,247,1);
glyphname = U;
kernLeft = U;
kernRight = J;
layers = (
{
anchors = (
{
name = bottom;
pos = (759,-20);
},
{
name = ogonek;
pos = (902,0);
},
{
name = right;
pos = (844,0);
},
{
name = top;
pos = (759,1676);
}
);
guides = (
{
orientation = center;
angle = 90;
pos = (1036,2084);
}
);
layerId = "C698F293-3EC0-4A5A-A3A0-0FDB1F5CF265";
shapes = (
{
closed = 1;
nodes = (
(1158,518,ls),
(1158,300,o),
(1008,143,o),
(759,143,cs),
(511,143,o),
(361,300,o),
(361,518,cs),
(361,1489,l),
(180,1489,l),
(180,503,ls),
(180,198,o),
(409,-26,o),
(759,-26,cs),
(1110,-26,o),
(1338,198,o),
(1338,503,cs),
(1338,1489,l),
(1158,1489,l)
);
}
);
width = 1519;
},
{
anchors = (
{
name = bottom;
pos = (739,9);
},
{
name = ogonek;
pos = (960,10);
},
{
name = right;
pos = (867,0);
},
{
name = top;
pos = (739,1676);
}
);
background = {
shapes = (
{
closed = 1;
nodes = (
(528,1450,l),
(103,1450,l),
(103,522,ls),
(103,192,o),
(358,-17,o),
(739,-17,cs),
(1120,-17,o),
(1376,192,o),
(1376,522,cs),
(1376,1450,l),
(951,1450,l),
(951,569,ls),
(951,416,o),
(876,333,o),
(739,333,cs),
(602,333,o),
(528,416,o),
(528,569,cs)
);
}
);
};
guides = (
{
pos = (12,1240);
},
{
pos = (12,764);
},
{
pos = (12,1552);
},
{
orientation = center;
angle = 90;
pos = (1032,564);
}
);
layerId = "5C20EF92-B63D-42A8-8878-93C2863E0093";
shapes = (
{
closed = 1;
nodes = (
(977,570,ls),
(977,431,o),
(878,332,o),
(739,332,cs),
(600,332,o),
(500,431,o),
(500,570,cs),
(500,1489,l),
(96,1489,l),
(96,535,ls),
(96,195,o),
(353,-17,o),
(739,-17,cs),
(1121,-17,o),
(1382,195,o),
(1382,535,cs),
(1382,1489,l),
(977,1489,l)
);
}
);
width = 1478;
},
{
anchors = (
{
name = bottom;
pos = (662,-20);
},
{
name = ogonek;
pos = (807,0);
},
{
name = right;
pos = (749,0);
},
{
name = top;
pos = (942,1676);
}
);
layerId = "11F4534A-B963-4AB5-820F-DAF9A20CD933";
shapes = (
{
closed = 1;
nodes = (
(1149,518,ls),
(1112,300,o),
(938,143,o),
(689,143,cs),
(440,143,o),
(315,300,o),
(352,518,cs),
(513,1489,l),
(333,1489,l),
(170,503,ls),
(120,198,o),
(310,-26,o),
(660,-26,cs),
(1011,-26,o),
(1278,198,o),
(1328,503,cs),
(1491,1489,l),
(1310,1489,l)
);
}
);
width = 1518;
},
{
anchors = (
{
name = bottom;
pos = (646,9);
},
{
name = ogonek;
pos = (866,10);
},
{
name = right;
pos = (773,0);
},
{
name = top;
pos = (923,1676);
}
);
guides = (
{
pos = (479,1240);
},
{
pos = (9,764);
},
{
pos = (791,1552);
},
{
orientation = center;
angle = 90;
pos = (88,564);
}
);
layerId = "D0EC06BF-13F9-4C88-A6F5-B8203AF6C77E";
shapes = (
{
closed = 1;
nodes = (
(978,570,ls),
(955,432,o),
(840,332,o),
(700,332,cs),
(562,332,o),
(478,432,o),
(501,570,cs),
(654,1489,l),
(249,1489,l),
(91,535,ls),
(34,195,o),
(256,-17,o),
(642,-17,cs),
(1024,-17,o),
(1320,195,o),
(1376,535,cs),
(1535,1489,l),
(1131,1489,l)
);
}
);
width = 1477;
},
{
anchors = (
{
name = bottom;
pos = (768,-23);
},
{
name = ogonek;
pos = (831,0);
},
{
name = right;
pos = (829,0);
},
{
name = top;
pos = (768,1676);
}
);
layerId = "B1F27B51-9973-4381-9301-4FE46FE1CA59";
shapes = (
{
closed = 1;
nodes = (
(1257,503,ls),
(1257,228,o),
(1049,23,o),
(768,23,cs),
(487,23,o),
(279,228,o),
(279,503,cs),
(279,1489,l),
(233,1489,l),
(233,503,ls),
(231,202,o),
(463,-23,o),
(768,-23,cs),
(1074,-23,o),
(1303,201,o),
(1303,503,cs),
(1303,1489,l),
(1257,1489,l)
);
}
);
width = 1536;
},
{
anchors = (
{
name = bottom;
pos = (671,-23);
},
{
name = ogonek;
pos = (738,0);
},
{
name = right;
pos = (738,0);
},
{
name = top;
pos = (953,1676);
}
);
layerId = "200BE2C5-40F6-4CF4-AF4F-A33C0CC0964F";
shapes = (
{
closed = 1;
nodes = (
(1247,503,ls),
(1201,228,o),
(952,23,o),
(671,23,cs),
(391,23,o),
(224,228,o),
(270,503,cs),
(433,1489,l),
(386,1489,l),
(223,503,ls),
(174,202,o),
(368,-23,o),
(671,-23,cs),
(979,-23,o),
(1244,201,o),
(1294,503,cs),
(1457,1489,l),
(1410,1489,l)
);
}
);
width = 1536;
}
);
metricLeft = H;
metricRight = H;
unicode = 85;
userData = {
com.typemytype.robofont.guideline.magnetic.icXM2D4lH7 = 5;
"interface.width-adjustments" = (
-16
);
};
}
{
color = (219,235,247,1);
glyphname = V;
kernLeft = V;
kernRight = V;
layers = (
{
anchors = (
{
name = bottom;
pos = (692,0);
},
{
name = top;
pos = (692,1676);
}
);
guides = (
{
orientation = center;
angle = 90;
pos = (944,476);
},
{
angle = 90;
pos = (312,2088);
},
{
angle = 90;
pos = (1552,2196);
}
);
layerId = "C698F293-3EC0-4A5A-A3A0-0FDB1F5CF265";
shapes = (
{
closed = 1;
nodes = (
(52,1489,l),
(599,0,l),
(785,0,l),
(1332,1489,l),
(1143,1489,l),
(701,236,l),
(684,236,l),
(241,1489,l)
);
}
);
width = 1385;
},
{
anchors = (
{
name = bottom;
pos = (815,0);
},
{
name = top;
pos = (815,1676);
}
);
guides = (
{
orientation = center;
angle = 90;
pos = (1040,1048);
}
);
layerId = "5C20EF92-B63D-42A8-8878-93C2863E0093";
shapes = (
{
closed = 1;
nodes = (
(47,1489,l),
(538,0,l),
(1091,0,l),
(1583,1489,l),
(1126,1489,l),
(820,439,l),
(809,439,l),
(503,1489,l)
);
}
);
width = 1629;
},
{
anchors = (
{
name = bottom;
pos = (600,0);
},
{
name = top;
pos = (877,1676);
}
);
guides = (
{
angle = 90;
pos = (798,476);
},
{
angle = 90;
pos = (966,2088);
},
{
angle = 90;
pos = (2258,2196);
}
);
layerId = "11F4534A-B963-4AB5-820F-DAF9A20CD933";
shapes = (
{
closed = 1;
nodes = (
(205,1489,l),
(504,0,l),
(691,0,l),
(1485,1489,l),
(1296,1489,l),
(647,236,l),
(630,236,l),
(394,1489,l)
);
}
);
width = 1385;
},
{
anchors = (
{
name = bottom;
pos = (720,0);
},
{
name = top;
pos = (999,1676);
}
);
guides = (
{
angle = 90;
pos = (1526,1048);
}
);
layerId = "D0EC06BF-13F9-4C88-A6F5-B8203AF6C77E";
shapes = (
{
closed = 1;
nodes = (
(199,1489,l),
(443,0,l),
(996,0,l),
(1735,1489,l),
(1278,1489,l),
(798,439,l),
(787,439,l),
(656,1489,l)
);
}
);
width = 1629;
},
{
anchors = (
{
name = bottom;
pos = (812,0);
},
{
name = top;
pos = (812,1585);
}
);
associatedMasterId = "5C20EF92-B63D-42A8-8878-93C2863E0093";
guides = (
{
orientation = center;
angle = 90;
pos = (1040,1048);
}
);
layerId = "B0E2023B-B6D1-4711-B977-6B7F091C03CB";
name = "Oct 2 18, 14:43";
shapes = (
{
closed = 1;
nodes = (
(47,1489,l),
(553,0,l),
(1071,0,l),
(1577,1489,l),
(1129,1489,l),
(820,497,l),
(803,497,l),
(495,1489,l)
);
}
);
width = 1623;
},
{
anchors = (
{
name = bottom;
pos = (631,0);
},
{
name = top;
pos = (631,1676);
}
);
layerId = "B1F27B51-9973-4381-9301-4FE46FE1CA59";
shapes = (
{
closed = 1;
nodes = (
(67,1489,l),
(599,0,l),
(663,0,l),
(1196,1489,l),
(1146,1489,l),
(634,58,l),
(628,58,l),
(116,1489,l)
);
}
);
width = 1263;
},
{
anchors = (
{
name = bottom;
pos = (537,0);
},
{
name = top;
pos = (814,1676);
}
);
layerId = "200BE2C5-40F6-4CF4-AF4F-A33C0CC0964F";
shapes = (
{
closed = 1;
nodes = (
(220,1489,l),
(505,0,l),
(569,0,l),
(1349,1489,l),
(1300,1489,l),
(549,58,l),
(543,58,l),
(270,1489,l)
);
}
);
width = 1263;
}
);
metricLeft = A;
metricRight = A;
unicode = 86;
userData = {
com.typemytype.robofont.guideline.magnetic.IJvllllLzF = 5;
com.typemytype.robofont.guideline.magnetic.KeOP4W9VuQ = 5;
com.typemytype.robofont.guideline.magnetic.yHrbtxZ5FX = 5;
"interface.width-adjustments" = (
-16
);
};
}
